%TF.GenerationSoftware,KiCad,Pcbnew,(5.1.9-0-10_14)*%
%TF.CreationDate,2021-11-09T22:49:23+01:00*%
%TF.ProjectId,xDoor,78446f6f-722e-46b6-9963-61645f706362,rev?*%
%TF.SameCoordinates,Original*%
%TF.FileFunction,Soldermask,Top*%
%TF.FilePolarity,Negative*%
%FSLAX46Y46*%
G04 Gerber Fmt 4.6, Leading zero omitted, Abs format (unit mm)*
G04 Created by KiCad (PCBNEW (5.1.9-0-10_14)) date 2021-11-09 22:49:23*
%MOMM*%
%LPD*%
G01*
G04 APERTURE LIST*
%ADD10O,1.700000X1.700000*%
%ADD11R,1.700000X1.700000*%
%ADD12C,3.000000*%
%ADD13R,3.000000X3.000000*%
%ADD14C,5.700000*%
%ADD15R,3.500000X2.300000*%
%ADD16O,1.600000X1.600000*%
%ADD17R,1.600000X1.600000*%
%ADD18R,0.800000X0.900000*%
%ADD19R,10.800000X9.400000*%
%ADD20R,1.100000X4.600000*%
%ADD21C,2.000000*%
%ADD22R,2.000000X2.000000*%
%ADD23R,3.500000X3.500000*%
G04 APERTURE END LIST*
D10*
%TO.C,J5*%
X63000000Y-18250000D03*
X63000000Y-15710000D03*
D11*
X63000000Y-13170000D03*
%TD*%
D12*
%TO.C,J3*%
X52320000Y-53500000D03*
X47240000Y-53500000D03*
X42160000Y-53500000D03*
D13*
X26920000Y-53500000D03*
D12*
X37080000Y-53500000D03*
X32000000Y-53500000D03*
%TD*%
%TO.C,R9*%
G36*
G01*
X45400000Y-16375000D02*
X45400000Y-15125000D01*
G75*
G02*
X45650000Y-14875000I250000J0D01*
G01*
X46450000Y-14875000D01*
G75*
G02*
X46700000Y-15125000I0J-250000D01*
G01*
X46700000Y-16375000D01*
G75*
G02*
X46450000Y-16625000I-250000J0D01*
G01*
X45650000Y-16625000D01*
G75*
G02*
X45400000Y-16375000I0J250000D01*
G01*
G37*
G36*
G01*
X42300000Y-16375000D02*
X42300000Y-15125000D01*
G75*
G02*
X42550000Y-14875000I250000J0D01*
G01*
X43350000Y-14875000D01*
G75*
G02*
X43600000Y-15125000I0J-250000D01*
G01*
X43600000Y-16375000D01*
G75*
G02*
X43350000Y-16625000I-250000J0D01*
G01*
X42550000Y-16625000D01*
G75*
G02*
X42300000Y-16375000I0J250000D01*
G01*
G37*
%TD*%
%TO.C,R8*%
G36*
G01*
X20850000Y-16625000D02*
X20850000Y-15375000D01*
G75*
G02*
X21100000Y-15125000I250000J0D01*
G01*
X21900000Y-15125000D01*
G75*
G02*
X22150000Y-15375000I0J-250000D01*
G01*
X22150000Y-16625000D01*
G75*
G02*
X21900000Y-16875000I-250000J0D01*
G01*
X21100000Y-16875000D01*
G75*
G02*
X20850000Y-16625000I0J250000D01*
G01*
G37*
G36*
G01*
X17750000Y-16625000D02*
X17750000Y-15375000D01*
G75*
G02*
X18000000Y-15125000I250000J0D01*
G01*
X18800000Y-15125000D01*
G75*
G02*
X19050000Y-15375000I0J-250000D01*
G01*
X19050000Y-16625000D01*
G75*
G02*
X18800000Y-16875000I-250000J0D01*
G01*
X18000000Y-16875000D01*
G75*
G02*
X17750000Y-16625000I0J250000D01*
G01*
G37*
%TD*%
%TO.C,J4*%
G36*
G01*
X974999Y-14700000D02*
X2275001Y-14700000D01*
G75*
G02*
X2525000Y-14949999I0J-249999D01*
G01*
X2525000Y-15650001D01*
G75*
G02*
X2275001Y-15900000I-249999J0D01*
G01*
X974999Y-15900000D01*
G75*
G02*
X725000Y-15650001I0J249999D01*
G01*
X725000Y-14949999D01*
G75*
G02*
X974999Y-14700000I249999J0D01*
G01*
G37*
G36*
G01*
X974999Y-9100000D02*
X2275001Y-9100000D01*
G75*
G02*
X2525000Y-9349999I0J-249999D01*
G01*
X2525000Y-10050001D01*
G75*
G02*
X2275001Y-10300000I-249999J0D01*
G01*
X974999Y-10300000D01*
G75*
G02*
X725000Y-10050001I0J249999D01*
G01*
X725000Y-9349999D01*
G75*
G02*
X974999Y-9100000I249999J0D01*
G01*
G37*
G36*
G01*
X4875000Y-13700000D02*
X6125000Y-13700000D01*
G75*
G02*
X6275000Y-13850000I0J-150000D01*
G01*
X6275000Y-14150000D01*
G75*
G02*
X6125000Y-14300000I-150000J0D01*
G01*
X4875000Y-14300000D01*
G75*
G02*
X4725000Y-14150000I0J150000D01*
G01*
X4725000Y-13850000D01*
G75*
G02*
X4875000Y-13700000I150000J0D01*
G01*
G37*
G36*
G01*
X4875000Y-12700000D02*
X6125000Y-12700000D01*
G75*
G02*
X6275000Y-12850000I0J-150000D01*
G01*
X6275000Y-13150000D01*
G75*
G02*
X6125000Y-13300000I-150000J0D01*
G01*
X4875000Y-13300000D01*
G75*
G02*
X4725000Y-13150000I0J150000D01*
G01*
X4725000Y-12850000D01*
G75*
G02*
X4875000Y-12700000I150000J0D01*
G01*
G37*
G36*
G01*
X4875000Y-11700000D02*
X6125000Y-11700000D01*
G75*
G02*
X6275000Y-11850000I0J-150000D01*
G01*
X6275000Y-12150000D01*
G75*
G02*
X6125000Y-12300000I-150000J0D01*
G01*
X4875000Y-12300000D01*
G75*
G02*
X4725000Y-12150000I0J150000D01*
G01*
X4725000Y-11850000D01*
G75*
G02*
X4875000Y-11700000I150000J0D01*
G01*
G37*
G36*
G01*
X4875000Y-10700000D02*
X6125000Y-10700000D01*
G75*
G02*
X6275000Y-10850000I0J-150000D01*
G01*
X6275000Y-11150000D01*
G75*
G02*
X6125000Y-11300000I-150000J0D01*
G01*
X4875000Y-11300000D01*
G75*
G02*
X4725000Y-11150000I0J150000D01*
G01*
X4725000Y-10850000D01*
G75*
G02*
X4875000Y-10700000I150000J0D01*
G01*
G37*
%TD*%
%TO.C,R7*%
G36*
G01*
X18625000Y-51100000D02*
X17375000Y-51100000D01*
G75*
G02*
X17125000Y-50850000I0J250000D01*
G01*
X17125000Y-50050000D01*
G75*
G02*
X17375000Y-49800000I250000J0D01*
G01*
X18625000Y-49800000D01*
G75*
G02*
X18875000Y-50050000I0J-250000D01*
G01*
X18875000Y-50850000D01*
G75*
G02*
X18625000Y-51100000I-250000J0D01*
G01*
G37*
G36*
G01*
X18625000Y-54200000D02*
X17375000Y-54200000D01*
G75*
G02*
X17125000Y-53950000I0J250000D01*
G01*
X17125000Y-53150000D01*
G75*
G02*
X17375000Y-52900000I250000J0D01*
G01*
X18625000Y-52900000D01*
G75*
G02*
X18875000Y-53150000I0J-250000D01*
G01*
X18875000Y-53950000D01*
G75*
G02*
X18625000Y-54200000I-250000J0D01*
G01*
G37*
%TD*%
%TO.C,R6*%
G36*
G01*
X41100000Y-37375000D02*
X41100000Y-38625000D01*
G75*
G02*
X40850000Y-38875000I-250000J0D01*
G01*
X40050000Y-38875000D01*
G75*
G02*
X39800000Y-38625000I0J250000D01*
G01*
X39800000Y-37375000D01*
G75*
G02*
X40050000Y-37125000I250000J0D01*
G01*
X40850000Y-37125000D01*
G75*
G02*
X41100000Y-37375000I0J-250000D01*
G01*
G37*
G36*
G01*
X44200000Y-37375000D02*
X44200000Y-38625000D01*
G75*
G02*
X43950000Y-38875000I-250000J0D01*
G01*
X43150000Y-38875000D01*
G75*
G02*
X42900000Y-38625000I0J250000D01*
G01*
X42900000Y-37375000D01*
G75*
G02*
X43150000Y-37125000I250000J0D01*
G01*
X43950000Y-37125000D01*
G75*
G02*
X44200000Y-37375000I0J-250000D01*
G01*
G37*
%TD*%
%TO.C,R5*%
G36*
G01*
X16100000Y-37375000D02*
X16100000Y-38625000D01*
G75*
G02*
X15850000Y-38875000I-250000J0D01*
G01*
X15050000Y-38875000D01*
G75*
G02*
X14800000Y-38625000I0J250000D01*
G01*
X14800000Y-37375000D01*
G75*
G02*
X15050000Y-37125000I250000J0D01*
G01*
X15850000Y-37125000D01*
G75*
G02*
X16100000Y-37375000I0J-250000D01*
G01*
G37*
G36*
G01*
X19200000Y-37375000D02*
X19200000Y-38625000D01*
G75*
G02*
X18950000Y-38875000I-250000J0D01*
G01*
X18150000Y-38875000D01*
G75*
G02*
X17900000Y-38625000I0J250000D01*
G01*
X17900000Y-37375000D01*
G75*
G02*
X18150000Y-37125000I250000J0D01*
G01*
X18950000Y-37125000D01*
G75*
G02*
X19200000Y-37375000I0J-250000D01*
G01*
G37*
%TD*%
%TO.C,D5*%
G36*
G01*
X43712500Y-18375000D02*
X43712500Y-19625000D01*
G75*
G02*
X43462500Y-19875000I-250000J0D01*
G01*
X42537500Y-19875000D01*
G75*
G02*
X42287500Y-19625000I0J250000D01*
G01*
X42287500Y-18375000D01*
G75*
G02*
X42537500Y-18125000I250000J0D01*
G01*
X43462500Y-18125000D01*
G75*
G02*
X43712500Y-18375000I0J-250000D01*
G01*
G37*
G36*
G01*
X46687500Y-18375000D02*
X46687500Y-19625000D01*
G75*
G02*
X46437500Y-19875000I-250000J0D01*
G01*
X45512500Y-19875000D01*
G75*
G02*
X45262500Y-19625000I0J250000D01*
G01*
X45262500Y-18375000D01*
G75*
G02*
X45512500Y-18125000I250000J0D01*
G01*
X46437500Y-18125000D01*
G75*
G02*
X46687500Y-18375000I0J-250000D01*
G01*
G37*
%TD*%
%TO.C,D4*%
G36*
G01*
X19212500Y-18375000D02*
X19212500Y-19625000D01*
G75*
G02*
X18962500Y-19875000I-250000J0D01*
G01*
X18037500Y-19875000D01*
G75*
G02*
X17787500Y-19625000I0J250000D01*
G01*
X17787500Y-18375000D01*
G75*
G02*
X18037500Y-18125000I250000J0D01*
G01*
X18962500Y-18125000D01*
G75*
G02*
X19212500Y-18375000I0J-250000D01*
G01*
G37*
G36*
G01*
X22187500Y-18375000D02*
X22187500Y-19625000D01*
G75*
G02*
X21937500Y-19875000I-250000J0D01*
G01*
X21012500Y-19875000D01*
G75*
G02*
X20762500Y-19625000I0J250000D01*
G01*
X20762500Y-18375000D01*
G75*
G02*
X21012500Y-18125000I250000J0D01*
G01*
X21937500Y-18125000D01*
G75*
G02*
X22187500Y-18375000I0J-250000D01*
G01*
G37*
%TD*%
%TO.C,D3*%
G36*
G01*
X14625000Y-51237500D02*
X13375000Y-51237500D01*
G75*
G02*
X13125000Y-50987500I0J250000D01*
G01*
X13125000Y-50062500D01*
G75*
G02*
X13375000Y-49812500I250000J0D01*
G01*
X14625000Y-49812500D01*
G75*
G02*
X14875000Y-50062500I0J-250000D01*
G01*
X14875000Y-50987500D01*
G75*
G02*
X14625000Y-51237500I-250000J0D01*
G01*
G37*
G36*
G01*
X14625000Y-54212500D02*
X13375000Y-54212500D01*
G75*
G02*
X13125000Y-53962500I0J250000D01*
G01*
X13125000Y-53037500D01*
G75*
G02*
X13375000Y-52787500I250000J0D01*
G01*
X14625000Y-52787500D01*
G75*
G02*
X14875000Y-53037500I0J-250000D01*
G01*
X14875000Y-53962500D01*
G75*
G02*
X14625000Y-54212500I-250000J0D01*
G01*
G37*
%TD*%
D14*
%TO.C,H4*%
X61500000Y-52500000D03*
%TD*%
%TO.C,H3*%
X61500000Y-3500000D03*
%TD*%
%TO.C,H2*%
X3500000Y-52500000D03*
%TD*%
%TO.C,H1*%
X3500000Y-3500000D03*
%TD*%
D15*
%TO.C,D2*%
X47650000Y-25000000D03*
X42250000Y-25000000D03*
%TD*%
%TO.C,D1*%
X22750000Y-25000000D03*
X17350000Y-25000000D03*
%TD*%
D16*
%TO.C,U2*%
X41380000Y-33500000D03*
X49000000Y-30960000D03*
X41380000Y-30960000D03*
D17*
X49000000Y-33500000D03*
%TD*%
D16*
%TO.C,U1*%
X16380000Y-33540000D03*
X24000000Y-31000000D03*
X16380000Y-31000000D03*
D17*
X24000000Y-33540000D03*
%TD*%
%TO.C,R4*%
G36*
G01*
X48450000Y-38625000D02*
X48450000Y-37375000D01*
G75*
G02*
X48700000Y-37125000I250000J0D01*
G01*
X49500000Y-37125000D01*
G75*
G02*
X49750000Y-37375000I0J-250000D01*
G01*
X49750000Y-38625000D01*
G75*
G02*
X49500000Y-38875000I-250000J0D01*
G01*
X48700000Y-38875000D01*
G75*
G02*
X48450000Y-38625000I0J250000D01*
G01*
G37*
G36*
G01*
X45350000Y-38625000D02*
X45350000Y-37375000D01*
G75*
G02*
X45600000Y-37125000I250000J0D01*
G01*
X46400000Y-37125000D01*
G75*
G02*
X46650000Y-37375000I0J-250000D01*
G01*
X46650000Y-38625000D01*
G75*
G02*
X46400000Y-38875000I-250000J0D01*
G01*
X45600000Y-38875000D01*
G75*
G02*
X45350000Y-38625000I0J250000D01*
G01*
G37*
%TD*%
%TO.C,R3*%
G36*
G01*
X62850000Y-22625000D02*
X62850000Y-21375000D01*
G75*
G02*
X63100000Y-21125000I250000J0D01*
G01*
X63900000Y-21125000D01*
G75*
G02*
X64150000Y-21375000I0J-250000D01*
G01*
X64150000Y-22625000D01*
G75*
G02*
X63900000Y-22875000I-250000J0D01*
G01*
X63100000Y-22875000D01*
G75*
G02*
X62850000Y-22625000I0J250000D01*
G01*
G37*
G36*
G01*
X59750000Y-22625000D02*
X59750000Y-21375000D01*
G75*
G02*
X60000000Y-21125000I250000J0D01*
G01*
X60800000Y-21125000D01*
G75*
G02*
X61050000Y-21375000I0J-250000D01*
G01*
X61050000Y-22625000D01*
G75*
G02*
X60800000Y-22875000I-250000J0D01*
G01*
X60000000Y-22875000D01*
G75*
G02*
X59750000Y-22625000I0J250000D01*
G01*
G37*
%TD*%
%TO.C,R2*%
G36*
G01*
X23450000Y-38625000D02*
X23450000Y-37375000D01*
G75*
G02*
X23700000Y-37125000I250000J0D01*
G01*
X24500000Y-37125000D01*
G75*
G02*
X24750000Y-37375000I0J-250000D01*
G01*
X24750000Y-38625000D01*
G75*
G02*
X24500000Y-38875000I-250000J0D01*
G01*
X23700000Y-38875000D01*
G75*
G02*
X23450000Y-38625000I0J250000D01*
G01*
G37*
G36*
G01*
X20350000Y-38625000D02*
X20350000Y-37375000D01*
G75*
G02*
X20600000Y-37125000I250000J0D01*
G01*
X21400000Y-37125000D01*
G75*
G02*
X21650000Y-37375000I0J-250000D01*
G01*
X21650000Y-38625000D01*
G75*
G02*
X21400000Y-38875000I-250000J0D01*
G01*
X20600000Y-38875000D01*
G75*
G02*
X20350000Y-38625000I0J250000D01*
G01*
G37*
%TD*%
%TO.C,R1*%
G36*
G01*
X37900000Y-22575000D02*
X37900000Y-21325000D01*
G75*
G02*
X38150000Y-21075000I250000J0D01*
G01*
X38950000Y-21075000D01*
G75*
G02*
X39200000Y-21325000I0J-250000D01*
G01*
X39200000Y-22575000D01*
G75*
G02*
X38950000Y-22825000I-250000J0D01*
G01*
X38150000Y-22825000D01*
G75*
G02*
X37900000Y-22575000I0J250000D01*
G01*
G37*
G36*
G01*
X34800000Y-22575000D02*
X34800000Y-21325000D01*
G75*
G02*
X35050000Y-21075000I250000J0D01*
G01*
X35850000Y-21075000D01*
G75*
G02*
X36100000Y-21325000I0J-250000D01*
G01*
X36100000Y-22575000D01*
G75*
G02*
X35850000Y-22825000I-250000J0D01*
G01*
X35050000Y-22825000D01*
G75*
G02*
X34800000Y-22575000I0J250000D01*
G01*
G37*
%TD*%
D18*
%TO.C,Q3*%
X62000000Y-27000000D03*
X61050000Y-25000000D03*
X62950000Y-25000000D03*
%TD*%
%TO.C,Q2*%
X37000000Y-27000000D03*
X36050000Y-25000000D03*
X37950000Y-25000000D03*
%TD*%
D19*
%TO.C,Q1*%
X7000000Y-21875000D03*
D20*
X9540000Y-31025000D03*
X4460000Y-31025000D03*
%TD*%
D21*
%TO.C,K2*%
X52920000Y-35000000D03*
X58000000Y-35000000D03*
X52920000Y-27380000D03*
D22*
X52920000Y-24840000D03*
D21*
X58000000Y-27380000D03*
X58000000Y-24840000D03*
%TD*%
%TO.C,K1*%
X27920000Y-35000000D03*
X33000000Y-35000000D03*
X27920000Y-27380000D03*
D22*
X27920000Y-24840000D03*
D21*
X33000000Y-27380000D03*
X33000000Y-24840000D03*
%TD*%
%TO.C,J2*%
G36*
G01*
X5000000Y-44825000D02*
X5000000Y-43075000D01*
G75*
G02*
X5875000Y-42200000I875000J0D01*
G01*
X7625000Y-42200000D01*
G75*
G02*
X8500000Y-43075000I0J-875000D01*
G01*
X8500000Y-44825000D01*
G75*
G02*
X7625000Y-45700000I-875000J0D01*
G01*
X5875000Y-45700000D01*
G75*
G02*
X5000000Y-44825000I0J875000D01*
G01*
G37*
G36*
G01*
X2250000Y-40250000D02*
X2250000Y-38250000D01*
G75*
G02*
X3000000Y-37500000I750000J0D01*
G01*
X4500000Y-37500000D01*
G75*
G02*
X5250000Y-38250000I0J-750000D01*
G01*
X5250000Y-40250000D01*
G75*
G02*
X4500000Y-41000000I-750000J0D01*
G01*
X3000000Y-41000000D01*
G75*
G02*
X2250000Y-40250000I0J750000D01*
G01*
G37*
D23*
X9750000Y-39250000D03*
%TD*%
D10*
%TO.C,J1*%
X56630000Y-2230000D03*
X56630000Y-4770000D03*
X54090000Y-2230000D03*
X54090000Y-4770000D03*
X51550000Y-2230000D03*
X51550000Y-4770000D03*
X49010000Y-2230000D03*
X49010000Y-4770000D03*
X46470000Y-2230000D03*
X46470000Y-4770000D03*
X43930000Y-2230000D03*
X43930000Y-4770000D03*
X41390000Y-2230000D03*
X41390000Y-4770000D03*
X38850000Y-2230000D03*
X38850000Y-4770000D03*
X36310000Y-2230000D03*
X36310000Y-4770000D03*
X33770000Y-2230000D03*
X33770000Y-4770000D03*
X31230000Y-2230000D03*
X31230000Y-4770000D03*
X28690000Y-2230000D03*
X28690000Y-4770000D03*
X26150000Y-2230000D03*
X26150000Y-4770000D03*
X23610000Y-2230000D03*
X23610000Y-4770000D03*
X21070000Y-2230000D03*
X21070000Y-4770000D03*
X18530000Y-2230000D03*
X18530000Y-4770000D03*
X15990000Y-2230000D03*
X15990000Y-4770000D03*
X13450000Y-2230000D03*
X13450000Y-4770000D03*
X10910000Y-2230000D03*
X10910000Y-4770000D03*
X8370000Y-2230000D03*
D11*
X8370000Y-4770000D03*
%TD*%
M02*
