%TF.GenerationSoftware,KiCad,Pcbnew,(5.1.9-0-10_14)*%
%TF.CreationDate,2021-11-09T22:49:23+01:00*%
%TF.ProjectId,xDoor,78446f6f-722e-46b6-9963-61645f706362,rev?*%
%TF.SameCoordinates,Original*%
%TF.FileFunction,Copper,L1,Top*%
%TF.FilePolarity,Positive*%
%FSLAX46Y46*%
G04 Gerber Fmt 4.6, Leading zero omitted, Abs format (unit mm)*
G04 Created by KiCad (PCBNEW (5.1.9-0-10_14)) date 2021-11-09 22:49:23*
%MOMM*%
%LPD*%
G01*
G04 APERTURE LIST*
%TA.AperFunction,ComponentPad*%
%ADD10O,1.700000X1.700000*%
%TD*%
%TA.AperFunction,ComponentPad*%
%ADD11R,1.700000X1.700000*%
%TD*%
%TA.AperFunction,ComponentPad*%
%ADD12C,3.000000*%
%TD*%
%TA.AperFunction,ComponentPad*%
%ADD13R,3.000000X3.000000*%
%TD*%
%TA.AperFunction,SMDPad,CuDef*%
%ADD14R,3.500000X2.300000*%
%TD*%
%TA.AperFunction,ComponentPad*%
%ADD15O,1.600000X1.600000*%
%TD*%
%TA.AperFunction,ComponentPad*%
%ADD16R,1.600000X1.600000*%
%TD*%
%TA.AperFunction,SMDPad,CuDef*%
%ADD17R,0.800000X0.900000*%
%TD*%
%TA.AperFunction,SMDPad,CuDef*%
%ADD18R,10.800000X9.400000*%
%TD*%
%TA.AperFunction,SMDPad,CuDef*%
%ADD19R,1.100000X4.600000*%
%TD*%
%TA.AperFunction,ComponentPad*%
%ADD20C,2.000000*%
%TD*%
%TA.AperFunction,ComponentPad*%
%ADD21R,2.000000X2.000000*%
%TD*%
%TA.AperFunction,ComponentPad*%
%ADD22R,3.500000X3.500000*%
%TD*%
%TA.AperFunction,ViaPad*%
%ADD23C,0.800000*%
%TD*%
%TA.AperFunction,Conductor*%
%ADD24C,0.250000*%
%TD*%
%TA.AperFunction,Conductor*%
%ADD25C,1.016000*%
%TD*%
%TA.AperFunction,Conductor*%
%ADD26C,0.508000*%
%TD*%
%TA.AperFunction,Conductor*%
%ADD27C,0.254000*%
%TD*%
%TA.AperFunction,Conductor*%
%ADD28C,0.100000*%
%TD*%
%TA.AperFunction,Conductor*%
%ADD29C,0.200000*%
%TD*%
G04 APERTURE END LIST*
D10*
%TO.P,J5,3*%
%TO.N,GND*%
X63000000Y-18250000D03*
%TO.P,J5,2*%
%TO.N,VCC*%
X63000000Y-15710000D03*
D11*
%TO.P,J5,1*%
%TO.N,GPIO_motion_sensor*%
X63000000Y-13170000D03*
%TD*%
D12*
%TO.P,J3,6*%
%TO.N,GND*%
X52320000Y-53500000D03*
%TO.P,J3,5*%
%TO.N,REED_IN*%
X47240000Y-53500000D03*
%TO.P,J3,4*%
%TO.N,BTN_CLOSE*%
X42160000Y-53500000D03*
D13*
%TO.P,J3,1*%
%TO.N,GND*%
X26920000Y-53500000D03*
D12*
%TO.P,J3,3*%
%TO.N,BTN_OPEN*%
X37080000Y-53500000D03*
%TO.P,J3,2*%
%TO.N,VCC*%
X32000000Y-53500000D03*
%TD*%
%TO.P,R9,2*%
%TO.N,Net-(J1-Pad33)*%
%TA.AperFunction,SMDPad,CuDef*%
G36*
G01*
X45400000Y-16375000D02*
X45400000Y-15125000D01*
G75*
G02*
X45650000Y-14875000I250000J0D01*
G01*
X46450000Y-14875000D01*
G75*
G02*
X46700000Y-15125000I0J-250000D01*
G01*
X46700000Y-16375000D01*
G75*
G02*
X46450000Y-16625000I-250000J0D01*
G01*
X45650000Y-16625000D01*
G75*
G02*
X45400000Y-16375000I0J250000D01*
G01*
G37*
%TD.AperFunction*%
%TO.P,R9,1*%
%TO.N,Net-(D5-Pad2)*%
%TA.AperFunction,SMDPad,CuDef*%
G36*
G01*
X42300000Y-16375000D02*
X42300000Y-15125000D01*
G75*
G02*
X42550000Y-14875000I250000J0D01*
G01*
X43350000Y-14875000D01*
G75*
G02*
X43600000Y-15125000I0J-250000D01*
G01*
X43600000Y-16375000D01*
G75*
G02*
X43350000Y-16625000I-250000J0D01*
G01*
X42550000Y-16625000D01*
G75*
G02*
X42300000Y-16375000I0J250000D01*
G01*
G37*
%TD.AperFunction*%
%TD*%
%TO.P,R8,2*%
%TO.N,Net-(J1-Pad32)*%
%TA.AperFunction,SMDPad,CuDef*%
G36*
G01*
X20850000Y-16625000D02*
X20850000Y-15375000D01*
G75*
G02*
X21100000Y-15125000I250000J0D01*
G01*
X21900000Y-15125000D01*
G75*
G02*
X22150000Y-15375000I0J-250000D01*
G01*
X22150000Y-16625000D01*
G75*
G02*
X21900000Y-16875000I-250000J0D01*
G01*
X21100000Y-16875000D01*
G75*
G02*
X20850000Y-16625000I0J250000D01*
G01*
G37*
%TD.AperFunction*%
%TO.P,R8,1*%
%TO.N,Net-(D4-Pad2)*%
%TA.AperFunction,SMDPad,CuDef*%
G36*
G01*
X17750000Y-16625000D02*
X17750000Y-15375000D01*
G75*
G02*
X18000000Y-15125000I250000J0D01*
G01*
X18800000Y-15125000D01*
G75*
G02*
X19050000Y-15375000I0J-250000D01*
G01*
X19050000Y-16625000D01*
G75*
G02*
X18800000Y-16875000I-250000J0D01*
G01*
X18000000Y-16875000D01*
G75*
G02*
X17750000Y-16625000I0J250000D01*
G01*
G37*
%TD.AperFunction*%
%TD*%
%TO.P,J4,MP*%
%TO.N,N/C*%
%TA.AperFunction,SMDPad,CuDef*%
G36*
G01*
X974999Y-14700000D02*
X2275001Y-14700000D01*
G75*
G02*
X2525000Y-14949999I0J-249999D01*
G01*
X2525000Y-15650001D01*
G75*
G02*
X2275001Y-15900000I-249999J0D01*
G01*
X974999Y-15900000D01*
G75*
G02*
X725000Y-15650001I0J249999D01*
G01*
X725000Y-14949999D01*
G75*
G02*
X974999Y-14700000I249999J0D01*
G01*
G37*
%TD.AperFunction*%
%TA.AperFunction,SMDPad,CuDef*%
G36*
G01*
X974999Y-9100000D02*
X2275001Y-9100000D01*
G75*
G02*
X2525000Y-9349999I0J-249999D01*
G01*
X2525000Y-10050001D01*
G75*
G02*
X2275001Y-10300000I-249999J0D01*
G01*
X974999Y-10300000D01*
G75*
G02*
X725000Y-10050001I0J249999D01*
G01*
X725000Y-9349999D01*
G75*
G02*
X974999Y-9100000I249999J0D01*
G01*
G37*
%TD.AperFunction*%
%TO.P,J4,4*%
%TO.N,GND*%
%TA.AperFunction,SMDPad,CuDef*%
G36*
G01*
X4875000Y-13700000D02*
X6125000Y-13700000D01*
G75*
G02*
X6275000Y-13850000I0J-150000D01*
G01*
X6275000Y-14150000D01*
G75*
G02*
X6125000Y-14300000I-150000J0D01*
G01*
X4875000Y-14300000D01*
G75*
G02*
X4725000Y-14150000I0J150000D01*
G01*
X4725000Y-13850000D01*
G75*
G02*
X4875000Y-13700000I150000J0D01*
G01*
G37*
%TD.AperFunction*%
%TO.P,J4,3*%
%TO.N,Net-(J1-Pad1)*%
%TA.AperFunction,SMDPad,CuDef*%
G36*
G01*
X4875000Y-12700000D02*
X6125000Y-12700000D01*
G75*
G02*
X6275000Y-12850000I0J-150000D01*
G01*
X6275000Y-13150000D01*
G75*
G02*
X6125000Y-13300000I-150000J0D01*
G01*
X4875000Y-13300000D01*
G75*
G02*
X4725000Y-13150000I0J150000D01*
G01*
X4725000Y-12850000D01*
G75*
G02*
X4875000Y-12700000I150000J0D01*
G01*
G37*
%TD.AperFunction*%
%TO.P,J4,2*%
%TO.N,Net-(J1-Pad3)*%
%TA.AperFunction,SMDPad,CuDef*%
G36*
G01*
X4875000Y-11700000D02*
X6125000Y-11700000D01*
G75*
G02*
X6275000Y-11850000I0J-150000D01*
G01*
X6275000Y-12150000D01*
G75*
G02*
X6125000Y-12300000I-150000J0D01*
G01*
X4875000Y-12300000D01*
G75*
G02*
X4725000Y-12150000I0J150000D01*
G01*
X4725000Y-11850000D01*
G75*
G02*
X4875000Y-11700000I150000J0D01*
G01*
G37*
%TD.AperFunction*%
%TO.P,J4,1*%
%TO.N,Net-(J1-Pad5)*%
%TA.AperFunction,SMDPad,CuDef*%
G36*
G01*
X4875000Y-10700000D02*
X6125000Y-10700000D01*
G75*
G02*
X6275000Y-10850000I0J-150000D01*
G01*
X6275000Y-11150000D01*
G75*
G02*
X6125000Y-11300000I-150000J0D01*
G01*
X4875000Y-11300000D01*
G75*
G02*
X4725000Y-11150000I0J150000D01*
G01*
X4725000Y-10850000D01*
G75*
G02*
X4875000Y-10700000I150000J0D01*
G01*
G37*
%TD.AperFunction*%
%TD*%
%TO.P,R7,2*%
%TO.N,Net-(D3-Pad2)*%
%TA.AperFunction,SMDPad,CuDef*%
G36*
G01*
X18625000Y-51100000D02*
X17375000Y-51100000D01*
G75*
G02*
X17125000Y-50850000I0J250000D01*
G01*
X17125000Y-50050000D01*
G75*
G02*
X17375000Y-49800000I250000J0D01*
G01*
X18625000Y-49800000D01*
G75*
G02*
X18875000Y-50050000I0J-250000D01*
G01*
X18875000Y-50850000D01*
G75*
G02*
X18625000Y-51100000I-250000J0D01*
G01*
G37*
%TD.AperFunction*%
%TO.P,R7,1*%
%TO.N,VCC*%
%TA.AperFunction,SMDPad,CuDef*%
G36*
G01*
X18625000Y-54200000D02*
X17375000Y-54200000D01*
G75*
G02*
X17125000Y-53950000I0J250000D01*
G01*
X17125000Y-53150000D01*
G75*
G02*
X17375000Y-52900000I250000J0D01*
G01*
X18625000Y-52900000D01*
G75*
G02*
X18875000Y-53150000I0J-250000D01*
G01*
X18875000Y-53950000D01*
G75*
G02*
X18625000Y-54200000I-250000J0D01*
G01*
G37*
%TD.AperFunction*%
%TD*%
%TO.P,R6,2*%
%TO.N,SIGIN_CLOSE*%
%TA.AperFunction,SMDPad,CuDef*%
G36*
G01*
X41100000Y-37375000D02*
X41100000Y-38625000D01*
G75*
G02*
X40850000Y-38875000I-250000J0D01*
G01*
X40050000Y-38875000D01*
G75*
G02*
X39800000Y-38625000I0J250000D01*
G01*
X39800000Y-37375000D01*
G75*
G02*
X40050000Y-37125000I250000J0D01*
G01*
X40850000Y-37125000D01*
G75*
G02*
X41100000Y-37375000I0J-250000D01*
G01*
G37*
%TD.AperFunction*%
%TO.P,R6,1*%
%TO.N,VDD*%
%TA.AperFunction,SMDPad,CuDef*%
G36*
G01*
X44200000Y-37375000D02*
X44200000Y-38625000D01*
G75*
G02*
X43950000Y-38875000I-250000J0D01*
G01*
X43150000Y-38875000D01*
G75*
G02*
X42900000Y-38625000I0J250000D01*
G01*
X42900000Y-37375000D01*
G75*
G02*
X43150000Y-37125000I250000J0D01*
G01*
X43950000Y-37125000D01*
G75*
G02*
X44200000Y-37375000I0J-250000D01*
G01*
G37*
%TD.AperFunction*%
%TD*%
%TO.P,R5,2*%
%TO.N,SIGIN_OPEN*%
%TA.AperFunction,SMDPad,CuDef*%
G36*
G01*
X16100000Y-37375000D02*
X16100000Y-38625000D01*
G75*
G02*
X15850000Y-38875000I-250000J0D01*
G01*
X15050000Y-38875000D01*
G75*
G02*
X14800000Y-38625000I0J250000D01*
G01*
X14800000Y-37375000D01*
G75*
G02*
X15050000Y-37125000I250000J0D01*
G01*
X15850000Y-37125000D01*
G75*
G02*
X16100000Y-37375000I0J-250000D01*
G01*
G37*
%TD.AperFunction*%
%TO.P,R5,1*%
%TO.N,VDD*%
%TA.AperFunction,SMDPad,CuDef*%
G36*
G01*
X19200000Y-37375000D02*
X19200000Y-38625000D01*
G75*
G02*
X18950000Y-38875000I-250000J0D01*
G01*
X18150000Y-38875000D01*
G75*
G02*
X17900000Y-38625000I0J250000D01*
G01*
X17900000Y-37375000D01*
G75*
G02*
X18150000Y-37125000I250000J0D01*
G01*
X18950000Y-37125000D01*
G75*
G02*
X19200000Y-37375000I0J-250000D01*
G01*
G37*
%TD.AperFunction*%
%TD*%
%TO.P,D5,2*%
%TO.N,Net-(D5-Pad2)*%
%TA.AperFunction,SMDPad,CuDef*%
G36*
G01*
X43712500Y-18375000D02*
X43712500Y-19625000D01*
G75*
G02*
X43462500Y-19875000I-250000J0D01*
G01*
X42537500Y-19875000D01*
G75*
G02*
X42287500Y-19625000I0J250000D01*
G01*
X42287500Y-18375000D01*
G75*
G02*
X42537500Y-18125000I250000J0D01*
G01*
X43462500Y-18125000D01*
G75*
G02*
X43712500Y-18375000I0J-250000D01*
G01*
G37*
%TD.AperFunction*%
%TO.P,D5,1*%
%TO.N,GND*%
%TA.AperFunction,SMDPad,CuDef*%
G36*
G01*
X46687500Y-18375000D02*
X46687500Y-19625000D01*
G75*
G02*
X46437500Y-19875000I-250000J0D01*
G01*
X45512500Y-19875000D01*
G75*
G02*
X45262500Y-19625000I0J250000D01*
G01*
X45262500Y-18375000D01*
G75*
G02*
X45512500Y-18125000I250000J0D01*
G01*
X46437500Y-18125000D01*
G75*
G02*
X46687500Y-18375000I0J-250000D01*
G01*
G37*
%TD.AperFunction*%
%TD*%
%TO.P,D4,2*%
%TO.N,Net-(D4-Pad2)*%
%TA.AperFunction,SMDPad,CuDef*%
G36*
G01*
X19212500Y-18375000D02*
X19212500Y-19625000D01*
G75*
G02*
X18962500Y-19875000I-250000J0D01*
G01*
X18037500Y-19875000D01*
G75*
G02*
X17787500Y-19625000I0J250000D01*
G01*
X17787500Y-18375000D01*
G75*
G02*
X18037500Y-18125000I250000J0D01*
G01*
X18962500Y-18125000D01*
G75*
G02*
X19212500Y-18375000I0J-250000D01*
G01*
G37*
%TD.AperFunction*%
%TO.P,D4,1*%
%TO.N,GND*%
%TA.AperFunction,SMDPad,CuDef*%
G36*
G01*
X22187500Y-18375000D02*
X22187500Y-19625000D01*
G75*
G02*
X21937500Y-19875000I-250000J0D01*
G01*
X21012500Y-19875000D01*
G75*
G02*
X20762500Y-19625000I0J250000D01*
G01*
X20762500Y-18375000D01*
G75*
G02*
X21012500Y-18125000I250000J0D01*
G01*
X21937500Y-18125000D01*
G75*
G02*
X22187500Y-18375000I0J-250000D01*
G01*
G37*
%TD.AperFunction*%
%TD*%
%TO.P,D3,2*%
%TO.N,Net-(D3-Pad2)*%
%TA.AperFunction,SMDPad,CuDef*%
G36*
G01*
X14625000Y-51237500D02*
X13375000Y-51237500D01*
G75*
G02*
X13125000Y-50987500I0J250000D01*
G01*
X13125000Y-50062500D01*
G75*
G02*
X13375000Y-49812500I250000J0D01*
G01*
X14625000Y-49812500D01*
G75*
G02*
X14875000Y-50062500I0J-250000D01*
G01*
X14875000Y-50987500D01*
G75*
G02*
X14625000Y-51237500I-250000J0D01*
G01*
G37*
%TD.AperFunction*%
%TO.P,D3,1*%
%TO.N,GND*%
%TA.AperFunction,SMDPad,CuDef*%
G36*
G01*
X14625000Y-54212500D02*
X13375000Y-54212500D01*
G75*
G02*
X13125000Y-53962500I0J250000D01*
G01*
X13125000Y-53037500D01*
G75*
G02*
X13375000Y-52787500I250000J0D01*
G01*
X14625000Y-52787500D01*
G75*
G02*
X14875000Y-53037500I0J-250000D01*
G01*
X14875000Y-53962500D01*
G75*
G02*
X14625000Y-54212500I-250000J0D01*
G01*
G37*
%TD.AperFunction*%
%TD*%
D14*
%TO.P,D2,2*%
%TO.N,Net-(D2-Pad2)*%
X47650000Y-25000000D03*
%TO.P,D2,1*%
%TO.N,VCC*%
X42250000Y-25000000D03*
%TD*%
%TO.P,D1,2*%
%TO.N,Net-(D1-Pad2)*%
X22750000Y-25000000D03*
%TO.P,D1,1*%
%TO.N,VCC*%
X17350000Y-25000000D03*
%TD*%
D15*
%TO.P,U2,4*%
%TO.N,SIGIN_CLOSE*%
X41380000Y-33500000D03*
%TO.P,U2,2*%
%TO.N,Net-(K2-Pad1)*%
X49000000Y-30960000D03*
%TO.P,U2,3*%
%TO.N,GND*%
X41380000Y-30960000D03*
D16*
%TO.P,U2,1*%
%TO.N,Net-(R4-Pad2)*%
X49000000Y-33500000D03*
%TD*%
D15*
%TO.P,U1,4*%
%TO.N,SIGIN_OPEN*%
X16380000Y-33540000D03*
%TO.P,U1,2*%
%TO.N,Net-(K1-Pad1)*%
X24000000Y-31000000D03*
%TO.P,U1,3*%
%TO.N,GND*%
X16380000Y-31000000D03*
D16*
%TO.P,U1,1*%
%TO.N,Net-(R2-Pad2)*%
X24000000Y-33540000D03*
%TD*%
%TO.P,R4,2*%
%TO.N,Net-(R4-Pad2)*%
%TA.AperFunction,SMDPad,CuDef*%
G36*
G01*
X48450000Y-38625000D02*
X48450000Y-37375000D01*
G75*
G02*
X48700000Y-37125000I250000J0D01*
G01*
X49500000Y-37125000D01*
G75*
G02*
X49750000Y-37375000I0J-250000D01*
G01*
X49750000Y-38625000D01*
G75*
G02*
X49500000Y-38875000I-250000J0D01*
G01*
X48700000Y-38875000D01*
G75*
G02*
X48450000Y-38625000I0J250000D01*
G01*
G37*
%TD.AperFunction*%
%TO.P,R4,1*%
%TO.N,VCC*%
%TA.AperFunction,SMDPad,CuDef*%
G36*
G01*
X45350000Y-38625000D02*
X45350000Y-37375000D01*
G75*
G02*
X45600000Y-37125000I250000J0D01*
G01*
X46400000Y-37125000D01*
G75*
G02*
X46650000Y-37375000I0J-250000D01*
G01*
X46650000Y-38625000D01*
G75*
G02*
X46400000Y-38875000I-250000J0D01*
G01*
X45600000Y-38875000D01*
G75*
G02*
X45350000Y-38625000I0J250000D01*
G01*
G37*
%TD.AperFunction*%
%TD*%
%TO.P,R3,2*%
%TO.N,Net-(Q3-Pad1)*%
%TA.AperFunction,SMDPad,CuDef*%
G36*
G01*
X62850000Y-22625000D02*
X62850000Y-21375000D01*
G75*
G02*
X63100000Y-21125000I250000J0D01*
G01*
X63900000Y-21125000D01*
G75*
G02*
X64150000Y-21375000I0J-250000D01*
G01*
X64150000Y-22625000D01*
G75*
G02*
X63900000Y-22875000I-250000J0D01*
G01*
X63100000Y-22875000D01*
G75*
G02*
X62850000Y-22625000I0J250000D01*
G01*
G37*
%TD.AperFunction*%
%TO.P,R3,1*%
%TO.N,SIG_CLOSE*%
%TA.AperFunction,SMDPad,CuDef*%
G36*
G01*
X59750000Y-22625000D02*
X59750000Y-21375000D01*
G75*
G02*
X60000000Y-21125000I250000J0D01*
G01*
X60800000Y-21125000D01*
G75*
G02*
X61050000Y-21375000I0J-250000D01*
G01*
X61050000Y-22625000D01*
G75*
G02*
X60800000Y-22875000I-250000J0D01*
G01*
X60000000Y-22875000D01*
G75*
G02*
X59750000Y-22625000I0J250000D01*
G01*
G37*
%TD.AperFunction*%
%TD*%
%TO.P,R2,2*%
%TO.N,Net-(R2-Pad2)*%
%TA.AperFunction,SMDPad,CuDef*%
G36*
G01*
X23450000Y-38625000D02*
X23450000Y-37375000D01*
G75*
G02*
X23700000Y-37125000I250000J0D01*
G01*
X24500000Y-37125000D01*
G75*
G02*
X24750000Y-37375000I0J-250000D01*
G01*
X24750000Y-38625000D01*
G75*
G02*
X24500000Y-38875000I-250000J0D01*
G01*
X23700000Y-38875000D01*
G75*
G02*
X23450000Y-38625000I0J250000D01*
G01*
G37*
%TD.AperFunction*%
%TO.P,R2,1*%
%TO.N,VCC*%
%TA.AperFunction,SMDPad,CuDef*%
G36*
G01*
X20350000Y-38625000D02*
X20350000Y-37375000D01*
G75*
G02*
X20600000Y-37125000I250000J0D01*
G01*
X21400000Y-37125000D01*
G75*
G02*
X21650000Y-37375000I0J-250000D01*
G01*
X21650000Y-38625000D01*
G75*
G02*
X21400000Y-38875000I-250000J0D01*
G01*
X20600000Y-38875000D01*
G75*
G02*
X20350000Y-38625000I0J250000D01*
G01*
G37*
%TD.AperFunction*%
%TD*%
%TO.P,R1,2*%
%TO.N,Net-(Q2-Pad1)*%
%TA.AperFunction,SMDPad,CuDef*%
G36*
G01*
X37900000Y-22575000D02*
X37900000Y-21325000D01*
G75*
G02*
X38150000Y-21075000I250000J0D01*
G01*
X38950000Y-21075000D01*
G75*
G02*
X39200000Y-21325000I0J-250000D01*
G01*
X39200000Y-22575000D01*
G75*
G02*
X38950000Y-22825000I-250000J0D01*
G01*
X38150000Y-22825000D01*
G75*
G02*
X37900000Y-22575000I0J250000D01*
G01*
G37*
%TD.AperFunction*%
%TO.P,R1,1*%
%TO.N,SIG_OPEN*%
%TA.AperFunction,SMDPad,CuDef*%
G36*
G01*
X34800000Y-22575000D02*
X34800000Y-21325000D01*
G75*
G02*
X35050000Y-21075000I250000J0D01*
G01*
X35850000Y-21075000D01*
G75*
G02*
X36100000Y-21325000I0J-250000D01*
G01*
X36100000Y-22575000D01*
G75*
G02*
X35850000Y-22825000I-250000J0D01*
G01*
X35050000Y-22825000D01*
G75*
G02*
X34800000Y-22575000I0J250000D01*
G01*
G37*
%TD.AperFunction*%
%TD*%
D17*
%TO.P,Q3,3*%
%TO.N,Net-(D2-Pad2)*%
X62000000Y-27000000D03*
%TO.P,Q3,2*%
%TO.N,GND*%
X61050000Y-25000000D03*
%TO.P,Q3,1*%
%TO.N,Net-(Q3-Pad1)*%
X62950000Y-25000000D03*
%TD*%
%TO.P,Q2,3*%
%TO.N,Net-(D1-Pad2)*%
X37000000Y-27000000D03*
%TO.P,Q2,2*%
%TO.N,GND*%
X36050000Y-25000000D03*
%TO.P,Q2,1*%
%TO.N,Net-(Q2-Pad1)*%
X37950000Y-25000000D03*
%TD*%
D18*
%TO.P,Q1,2*%
%TO.N,Net-(J2-Pad1)*%
X7000000Y-21875000D03*
D19*
%TO.P,Q1,3*%
%TO.N,VCC*%
X9540000Y-31025000D03*
%TO.P,Q1,1*%
%TO.N,GND*%
X4460000Y-31025000D03*
%TD*%
D20*
%TO.P,K2,5*%
%TO.N,BTN_CLOSE*%
X52920000Y-35000000D03*
%TO.P,K2,6*%
X58000000Y-35000000D03*
%TO.P,K2,2*%
%TO.N,VCC*%
X52920000Y-27380000D03*
D21*
%TO.P,K2,1*%
%TO.N,Net-(K2-Pad1)*%
X52920000Y-24840000D03*
D20*
%TO.P,K2,9*%
%TO.N,Net-(D2-Pad2)*%
X58000000Y-27380000D03*
%TO.P,K2,10*%
%TO.N,GND*%
X58000000Y-24840000D03*
%TD*%
%TO.P,K1,5*%
%TO.N,BTN_OPEN*%
X27920000Y-35000000D03*
%TO.P,K1,6*%
X33000000Y-35000000D03*
%TO.P,K1,2*%
%TO.N,VCC*%
X27920000Y-27380000D03*
D21*
%TO.P,K1,1*%
%TO.N,Net-(K1-Pad1)*%
X27920000Y-24840000D03*
D20*
%TO.P,K1,9*%
%TO.N,Net-(D1-Pad2)*%
X33000000Y-27380000D03*
%TO.P,K1,10*%
%TO.N,GND*%
X33000000Y-24840000D03*
%TD*%
%TO.P,J2,3*%
%TO.N,GND*%
%TA.AperFunction,ComponentPad*%
G36*
G01*
X5000000Y-44825000D02*
X5000000Y-43075000D01*
G75*
G02*
X5875000Y-42200000I875000J0D01*
G01*
X7625000Y-42200000D01*
G75*
G02*
X8500000Y-43075000I0J-875000D01*
G01*
X8500000Y-44825000D01*
G75*
G02*
X7625000Y-45700000I-875000J0D01*
G01*
X5875000Y-45700000D01*
G75*
G02*
X5000000Y-44825000I0J875000D01*
G01*
G37*
%TD.AperFunction*%
%TO.P,J2,2*%
%TA.AperFunction,ComponentPad*%
G36*
G01*
X2250000Y-40250000D02*
X2250000Y-38250000D01*
G75*
G02*
X3000000Y-37500000I750000J0D01*
G01*
X4500000Y-37500000D01*
G75*
G02*
X5250000Y-38250000I0J-750000D01*
G01*
X5250000Y-40250000D01*
G75*
G02*
X4500000Y-41000000I-750000J0D01*
G01*
X3000000Y-41000000D01*
G75*
G02*
X2250000Y-40250000I0J750000D01*
G01*
G37*
%TD.AperFunction*%
D22*
%TO.P,J2,1*%
%TO.N,Net-(J2-Pad1)*%
X9750000Y-39250000D03*
%TD*%
D10*
%TO.P,J1,40*%
%TO.N,Net-(J1-Pad40)*%
X56630000Y-2230000D03*
%TO.P,J1,39*%
%TO.N,GND*%
X56630000Y-4770000D03*
%TO.P,J1,38*%
%TO.N,Net-(J1-Pad38)*%
X54090000Y-2230000D03*
%TO.P,J1,37*%
%TO.N,SIGIN_CLOSE*%
X54090000Y-4770000D03*
%TO.P,J1,36*%
%TO.N,Net-(J1-Pad36)*%
X51550000Y-2230000D03*
%TO.P,J1,35*%
%TO.N,Net-(J1-Pad35)*%
X51550000Y-4770000D03*
%TO.P,J1,34*%
%TO.N,GND*%
X49010000Y-2230000D03*
%TO.P,J1,33*%
%TO.N,Net-(J1-Pad33)*%
X49010000Y-4770000D03*
%TO.P,J1,32*%
%TO.N,Net-(J1-Pad32)*%
X46470000Y-2230000D03*
%TO.P,J1,31*%
%TO.N,Net-(J1-Pad31)*%
X46470000Y-4770000D03*
%TO.P,J1,30*%
%TO.N,GND*%
X43930000Y-2230000D03*
%TO.P,J1,29*%
%TO.N,Net-(J1-Pad29)*%
X43930000Y-4770000D03*
%TO.P,J1,28*%
%TO.N,Net-(J1-Pad28)*%
X41390000Y-2230000D03*
%TO.P,J1,27*%
%TO.N,Net-(J1-Pad27)*%
X41390000Y-4770000D03*
%TO.P,J1,26*%
%TO.N,GPIO_motion_sensor*%
X38850000Y-2230000D03*
%TO.P,J1,25*%
%TO.N,GND*%
X38850000Y-4770000D03*
%TO.P,J1,24*%
%TO.N,REED_IN*%
X36310000Y-2230000D03*
%TO.P,J1,23*%
%TO.N,Net-(J1-Pad23)*%
X36310000Y-4770000D03*
%TO.P,J1,22*%
%TO.N,SIGIN_OPEN*%
X33770000Y-2230000D03*
%TO.P,J1,21*%
%TO.N,Net-(J1-Pad21)*%
X33770000Y-4770000D03*
%TO.P,J1,20*%
%TO.N,GND*%
X31230000Y-2230000D03*
%TO.P,J1,19*%
%TO.N,Net-(J1-Pad19)*%
X31230000Y-4770000D03*
%TO.P,J1,18*%
%TO.N,SIG_CLOSE*%
X28690000Y-2230000D03*
%TO.P,J1,17*%
%TO.N,VDD*%
X28690000Y-4770000D03*
%TO.P,J1,16*%
%TO.N,SIG_OPEN*%
X26150000Y-2230000D03*
%TO.P,J1,15*%
%TO.N,Net-(J1-Pad15)*%
X26150000Y-4770000D03*
%TO.P,J1,14*%
%TO.N,GND*%
X23610000Y-2230000D03*
%TO.P,J1,13*%
%TO.N,Net-(J1-Pad13)*%
X23610000Y-4770000D03*
%TO.P,J1,12*%
%TO.N,Net-(J1-Pad12)*%
X21070000Y-2230000D03*
%TO.P,J1,11*%
%TO.N,Net-(J1-Pad11)*%
X21070000Y-4770000D03*
%TO.P,J1,10*%
%TO.N,Net-(J1-Pad10)*%
X18530000Y-2230000D03*
%TO.P,J1,9*%
%TO.N,GND*%
X18530000Y-4770000D03*
%TO.P,J1,8*%
%TO.N,Net-(J1-Pad8)*%
X15990000Y-2230000D03*
%TO.P,J1,7*%
%TO.N,Net-(J1-Pad7)*%
X15990000Y-4770000D03*
%TO.P,J1,6*%
%TO.N,GND*%
X13450000Y-2230000D03*
%TO.P,J1,5*%
%TO.N,Net-(J1-Pad5)*%
X13450000Y-4770000D03*
%TO.P,J1,4*%
%TO.N,VCC*%
X10910000Y-2230000D03*
%TO.P,J1,3*%
%TO.N,Net-(J1-Pad3)*%
X10910000Y-4770000D03*
%TO.P,J1,2*%
%TO.N,VCC*%
X8370000Y-2230000D03*
D11*
%TO.P,J1,1*%
%TO.N,Net-(J1-Pad1)*%
X8370000Y-4770000D03*
%TD*%
D23*
%TO.N,Net-(J1-Pad32)*%
X28750000Y-16000000D03*
X23750000Y-16000000D03*
%TO.N,VDD*%
X18500000Y-40000000D03*
X36250000Y-40000000D03*
X36250000Y-12750000D03*
%TO.N,VCC*%
X11743010Y-6750000D03*
X11750000Y-7750000D03*
X11750000Y-8750000D03*
%TO.N,SIGIN_CLOSE*%
X54000000Y-15000000D03*
%TD*%
D24*
%TO.N,Net-(J1-Pad33)*%
X46050000Y-15750000D02*
X46050000Y-13450000D01*
X46050000Y-13450000D02*
X49000000Y-10500000D01*
X49000000Y-10500000D02*
X49000000Y-4750000D01*
%TO.N,Net-(J1-Pad32)*%
X45294999Y-3405001D02*
X45294999Y-8955001D01*
X46470000Y-2230000D02*
X45294999Y-3405001D01*
X45294999Y-8955001D02*
X38250000Y-16000000D01*
X38250000Y-16000000D02*
X29000000Y-16000000D01*
X29000000Y-16000000D02*
X28750000Y-16000000D01*
X23750000Y-16000000D02*
X21500000Y-16000000D01*
%TO.N,Net-(J1-Pad5)*%
X5500000Y-11000000D02*
X8050000Y-11000000D01*
X8050000Y-11000000D02*
X9652000Y-9398000D01*
X9652000Y-9398000D02*
X9652000Y-4191000D01*
X10248001Y-3594999D02*
X12357999Y-3594999D01*
X9652000Y-4191000D02*
X10248001Y-3594999D01*
X12357999Y-3594999D02*
X13462000Y-4699000D01*
%TO.N,Net-(J1-Pad3)*%
X5500000Y-12000000D02*
X8955000Y-12000000D01*
X10910000Y-10045000D02*
X8955000Y-12000000D01*
X10910000Y-4770000D02*
X10910000Y-10045000D01*
%TO.N,GND*%
X22434999Y-3405001D02*
X19844999Y-3405001D01*
X23610000Y-2230000D02*
X22434999Y-3405001D01*
X19844999Y-3405001D02*
X18500000Y-4750000D01*
D25*
%TO.N,Net-(J2-Pad1)*%
X9750000Y-39250000D02*
X9750000Y-36750000D01*
X9750000Y-36750000D02*
X7000000Y-34000000D01*
X7000000Y-34000000D02*
X7000000Y-22000000D01*
D26*
%TO.N,Net-(D1-Pad2)*%
X37000000Y-27000000D02*
X33500000Y-27000000D01*
X33500000Y-27000000D02*
X33000000Y-27500000D01*
D24*
X22750000Y-25000000D02*
X22750000Y-23500000D01*
X22750000Y-23500000D02*
X23250000Y-23000000D01*
X23250000Y-23000000D02*
X30000000Y-23000000D01*
X30000000Y-23000000D02*
X30750000Y-23750000D01*
X30750000Y-23750000D02*
X30750000Y-26750000D01*
X30750000Y-26750000D02*
X31500000Y-27500000D01*
X31500000Y-27500000D02*
X33000000Y-27500000D01*
D26*
%TO.N,Net-(D2-Pad2)*%
X62000000Y-27000000D02*
X58250000Y-27000000D01*
X58250000Y-27000000D02*
X58000000Y-27250000D01*
D24*
X47650000Y-25000000D02*
X47650000Y-23600000D01*
X47650000Y-23600000D02*
X48250000Y-23000000D01*
X48250000Y-23000000D02*
X55000000Y-23000000D01*
X55000000Y-23000000D02*
X55750000Y-23750000D01*
X55750000Y-23750000D02*
X55750000Y-26750000D01*
X55750000Y-26750000D02*
X56250000Y-27250000D01*
X56250000Y-27250000D02*
X58000000Y-27250000D01*
%TO.N,VDD*%
X18550000Y-39950000D02*
X18500000Y-40000000D01*
X18550000Y-38000000D02*
X18550000Y-39950000D01*
X36250000Y-40000000D02*
X43000000Y-40000000D01*
X43000000Y-40000000D02*
X43500000Y-39500000D01*
X43500000Y-39500000D02*
X43500000Y-38000000D01*
X36250000Y-12750000D02*
X31000000Y-12750000D01*
X31000000Y-12750000D02*
X28750000Y-10500000D01*
X28750000Y-10500000D02*
X28750000Y-4750000D01*
D25*
%TO.N,VCC*%
X32000000Y-53500000D02*
X32000000Y-45000000D01*
X25908010Y-38908010D02*
X25908010Y-29091990D01*
X32000000Y-45000000D02*
X25908010Y-38908010D01*
X25908010Y-29091990D02*
X27750000Y-27250000D01*
X52920000Y-27380000D02*
X51211999Y-29088001D01*
X29838001Y-29088001D02*
X28000000Y-27250000D01*
X23841990Y-29091990D02*
X25908010Y-29091990D01*
X51211999Y-29088001D02*
X47588001Y-29088001D01*
X11743010Y-6750000D02*
X11743010Y-6750000D01*
X11750000Y-8750000D02*
X11743010Y-6750000D01*
X14500000Y-11250000D02*
X11750000Y-8750000D01*
D24*
X18000000Y-53550000D02*
X21800000Y-53550000D01*
X23575001Y-55325001D02*
X30174999Y-55325001D01*
X21800000Y-53550000D02*
X23575001Y-55325001D01*
X30174999Y-55325001D02*
X32000000Y-53500000D01*
X46000000Y-38000000D02*
X46000000Y-29250000D01*
X46000000Y-29250000D02*
X46161999Y-29088001D01*
D25*
X47588001Y-29088001D02*
X46161999Y-29088001D01*
D24*
X21000000Y-38000000D02*
X21000000Y-30750000D01*
D25*
X23250000Y-28500000D02*
X23841990Y-29091990D01*
D24*
X21000000Y-30750000D02*
X23250000Y-28500000D01*
D25*
X22700000Y-27950000D02*
X23250000Y-28500000D01*
X15700000Y-27950000D02*
X14500000Y-26750000D01*
X22700000Y-27950000D02*
X15700000Y-27950000D01*
X14750000Y-25000000D02*
X14500000Y-24750000D01*
X17350000Y-25000000D02*
X14750000Y-25000000D01*
X14500000Y-24750000D02*
X14500000Y-11250000D01*
X14500000Y-26750000D02*
X14500000Y-24750000D01*
X42250000Y-29000000D02*
X42338001Y-29088001D01*
X42338001Y-29088001D02*
X29838001Y-29088001D01*
X42250000Y-25000000D02*
X42250000Y-29000000D01*
X46161999Y-29088001D02*
X42338001Y-29088001D01*
X12625000Y-31025000D02*
X15700000Y-27950000D01*
X9540000Y-31025000D02*
X12625000Y-31025000D01*
D26*
%TO.N,Net-(Q2-Pad1)*%
X37950000Y-25000000D02*
X37950000Y-24050000D01*
X37950000Y-24050000D02*
X38500000Y-23500000D01*
X38500000Y-23500000D02*
X38500000Y-22000000D01*
%TO.N,Net-(Q3-Pad1)*%
X62950000Y-25000000D02*
X62950000Y-24050000D01*
X62950000Y-24050000D02*
X63500000Y-23500000D01*
X63500000Y-23500000D02*
X63500000Y-22000000D01*
D24*
%TO.N,Net-(R2-Pad2)*%
X24100000Y-38000000D02*
X24100000Y-33600000D01*
X24100000Y-33600000D02*
X24000000Y-33500000D01*
%TO.N,Net-(R4-Pad2)*%
X49100000Y-38000000D02*
X49100000Y-33600000D01*
X49100000Y-33600000D02*
X49000000Y-33500000D01*
%TO.N,SIG_CLOSE*%
X27514999Y-3405001D02*
X27514999Y-18514999D01*
X28690000Y-2230000D02*
X27514999Y-3405001D01*
X27514999Y-18514999D02*
X29500000Y-20500000D01*
X29500000Y-20500000D02*
X56500000Y-20500000D01*
X56500000Y-20500000D02*
X58000000Y-22000000D01*
X58000000Y-22000000D02*
X60500000Y-22000000D01*
%TO.N,SIG_OPEN*%
X35450000Y-21950000D02*
X28700000Y-21950000D01*
X24974999Y-18224999D02*
X24974999Y-3525001D01*
X28700000Y-21950000D02*
X24974999Y-18224999D01*
X24974999Y-3525001D02*
X26250000Y-2250000D01*
D26*
%TO.N,BTN_OPEN*%
X27920000Y-35000000D02*
X33000000Y-35000000D01*
X33000000Y-35000000D02*
X33000000Y-43000000D01*
X33000000Y-43000000D02*
X37000000Y-47000000D01*
X37000000Y-47000000D02*
X37000000Y-53500000D01*
%TO.N,BTN_CLOSE*%
X52920000Y-35000000D02*
X52920000Y-40080000D01*
X52920000Y-40080000D02*
X51000000Y-42000000D01*
X51000000Y-42000000D02*
X44250000Y-42000000D01*
X44250000Y-42000000D02*
X42250000Y-44000000D01*
X42250000Y-44000000D02*
X42250000Y-53500000D01*
X52920000Y-35000000D02*
X58000000Y-35000000D01*
D24*
%TO.N,Net-(D3-Pad2)*%
X14000000Y-50525000D02*
X17975000Y-50525000D01*
X17975000Y-50525000D02*
X18000000Y-50500000D01*
%TO.N,Net-(D4-Pad2)*%
X18500000Y-19000000D02*
X18500000Y-16000000D01*
%TO.N,Net-(D5-Pad2)*%
X43000000Y-19000000D02*
X43000000Y-15750000D01*
%TO.N,SIGIN_OPEN*%
X15450000Y-38000000D02*
X15450000Y-34550000D01*
X15450000Y-34550000D02*
X16500000Y-33500000D01*
%TO.N,SIGIN_CLOSE*%
X40450000Y-38000000D02*
X40450000Y-34550000D01*
X40450000Y-34550000D02*
X41500000Y-33500000D01*
X54000000Y-15000000D02*
X54000000Y-4750000D01*
%TO.N,Net-(J1-Pad1)*%
X8370000Y-4770000D02*
X8370000Y-8902000D01*
X8370000Y-8902000D02*
X7366000Y-9906000D01*
X7366000Y-9906000D02*
X4191000Y-9906000D01*
X4191000Y-9906000D02*
X3302000Y-10795000D01*
X3302000Y-10795000D02*
X3302000Y-12319000D01*
X3302000Y-12319000D02*
X3937000Y-12954000D01*
X3937000Y-12954000D02*
X5588000Y-12954000D01*
%TD*%
D27*
%TO.N,GND*%
X54990000Y-24064802D02*
X54990001Y-26712668D01*
X54986324Y-26750000D01*
X54990001Y-26787333D01*
X55000998Y-26898986D01*
X55003777Y-26908148D01*
X55044454Y-27042246D01*
X55115026Y-27174276D01*
X55177172Y-27250000D01*
X55210000Y-27290001D01*
X55238998Y-27313799D01*
X55686196Y-27760997D01*
X55709999Y-27790001D01*
X55825724Y-27884974D01*
X55957753Y-27955546D01*
X56101014Y-27999003D01*
X56212667Y-28010000D01*
X56212675Y-28010000D01*
X56250000Y-28013676D01*
X56287325Y-28010000D01*
X56491243Y-28010000D01*
X56551082Y-28154463D01*
X56730013Y-28422252D01*
X56957748Y-28649987D01*
X57225537Y-28828918D01*
X57523088Y-28952168D01*
X57838967Y-29015000D01*
X58161033Y-29015000D01*
X58476912Y-28952168D01*
X58774463Y-28828918D01*
X59042252Y-28649987D01*
X59269987Y-28422252D01*
X59448918Y-28154463D01*
X59558877Y-27889000D01*
X61138815Y-27889000D01*
X61148815Y-27901185D01*
X61245506Y-27980537D01*
X61355820Y-28039502D01*
X61475518Y-28075812D01*
X61600000Y-28088072D01*
X62400000Y-28088072D01*
X62524482Y-28075812D01*
X62644180Y-28039502D01*
X62754494Y-27980537D01*
X62851185Y-27901185D01*
X62930537Y-27804494D01*
X62989502Y-27694180D01*
X63025812Y-27574482D01*
X63038072Y-27450000D01*
X63038072Y-26550000D01*
X63025812Y-26425518D01*
X62989502Y-26305820D01*
X62930537Y-26195506D01*
X62851185Y-26098815D01*
X62838095Y-26088072D01*
X63350000Y-26088072D01*
X63474482Y-26075812D01*
X63594180Y-26039502D01*
X63704494Y-25980537D01*
X63801185Y-25901185D01*
X63880537Y-25804494D01*
X63939502Y-25694180D01*
X63975812Y-25574482D01*
X63988072Y-25450000D01*
X63988072Y-24550000D01*
X63975812Y-24425518D01*
X63942275Y-24314960D01*
X64097737Y-24159498D01*
X64131659Y-24131659D01*
X64242753Y-23996291D01*
X64290000Y-23907897D01*
X64290001Y-50777087D01*
X64045412Y-50411034D01*
X63588966Y-49954588D01*
X63052242Y-49595960D01*
X62455866Y-49348933D01*
X61822756Y-49223000D01*
X61177244Y-49223000D01*
X60544134Y-49348933D01*
X59947758Y-49595960D01*
X59411034Y-49954588D01*
X58954588Y-50411034D01*
X58595960Y-50947758D01*
X58348933Y-51544134D01*
X58223000Y-52177244D01*
X58223000Y-52822756D01*
X58348933Y-53455866D01*
X58595960Y-54052242D01*
X58954588Y-54588966D01*
X59411034Y-55045412D01*
X59777085Y-55290000D01*
X53484548Y-55290000D01*
X53632048Y-54991653D01*
X52320000Y-53679605D01*
X51007952Y-54991653D01*
X51155452Y-55290000D01*
X48403974Y-55290000D01*
X48600983Y-55158363D01*
X48898363Y-54860983D01*
X49132012Y-54511302D01*
X49292953Y-54122756D01*
X49375000Y-53710279D01*
X49375000Y-53542824D01*
X50175098Y-53542824D01*
X50224666Y-53960451D01*
X50354757Y-54360383D01*
X50512786Y-54656038D01*
X50828347Y-54812048D01*
X52140395Y-53500000D01*
X52499605Y-53500000D01*
X53811653Y-54812048D01*
X54127214Y-54656038D01*
X54318020Y-54281255D01*
X54432044Y-53876449D01*
X54464902Y-53457176D01*
X54415334Y-53039549D01*
X54285243Y-52639617D01*
X54127214Y-52343962D01*
X53811653Y-52187952D01*
X52499605Y-53500000D01*
X52140395Y-53500000D01*
X50828347Y-52187952D01*
X50512786Y-52343962D01*
X50321980Y-52718745D01*
X50207956Y-53123551D01*
X50175098Y-53542824D01*
X49375000Y-53542824D01*
X49375000Y-53289721D01*
X49292953Y-52877244D01*
X49132012Y-52488698D01*
X48898363Y-52139017D01*
X48767693Y-52008347D01*
X51007952Y-52008347D01*
X52320000Y-53320395D01*
X53632048Y-52008347D01*
X53476038Y-51692786D01*
X53101255Y-51501980D01*
X52696449Y-51387956D01*
X52277176Y-51355098D01*
X51859549Y-51404666D01*
X51459617Y-51534757D01*
X51163962Y-51692786D01*
X51007952Y-52008347D01*
X48767693Y-52008347D01*
X48600983Y-51841637D01*
X48251302Y-51607988D01*
X47862756Y-51447047D01*
X47450279Y-51365000D01*
X47029721Y-51365000D01*
X46617244Y-51447047D01*
X46228698Y-51607988D01*
X45879017Y-51841637D01*
X45581637Y-52139017D01*
X45347988Y-52488698D01*
X45187047Y-52877244D01*
X45105000Y-53289721D01*
X45105000Y-53710279D01*
X45187047Y-54122756D01*
X45347988Y-54511302D01*
X45581637Y-54860983D01*
X45879017Y-55158363D01*
X46076026Y-55290000D01*
X43323974Y-55290000D01*
X43520983Y-55158363D01*
X43818363Y-54860983D01*
X44052012Y-54511302D01*
X44212953Y-54122756D01*
X44295000Y-53710279D01*
X44295000Y-53289721D01*
X44212953Y-52877244D01*
X44052012Y-52488698D01*
X43818363Y-52139017D01*
X43520983Y-51841637D01*
X43171302Y-51607988D01*
X43139000Y-51594608D01*
X43139000Y-44368235D01*
X44618236Y-42889000D01*
X50956340Y-42889000D01*
X51000000Y-42893300D01*
X51043660Y-42889000D01*
X51043667Y-42889000D01*
X51174274Y-42876136D01*
X51341851Y-42825303D01*
X51496291Y-42742753D01*
X51631659Y-42631659D01*
X51659499Y-42597736D01*
X53517742Y-40739494D01*
X53551659Y-40711659D01*
X53662753Y-40576291D01*
X53745303Y-40421851D01*
X53796136Y-40254274D01*
X53809000Y-40123667D01*
X53809000Y-40123661D01*
X53813300Y-40080001D01*
X53809000Y-40036341D01*
X53809000Y-36372387D01*
X53962252Y-36269987D01*
X54189987Y-36042252D01*
X54292387Y-35889000D01*
X56627613Y-35889000D01*
X56730013Y-36042252D01*
X56957748Y-36269987D01*
X57225537Y-36448918D01*
X57523088Y-36572168D01*
X57838967Y-36635000D01*
X58161033Y-36635000D01*
X58476912Y-36572168D01*
X58774463Y-36448918D01*
X59042252Y-36269987D01*
X59269987Y-36042252D01*
X59448918Y-35774463D01*
X59572168Y-35476912D01*
X59635000Y-35161033D01*
X59635000Y-34838967D01*
X59572168Y-34523088D01*
X59448918Y-34225537D01*
X59269987Y-33957748D01*
X59042252Y-33730013D01*
X58774463Y-33551082D01*
X58476912Y-33427832D01*
X58161033Y-33365000D01*
X57838967Y-33365000D01*
X57523088Y-33427832D01*
X57225537Y-33551082D01*
X56957748Y-33730013D01*
X56730013Y-33957748D01*
X56627613Y-34111000D01*
X54292387Y-34111000D01*
X54189987Y-33957748D01*
X53962252Y-33730013D01*
X53694463Y-33551082D01*
X53396912Y-33427832D01*
X53081033Y-33365000D01*
X52758967Y-33365000D01*
X52443088Y-33427832D01*
X52145537Y-33551082D01*
X51877748Y-33730013D01*
X51650013Y-33957748D01*
X51471082Y-34225537D01*
X51347832Y-34523088D01*
X51285000Y-34838967D01*
X51285000Y-35161033D01*
X51347832Y-35476912D01*
X51471082Y-35774463D01*
X51650013Y-36042252D01*
X51877748Y-36269987D01*
X52031000Y-36372387D01*
X52031001Y-39711763D01*
X50631765Y-41111000D01*
X44293659Y-41111000D01*
X44249999Y-41106700D01*
X44206339Y-41111000D01*
X44206333Y-41111000D01*
X44108924Y-41120594D01*
X44075724Y-41123864D01*
X43974058Y-41154704D01*
X43908149Y-41174697D01*
X43753709Y-41257247D01*
X43618341Y-41368341D01*
X43590506Y-41402258D01*
X41652264Y-43340501D01*
X41618341Y-43368341D01*
X41590505Y-43402260D01*
X41507248Y-43503709D01*
X41424698Y-43658148D01*
X41373993Y-43825303D01*
X41373864Y-43825727D01*
X41361000Y-43956334D01*
X41361000Y-43956340D01*
X41356700Y-44000000D01*
X41361000Y-44043660D01*
X41361001Y-51520049D01*
X41148698Y-51607988D01*
X40799017Y-51841637D01*
X40501637Y-52139017D01*
X40267988Y-52488698D01*
X40107047Y-52877244D01*
X40025000Y-53289721D01*
X40025000Y-53710279D01*
X40107047Y-54122756D01*
X40267988Y-54511302D01*
X40501637Y-54860983D01*
X40799017Y-55158363D01*
X40996026Y-55290000D01*
X38243974Y-55290000D01*
X38440983Y-55158363D01*
X38738363Y-54860983D01*
X38972012Y-54511302D01*
X39132953Y-54122756D01*
X39215000Y-53710279D01*
X39215000Y-53289721D01*
X39132953Y-52877244D01*
X38972012Y-52488698D01*
X38738363Y-52139017D01*
X38440983Y-51841637D01*
X38091302Y-51607988D01*
X37889000Y-51524192D01*
X37889000Y-47043659D01*
X37893300Y-46999999D01*
X37889000Y-46956334D01*
X37889000Y-46956333D01*
X37876136Y-46825726D01*
X37876136Y-46825724D01*
X37825302Y-46658147D01*
X37821589Y-46651200D01*
X37742753Y-46503709D01*
X37631659Y-46368341D01*
X37597737Y-46340502D01*
X33889000Y-42631765D01*
X33889000Y-36372387D01*
X34042252Y-36269987D01*
X34269987Y-36042252D01*
X34448918Y-35774463D01*
X34572168Y-35476912D01*
X34635000Y-35161033D01*
X34635000Y-34838967D01*
X34572168Y-34523088D01*
X34448918Y-34225537D01*
X34269987Y-33957748D01*
X34042252Y-33730013D01*
X33774463Y-33551082D01*
X33476912Y-33427832D01*
X33161033Y-33365000D01*
X32838967Y-33365000D01*
X32523088Y-33427832D01*
X32225537Y-33551082D01*
X31957748Y-33730013D01*
X31730013Y-33957748D01*
X31627613Y-34111000D01*
X29292387Y-34111000D01*
X29189987Y-33957748D01*
X28962252Y-33730013D01*
X28694463Y-33551082D01*
X28396912Y-33427832D01*
X28081033Y-33365000D01*
X27758967Y-33365000D01*
X27443088Y-33427832D01*
X27145537Y-33551082D01*
X27051010Y-33614243D01*
X27051010Y-29565435D01*
X27627580Y-28988866D01*
X27758967Y-29015000D01*
X28081033Y-29015000D01*
X28137352Y-29003797D01*
X28990078Y-29856524D01*
X29025868Y-29900134D01*
X29199912Y-30042969D01*
X29398478Y-30149104D01*
X29548575Y-30194636D01*
X29613933Y-30214462D01*
X29634518Y-30216489D01*
X29781855Y-30231001D01*
X29781862Y-30231001D01*
X29838001Y-30236530D01*
X29894140Y-30231001D01*
X40144983Y-30231001D01*
X40028754Y-30476913D01*
X39988096Y-30610961D01*
X40110085Y-30833000D01*
X41253000Y-30833000D01*
X41253000Y-30813000D01*
X41507000Y-30813000D01*
X41507000Y-30833000D01*
X42649915Y-30833000D01*
X42771904Y-30610961D01*
X42731246Y-30476913D01*
X42615017Y-30231001D01*
X45240001Y-30231001D01*
X45240000Y-36565298D01*
X45106614Y-36636595D01*
X44972038Y-36747038D01*
X44861595Y-36881614D01*
X44779528Y-37035150D01*
X44775000Y-37050077D01*
X44770472Y-37035150D01*
X44688405Y-36881614D01*
X44577962Y-36747038D01*
X44443386Y-36636595D01*
X44289850Y-36554528D01*
X44123254Y-36503992D01*
X43950000Y-36486928D01*
X43150000Y-36486928D01*
X42976746Y-36503992D01*
X42810150Y-36554528D01*
X42656614Y-36636595D01*
X42522038Y-36747038D01*
X42411595Y-36881614D01*
X42329528Y-37035150D01*
X42278992Y-37201746D01*
X42261928Y-37375000D01*
X42261928Y-38625000D01*
X42278992Y-38798254D01*
X42329528Y-38964850D01*
X42411595Y-39118386D01*
X42511400Y-39240000D01*
X41488600Y-39240000D01*
X41588405Y-39118386D01*
X41670472Y-38964850D01*
X41721008Y-38798254D01*
X41738072Y-38625000D01*
X41738072Y-37375000D01*
X41721008Y-37201746D01*
X41670472Y-37035150D01*
X41588405Y-36881614D01*
X41477962Y-36747038D01*
X41343386Y-36636595D01*
X41210000Y-36565298D01*
X41210000Y-34929298D01*
X41238665Y-34935000D01*
X41521335Y-34935000D01*
X41798574Y-34879853D01*
X42059727Y-34771680D01*
X42294759Y-34614637D01*
X42494637Y-34414759D01*
X42651680Y-34179727D01*
X42759853Y-33918574D01*
X42815000Y-33641335D01*
X42815000Y-33358665D01*
X42759853Y-33081426D01*
X42651680Y-32820273D01*
X42494637Y-32585241D01*
X42294759Y-32385363D01*
X42059727Y-32228320D01*
X42049135Y-32223933D01*
X42235131Y-32112385D01*
X42443519Y-31923414D01*
X42611037Y-31697420D01*
X42731246Y-31443087D01*
X42771904Y-31309039D01*
X42649915Y-31087000D01*
X41507000Y-31087000D01*
X41507000Y-31107000D01*
X41253000Y-31107000D01*
X41253000Y-31087000D01*
X40110085Y-31087000D01*
X39988096Y-31309039D01*
X40028754Y-31443087D01*
X40148963Y-31697420D01*
X40316481Y-31923414D01*
X40524869Y-32112385D01*
X40710865Y-32223933D01*
X40700273Y-32228320D01*
X40465241Y-32385363D01*
X40265363Y-32585241D01*
X40108320Y-32820273D01*
X40000147Y-33081426D01*
X39945000Y-33358665D01*
X39945000Y-33641335D01*
X40000147Y-33918574D01*
X40002044Y-33923155D01*
X39938998Y-33986201D01*
X39910000Y-34009999D01*
X39886202Y-34038997D01*
X39886201Y-34038998D01*
X39815026Y-34125724D01*
X39744454Y-34257754D01*
X39700998Y-34401015D01*
X39686324Y-34550000D01*
X39690001Y-34587332D01*
X39690000Y-36565298D01*
X39556614Y-36636595D01*
X39422038Y-36747038D01*
X39311595Y-36881614D01*
X39229528Y-37035150D01*
X39178992Y-37201746D01*
X39161928Y-37375000D01*
X39161928Y-38625000D01*
X39178992Y-38798254D01*
X39229528Y-38964850D01*
X39311595Y-39118386D01*
X39411400Y-39240000D01*
X36953711Y-39240000D01*
X36909774Y-39196063D01*
X36740256Y-39082795D01*
X36551898Y-39004774D01*
X36351939Y-38965000D01*
X36148061Y-38965000D01*
X35948102Y-39004774D01*
X35759744Y-39082795D01*
X35590226Y-39196063D01*
X35446063Y-39340226D01*
X35332795Y-39509744D01*
X35254774Y-39698102D01*
X35215000Y-39898061D01*
X35215000Y-40101939D01*
X35254774Y-40301898D01*
X35332795Y-40490256D01*
X35446063Y-40659774D01*
X35590226Y-40803937D01*
X35759744Y-40917205D01*
X35948102Y-40995226D01*
X36148061Y-41035000D01*
X36351939Y-41035000D01*
X36551898Y-40995226D01*
X36740256Y-40917205D01*
X36909774Y-40803937D01*
X36953711Y-40760000D01*
X42962678Y-40760000D01*
X43000000Y-40763676D01*
X43037322Y-40760000D01*
X43037333Y-40760000D01*
X43148986Y-40749003D01*
X43292247Y-40705546D01*
X43424276Y-40634974D01*
X43540001Y-40540001D01*
X43563804Y-40510997D01*
X44010998Y-40063803D01*
X44040001Y-40040001D01*
X44134974Y-39924276D01*
X44205546Y-39792247D01*
X44249003Y-39648986D01*
X44260000Y-39537333D01*
X44260000Y-39537325D01*
X44263676Y-39500000D01*
X44260000Y-39462675D01*
X44260000Y-39454527D01*
X44289850Y-39445472D01*
X44443386Y-39363405D01*
X44577962Y-39252962D01*
X44688405Y-39118386D01*
X44770472Y-38964850D01*
X44775000Y-38949923D01*
X44779528Y-38964850D01*
X44861595Y-39118386D01*
X44972038Y-39252962D01*
X45106614Y-39363405D01*
X45260150Y-39445472D01*
X45426746Y-39496008D01*
X45600000Y-39513072D01*
X46400000Y-39513072D01*
X46573254Y-39496008D01*
X46739850Y-39445472D01*
X46893386Y-39363405D01*
X47027962Y-39252962D01*
X47138405Y-39118386D01*
X47220472Y-38964850D01*
X47271008Y-38798254D01*
X47288072Y-38625000D01*
X47288072Y-37375000D01*
X47271008Y-37201746D01*
X47220472Y-37035150D01*
X47138405Y-36881614D01*
X47027962Y-36747038D01*
X46893386Y-36636595D01*
X46760000Y-36565298D01*
X46760000Y-30231001D01*
X47761242Y-30231001D01*
X47728320Y-30280273D01*
X47620147Y-30541426D01*
X47565000Y-30818665D01*
X47565000Y-31101335D01*
X47620147Y-31378574D01*
X47728320Y-31639727D01*
X47885363Y-31874759D01*
X48083961Y-32073357D01*
X48075518Y-32074188D01*
X47955820Y-32110498D01*
X47845506Y-32169463D01*
X47748815Y-32248815D01*
X47669463Y-32345506D01*
X47610498Y-32455820D01*
X47574188Y-32575518D01*
X47561928Y-32700000D01*
X47561928Y-34300000D01*
X47574188Y-34424482D01*
X47610498Y-34544180D01*
X47669463Y-34654494D01*
X47748815Y-34751185D01*
X47845506Y-34830537D01*
X47955820Y-34889502D01*
X48075518Y-34925812D01*
X48200000Y-34938072D01*
X48340001Y-34938072D01*
X48340000Y-36565298D01*
X48206614Y-36636595D01*
X48072038Y-36747038D01*
X47961595Y-36881614D01*
X47879528Y-37035150D01*
X47828992Y-37201746D01*
X47811928Y-37375000D01*
X47811928Y-38625000D01*
X47828992Y-38798254D01*
X47879528Y-38964850D01*
X47961595Y-39118386D01*
X48072038Y-39252962D01*
X48206614Y-39363405D01*
X48360150Y-39445472D01*
X48526746Y-39496008D01*
X48700000Y-39513072D01*
X49500000Y-39513072D01*
X49673254Y-39496008D01*
X49839850Y-39445472D01*
X49993386Y-39363405D01*
X50127962Y-39252962D01*
X50238405Y-39118386D01*
X50320472Y-38964850D01*
X50371008Y-38798254D01*
X50388072Y-38625000D01*
X50388072Y-37375000D01*
X50371008Y-37201746D01*
X50320472Y-37035150D01*
X50238405Y-36881614D01*
X50127962Y-36747038D01*
X49993386Y-36636595D01*
X49860000Y-36565298D01*
X49860000Y-34932163D01*
X49924482Y-34925812D01*
X50044180Y-34889502D01*
X50154494Y-34830537D01*
X50251185Y-34751185D01*
X50330537Y-34654494D01*
X50389502Y-34544180D01*
X50425812Y-34424482D01*
X50438072Y-34300000D01*
X50438072Y-32700000D01*
X50425812Y-32575518D01*
X50389502Y-32455820D01*
X50330537Y-32345506D01*
X50251185Y-32248815D01*
X50154494Y-32169463D01*
X50044180Y-32110498D01*
X49924482Y-32074188D01*
X49916039Y-32073357D01*
X50114637Y-31874759D01*
X50271680Y-31639727D01*
X50379853Y-31378574D01*
X50435000Y-31101335D01*
X50435000Y-30818665D01*
X50379853Y-30541426D01*
X50271680Y-30280273D01*
X50238758Y-30231001D01*
X51155860Y-30231001D01*
X51211999Y-30236530D01*
X51268138Y-30231001D01*
X51268145Y-30231001D01*
X51436066Y-30214462D01*
X51651522Y-30149104D01*
X51850088Y-30042969D01*
X52024132Y-29900134D01*
X52059926Y-29856519D01*
X52901446Y-29015000D01*
X53081033Y-29015000D01*
X53396912Y-28952168D01*
X53694463Y-28828918D01*
X53962252Y-28649987D01*
X54189987Y-28422252D01*
X54368918Y-28154463D01*
X54492168Y-27856912D01*
X54555000Y-27541033D01*
X54555000Y-27218967D01*
X54492168Y-26903088D01*
X54368918Y-26605537D01*
X54228370Y-26395191D01*
X54274494Y-26370537D01*
X54371185Y-26291185D01*
X54450537Y-26194494D01*
X54509502Y-26084180D01*
X54545812Y-25964482D01*
X54558072Y-25840000D01*
X54558072Y-23840000D01*
X54550193Y-23760000D01*
X54685199Y-23760000D01*
X54990000Y-24064802D01*
%TA.AperFunction,Conductor*%
D28*
G36*
X54990000Y-24064802D02*
G01*
X54990001Y-26712668D01*
X54986324Y-26750000D01*
X54990001Y-26787333D01*
X55000998Y-26898986D01*
X55003777Y-26908148D01*
X55044454Y-27042246D01*
X55115026Y-27174276D01*
X55177172Y-27250000D01*
X55210000Y-27290001D01*
X55238998Y-27313799D01*
X55686196Y-27760997D01*
X55709999Y-27790001D01*
X55825724Y-27884974D01*
X55957753Y-27955546D01*
X56101014Y-27999003D01*
X56212667Y-28010000D01*
X56212675Y-28010000D01*
X56250000Y-28013676D01*
X56287325Y-28010000D01*
X56491243Y-28010000D01*
X56551082Y-28154463D01*
X56730013Y-28422252D01*
X56957748Y-28649987D01*
X57225537Y-28828918D01*
X57523088Y-28952168D01*
X57838967Y-29015000D01*
X58161033Y-29015000D01*
X58476912Y-28952168D01*
X58774463Y-28828918D01*
X59042252Y-28649987D01*
X59269987Y-28422252D01*
X59448918Y-28154463D01*
X59558877Y-27889000D01*
X61138815Y-27889000D01*
X61148815Y-27901185D01*
X61245506Y-27980537D01*
X61355820Y-28039502D01*
X61475518Y-28075812D01*
X61600000Y-28088072D01*
X62400000Y-28088072D01*
X62524482Y-28075812D01*
X62644180Y-28039502D01*
X62754494Y-27980537D01*
X62851185Y-27901185D01*
X62930537Y-27804494D01*
X62989502Y-27694180D01*
X63025812Y-27574482D01*
X63038072Y-27450000D01*
X63038072Y-26550000D01*
X63025812Y-26425518D01*
X62989502Y-26305820D01*
X62930537Y-26195506D01*
X62851185Y-26098815D01*
X62838095Y-26088072D01*
X63350000Y-26088072D01*
X63474482Y-26075812D01*
X63594180Y-26039502D01*
X63704494Y-25980537D01*
X63801185Y-25901185D01*
X63880537Y-25804494D01*
X63939502Y-25694180D01*
X63975812Y-25574482D01*
X63988072Y-25450000D01*
X63988072Y-24550000D01*
X63975812Y-24425518D01*
X63942275Y-24314960D01*
X64097737Y-24159498D01*
X64131659Y-24131659D01*
X64242753Y-23996291D01*
X64290000Y-23907897D01*
X64290001Y-50777087D01*
X64045412Y-50411034D01*
X63588966Y-49954588D01*
X63052242Y-49595960D01*
X62455866Y-49348933D01*
X61822756Y-49223000D01*
X61177244Y-49223000D01*
X60544134Y-49348933D01*
X59947758Y-49595960D01*
X59411034Y-49954588D01*
X58954588Y-50411034D01*
X58595960Y-50947758D01*
X58348933Y-51544134D01*
X58223000Y-52177244D01*
X58223000Y-52822756D01*
X58348933Y-53455866D01*
X58595960Y-54052242D01*
X58954588Y-54588966D01*
X59411034Y-55045412D01*
X59777085Y-55290000D01*
X53484548Y-55290000D01*
X53632048Y-54991653D01*
X52320000Y-53679605D01*
X51007952Y-54991653D01*
X51155452Y-55290000D01*
X48403974Y-55290000D01*
X48600983Y-55158363D01*
X48898363Y-54860983D01*
X49132012Y-54511302D01*
X49292953Y-54122756D01*
X49375000Y-53710279D01*
X49375000Y-53542824D01*
X50175098Y-53542824D01*
X50224666Y-53960451D01*
X50354757Y-54360383D01*
X50512786Y-54656038D01*
X50828347Y-54812048D01*
X52140395Y-53500000D01*
X52499605Y-53500000D01*
X53811653Y-54812048D01*
X54127214Y-54656038D01*
X54318020Y-54281255D01*
X54432044Y-53876449D01*
X54464902Y-53457176D01*
X54415334Y-53039549D01*
X54285243Y-52639617D01*
X54127214Y-52343962D01*
X53811653Y-52187952D01*
X52499605Y-53500000D01*
X52140395Y-53500000D01*
X50828347Y-52187952D01*
X50512786Y-52343962D01*
X50321980Y-52718745D01*
X50207956Y-53123551D01*
X50175098Y-53542824D01*
X49375000Y-53542824D01*
X49375000Y-53289721D01*
X49292953Y-52877244D01*
X49132012Y-52488698D01*
X48898363Y-52139017D01*
X48767693Y-52008347D01*
X51007952Y-52008347D01*
X52320000Y-53320395D01*
X53632048Y-52008347D01*
X53476038Y-51692786D01*
X53101255Y-51501980D01*
X52696449Y-51387956D01*
X52277176Y-51355098D01*
X51859549Y-51404666D01*
X51459617Y-51534757D01*
X51163962Y-51692786D01*
X51007952Y-52008347D01*
X48767693Y-52008347D01*
X48600983Y-51841637D01*
X48251302Y-51607988D01*
X47862756Y-51447047D01*
X47450279Y-51365000D01*
X47029721Y-51365000D01*
X46617244Y-51447047D01*
X46228698Y-51607988D01*
X45879017Y-51841637D01*
X45581637Y-52139017D01*
X45347988Y-52488698D01*
X45187047Y-52877244D01*
X45105000Y-53289721D01*
X45105000Y-53710279D01*
X45187047Y-54122756D01*
X45347988Y-54511302D01*
X45581637Y-54860983D01*
X45879017Y-55158363D01*
X46076026Y-55290000D01*
X43323974Y-55290000D01*
X43520983Y-55158363D01*
X43818363Y-54860983D01*
X44052012Y-54511302D01*
X44212953Y-54122756D01*
X44295000Y-53710279D01*
X44295000Y-53289721D01*
X44212953Y-52877244D01*
X44052012Y-52488698D01*
X43818363Y-52139017D01*
X43520983Y-51841637D01*
X43171302Y-51607988D01*
X43139000Y-51594608D01*
X43139000Y-44368235D01*
X44618236Y-42889000D01*
X50956340Y-42889000D01*
X51000000Y-42893300D01*
X51043660Y-42889000D01*
X51043667Y-42889000D01*
X51174274Y-42876136D01*
X51341851Y-42825303D01*
X51496291Y-42742753D01*
X51631659Y-42631659D01*
X51659499Y-42597736D01*
X53517742Y-40739494D01*
X53551659Y-40711659D01*
X53662753Y-40576291D01*
X53745303Y-40421851D01*
X53796136Y-40254274D01*
X53809000Y-40123667D01*
X53809000Y-40123661D01*
X53813300Y-40080001D01*
X53809000Y-40036341D01*
X53809000Y-36372387D01*
X53962252Y-36269987D01*
X54189987Y-36042252D01*
X54292387Y-35889000D01*
X56627613Y-35889000D01*
X56730013Y-36042252D01*
X56957748Y-36269987D01*
X57225537Y-36448918D01*
X57523088Y-36572168D01*
X57838967Y-36635000D01*
X58161033Y-36635000D01*
X58476912Y-36572168D01*
X58774463Y-36448918D01*
X59042252Y-36269987D01*
X59269987Y-36042252D01*
X59448918Y-35774463D01*
X59572168Y-35476912D01*
X59635000Y-35161033D01*
X59635000Y-34838967D01*
X59572168Y-34523088D01*
X59448918Y-34225537D01*
X59269987Y-33957748D01*
X59042252Y-33730013D01*
X58774463Y-33551082D01*
X58476912Y-33427832D01*
X58161033Y-33365000D01*
X57838967Y-33365000D01*
X57523088Y-33427832D01*
X57225537Y-33551082D01*
X56957748Y-33730013D01*
X56730013Y-33957748D01*
X56627613Y-34111000D01*
X54292387Y-34111000D01*
X54189987Y-33957748D01*
X53962252Y-33730013D01*
X53694463Y-33551082D01*
X53396912Y-33427832D01*
X53081033Y-33365000D01*
X52758967Y-33365000D01*
X52443088Y-33427832D01*
X52145537Y-33551082D01*
X51877748Y-33730013D01*
X51650013Y-33957748D01*
X51471082Y-34225537D01*
X51347832Y-34523088D01*
X51285000Y-34838967D01*
X51285000Y-35161033D01*
X51347832Y-35476912D01*
X51471082Y-35774463D01*
X51650013Y-36042252D01*
X51877748Y-36269987D01*
X52031000Y-36372387D01*
X52031001Y-39711763D01*
X50631765Y-41111000D01*
X44293659Y-41111000D01*
X44249999Y-41106700D01*
X44206339Y-41111000D01*
X44206333Y-41111000D01*
X44108924Y-41120594D01*
X44075724Y-41123864D01*
X43974058Y-41154704D01*
X43908149Y-41174697D01*
X43753709Y-41257247D01*
X43618341Y-41368341D01*
X43590506Y-41402258D01*
X41652264Y-43340501D01*
X41618341Y-43368341D01*
X41590505Y-43402260D01*
X41507248Y-43503709D01*
X41424698Y-43658148D01*
X41373993Y-43825303D01*
X41373864Y-43825727D01*
X41361000Y-43956334D01*
X41361000Y-43956340D01*
X41356700Y-44000000D01*
X41361000Y-44043660D01*
X41361001Y-51520049D01*
X41148698Y-51607988D01*
X40799017Y-51841637D01*
X40501637Y-52139017D01*
X40267988Y-52488698D01*
X40107047Y-52877244D01*
X40025000Y-53289721D01*
X40025000Y-53710279D01*
X40107047Y-54122756D01*
X40267988Y-54511302D01*
X40501637Y-54860983D01*
X40799017Y-55158363D01*
X40996026Y-55290000D01*
X38243974Y-55290000D01*
X38440983Y-55158363D01*
X38738363Y-54860983D01*
X38972012Y-54511302D01*
X39132953Y-54122756D01*
X39215000Y-53710279D01*
X39215000Y-53289721D01*
X39132953Y-52877244D01*
X38972012Y-52488698D01*
X38738363Y-52139017D01*
X38440983Y-51841637D01*
X38091302Y-51607988D01*
X37889000Y-51524192D01*
X37889000Y-47043659D01*
X37893300Y-46999999D01*
X37889000Y-46956334D01*
X37889000Y-46956333D01*
X37876136Y-46825726D01*
X37876136Y-46825724D01*
X37825302Y-46658147D01*
X37821589Y-46651200D01*
X37742753Y-46503709D01*
X37631659Y-46368341D01*
X37597737Y-46340502D01*
X33889000Y-42631765D01*
X33889000Y-36372387D01*
X34042252Y-36269987D01*
X34269987Y-36042252D01*
X34448918Y-35774463D01*
X34572168Y-35476912D01*
X34635000Y-35161033D01*
X34635000Y-34838967D01*
X34572168Y-34523088D01*
X34448918Y-34225537D01*
X34269987Y-33957748D01*
X34042252Y-33730013D01*
X33774463Y-33551082D01*
X33476912Y-33427832D01*
X33161033Y-33365000D01*
X32838967Y-33365000D01*
X32523088Y-33427832D01*
X32225537Y-33551082D01*
X31957748Y-33730013D01*
X31730013Y-33957748D01*
X31627613Y-34111000D01*
X29292387Y-34111000D01*
X29189987Y-33957748D01*
X28962252Y-33730013D01*
X28694463Y-33551082D01*
X28396912Y-33427832D01*
X28081033Y-33365000D01*
X27758967Y-33365000D01*
X27443088Y-33427832D01*
X27145537Y-33551082D01*
X27051010Y-33614243D01*
X27051010Y-29565435D01*
X27627580Y-28988866D01*
X27758967Y-29015000D01*
X28081033Y-29015000D01*
X28137352Y-29003797D01*
X28990078Y-29856524D01*
X29025868Y-29900134D01*
X29199912Y-30042969D01*
X29398478Y-30149104D01*
X29548575Y-30194636D01*
X29613933Y-30214462D01*
X29634518Y-30216489D01*
X29781855Y-30231001D01*
X29781862Y-30231001D01*
X29838001Y-30236530D01*
X29894140Y-30231001D01*
X40144983Y-30231001D01*
X40028754Y-30476913D01*
X39988096Y-30610961D01*
X40110085Y-30833000D01*
X41253000Y-30833000D01*
X41253000Y-30813000D01*
X41507000Y-30813000D01*
X41507000Y-30833000D01*
X42649915Y-30833000D01*
X42771904Y-30610961D01*
X42731246Y-30476913D01*
X42615017Y-30231001D01*
X45240001Y-30231001D01*
X45240000Y-36565298D01*
X45106614Y-36636595D01*
X44972038Y-36747038D01*
X44861595Y-36881614D01*
X44779528Y-37035150D01*
X44775000Y-37050077D01*
X44770472Y-37035150D01*
X44688405Y-36881614D01*
X44577962Y-36747038D01*
X44443386Y-36636595D01*
X44289850Y-36554528D01*
X44123254Y-36503992D01*
X43950000Y-36486928D01*
X43150000Y-36486928D01*
X42976746Y-36503992D01*
X42810150Y-36554528D01*
X42656614Y-36636595D01*
X42522038Y-36747038D01*
X42411595Y-36881614D01*
X42329528Y-37035150D01*
X42278992Y-37201746D01*
X42261928Y-37375000D01*
X42261928Y-38625000D01*
X42278992Y-38798254D01*
X42329528Y-38964850D01*
X42411595Y-39118386D01*
X42511400Y-39240000D01*
X41488600Y-39240000D01*
X41588405Y-39118386D01*
X41670472Y-38964850D01*
X41721008Y-38798254D01*
X41738072Y-38625000D01*
X41738072Y-37375000D01*
X41721008Y-37201746D01*
X41670472Y-37035150D01*
X41588405Y-36881614D01*
X41477962Y-36747038D01*
X41343386Y-36636595D01*
X41210000Y-36565298D01*
X41210000Y-34929298D01*
X41238665Y-34935000D01*
X41521335Y-34935000D01*
X41798574Y-34879853D01*
X42059727Y-34771680D01*
X42294759Y-34614637D01*
X42494637Y-34414759D01*
X42651680Y-34179727D01*
X42759853Y-33918574D01*
X42815000Y-33641335D01*
X42815000Y-33358665D01*
X42759853Y-33081426D01*
X42651680Y-32820273D01*
X42494637Y-32585241D01*
X42294759Y-32385363D01*
X42059727Y-32228320D01*
X42049135Y-32223933D01*
X42235131Y-32112385D01*
X42443519Y-31923414D01*
X42611037Y-31697420D01*
X42731246Y-31443087D01*
X42771904Y-31309039D01*
X42649915Y-31087000D01*
X41507000Y-31087000D01*
X41507000Y-31107000D01*
X41253000Y-31107000D01*
X41253000Y-31087000D01*
X40110085Y-31087000D01*
X39988096Y-31309039D01*
X40028754Y-31443087D01*
X40148963Y-31697420D01*
X40316481Y-31923414D01*
X40524869Y-32112385D01*
X40710865Y-32223933D01*
X40700273Y-32228320D01*
X40465241Y-32385363D01*
X40265363Y-32585241D01*
X40108320Y-32820273D01*
X40000147Y-33081426D01*
X39945000Y-33358665D01*
X39945000Y-33641335D01*
X40000147Y-33918574D01*
X40002044Y-33923155D01*
X39938998Y-33986201D01*
X39910000Y-34009999D01*
X39886202Y-34038997D01*
X39886201Y-34038998D01*
X39815026Y-34125724D01*
X39744454Y-34257754D01*
X39700998Y-34401015D01*
X39686324Y-34550000D01*
X39690001Y-34587332D01*
X39690000Y-36565298D01*
X39556614Y-36636595D01*
X39422038Y-36747038D01*
X39311595Y-36881614D01*
X39229528Y-37035150D01*
X39178992Y-37201746D01*
X39161928Y-37375000D01*
X39161928Y-38625000D01*
X39178992Y-38798254D01*
X39229528Y-38964850D01*
X39311595Y-39118386D01*
X39411400Y-39240000D01*
X36953711Y-39240000D01*
X36909774Y-39196063D01*
X36740256Y-39082795D01*
X36551898Y-39004774D01*
X36351939Y-38965000D01*
X36148061Y-38965000D01*
X35948102Y-39004774D01*
X35759744Y-39082795D01*
X35590226Y-39196063D01*
X35446063Y-39340226D01*
X35332795Y-39509744D01*
X35254774Y-39698102D01*
X35215000Y-39898061D01*
X35215000Y-40101939D01*
X35254774Y-40301898D01*
X35332795Y-40490256D01*
X35446063Y-40659774D01*
X35590226Y-40803937D01*
X35759744Y-40917205D01*
X35948102Y-40995226D01*
X36148061Y-41035000D01*
X36351939Y-41035000D01*
X36551898Y-40995226D01*
X36740256Y-40917205D01*
X36909774Y-40803937D01*
X36953711Y-40760000D01*
X42962678Y-40760000D01*
X43000000Y-40763676D01*
X43037322Y-40760000D01*
X43037333Y-40760000D01*
X43148986Y-40749003D01*
X43292247Y-40705546D01*
X43424276Y-40634974D01*
X43540001Y-40540001D01*
X43563804Y-40510997D01*
X44010998Y-40063803D01*
X44040001Y-40040001D01*
X44134974Y-39924276D01*
X44205546Y-39792247D01*
X44249003Y-39648986D01*
X44260000Y-39537333D01*
X44260000Y-39537325D01*
X44263676Y-39500000D01*
X44260000Y-39462675D01*
X44260000Y-39454527D01*
X44289850Y-39445472D01*
X44443386Y-39363405D01*
X44577962Y-39252962D01*
X44688405Y-39118386D01*
X44770472Y-38964850D01*
X44775000Y-38949923D01*
X44779528Y-38964850D01*
X44861595Y-39118386D01*
X44972038Y-39252962D01*
X45106614Y-39363405D01*
X45260150Y-39445472D01*
X45426746Y-39496008D01*
X45600000Y-39513072D01*
X46400000Y-39513072D01*
X46573254Y-39496008D01*
X46739850Y-39445472D01*
X46893386Y-39363405D01*
X47027962Y-39252962D01*
X47138405Y-39118386D01*
X47220472Y-38964850D01*
X47271008Y-38798254D01*
X47288072Y-38625000D01*
X47288072Y-37375000D01*
X47271008Y-37201746D01*
X47220472Y-37035150D01*
X47138405Y-36881614D01*
X47027962Y-36747038D01*
X46893386Y-36636595D01*
X46760000Y-36565298D01*
X46760000Y-30231001D01*
X47761242Y-30231001D01*
X47728320Y-30280273D01*
X47620147Y-30541426D01*
X47565000Y-30818665D01*
X47565000Y-31101335D01*
X47620147Y-31378574D01*
X47728320Y-31639727D01*
X47885363Y-31874759D01*
X48083961Y-32073357D01*
X48075518Y-32074188D01*
X47955820Y-32110498D01*
X47845506Y-32169463D01*
X47748815Y-32248815D01*
X47669463Y-32345506D01*
X47610498Y-32455820D01*
X47574188Y-32575518D01*
X47561928Y-32700000D01*
X47561928Y-34300000D01*
X47574188Y-34424482D01*
X47610498Y-34544180D01*
X47669463Y-34654494D01*
X47748815Y-34751185D01*
X47845506Y-34830537D01*
X47955820Y-34889502D01*
X48075518Y-34925812D01*
X48200000Y-34938072D01*
X48340001Y-34938072D01*
X48340000Y-36565298D01*
X48206614Y-36636595D01*
X48072038Y-36747038D01*
X47961595Y-36881614D01*
X47879528Y-37035150D01*
X47828992Y-37201746D01*
X47811928Y-37375000D01*
X47811928Y-38625000D01*
X47828992Y-38798254D01*
X47879528Y-38964850D01*
X47961595Y-39118386D01*
X48072038Y-39252962D01*
X48206614Y-39363405D01*
X48360150Y-39445472D01*
X48526746Y-39496008D01*
X48700000Y-39513072D01*
X49500000Y-39513072D01*
X49673254Y-39496008D01*
X49839850Y-39445472D01*
X49993386Y-39363405D01*
X50127962Y-39252962D01*
X50238405Y-39118386D01*
X50320472Y-38964850D01*
X50371008Y-38798254D01*
X50388072Y-38625000D01*
X50388072Y-37375000D01*
X50371008Y-37201746D01*
X50320472Y-37035150D01*
X50238405Y-36881614D01*
X50127962Y-36747038D01*
X49993386Y-36636595D01*
X49860000Y-36565298D01*
X49860000Y-34932163D01*
X49924482Y-34925812D01*
X50044180Y-34889502D01*
X50154494Y-34830537D01*
X50251185Y-34751185D01*
X50330537Y-34654494D01*
X50389502Y-34544180D01*
X50425812Y-34424482D01*
X50438072Y-34300000D01*
X50438072Y-32700000D01*
X50425812Y-32575518D01*
X50389502Y-32455820D01*
X50330537Y-32345506D01*
X50251185Y-32248815D01*
X50154494Y-32169463D01*
X50044180Y-32110498D01*
X49924482Y-32074188D01*
X49916039Y-32073357D01*
X50114637Y-31874759D01*
X50271680Y-31639727D01*
X50379853Y-31378574D01*
X50435000Y-31101335D01*
X50435000Y-30818665D01*
X50379853Y-30541426D01*
X50271680Y-30280273D01*
X50238758Y-30231001D01*
X51155860Y-30231001D01*
X51211999Y-30236530D01*
X51268138Y-30231001D01*
X51268145Y-30231001D01*
X51436066Y-30214462D01*
X51651522Y-30149104D01*
X51850088Y-30042969D01*
X52024132Y-29900134D01*
X52059926Y-29856519D01*
X52901446Y-29015000D01*
X53081033Y-29015000D01*
X53396912Y-28952168D01*
X53694463Y-28828918D01*
X53962252Y-28649987D01*
X54189987Y-28422252D01*
X54368918Y-28154463D01*
X54492168Y-27856912D01*
X54555000Y-27541033D01*
X54555000Y-27218967D01*
X54492168Y-26903088D01*
X54368918Y-26605537D01*
X54228370Y-26395191D01*
X54274494Y-26370537D01*
X54371185Y-26291185D01*
X54450537Y-26194494D01*
X54509502Y-26084180D01*
X54545812Y-25964482D01*
X54558072Y-25840000D01*
X54558072Y-23840000D01*
X54550193Y-23760000D01*
X54685199Y-23760000D01*
X54990000Y-24064802D01*
G37*
%TD.AperFunction*%
D27*
X13357001Y-11755630D02*
X13357000Y-24693861D01*
X13351471Y-24750000D01*
X13357000Y-24806139D01*
X13357000Y-24806145D01*
X13357001Y-24806155D01*
X13357000Y-26693861D01*
X13351471Y-26750000D01*
X13357000Y-26806139D01*
X13357000Y-26806145D01*
X13365151Y-26888898D01*
X13372154Y-26959999D01*
X13373539Y-26974066D01*
X13438897Y-27189522D01*
X13545032Y-27388088D01*
X13687867Y-27562133D01*
X13731482Y-27597927D01*
X14083554Y-27950000D01*
X12151555Y-29882000D01*
X10728072Y-29882000D01*
X10728072Y-28725000D01*
X10715812Y-28600518D01*
X10679502Y-28480820D01*
X10620537Y-28370506D01*
X10541185Y-28273815D01*
X10444494Y-28194463D01*
X10334180Y-28135498D01*
X10214482Y-28099188D01*
X10090000Y-28086928D01*
X8990000Y-28086928D01*
X8865518Y-28099188D01*
X8745820Y-28135498D01*
X8635506Y-28194463D01*
X8538815Y-28273815D01*
X8459463Y-28370506D01*
X8400498Y-28480820D01*
X8364188Y-28600518D01*
X8351928Y-28725000D01*
X8351928Y-33325000D01*
X8364188Y-33449482D01*
X8400498Y-33569180D01*
X8459463Y-33679494D01*
X8538815Y-33776185D01*
X8635506Y-33855537D01*
X8745820Y-33914502D01*
X8865518Y-33950812D01*
X8990000Y-33963072D01*
X10090000Y-33963072D01*
X10214482Y-33950812D01*
X10334180Y-33914502D01*
X10444494Y-33855537D01*
X10541185Y-33776185D01*
X10620537Y-33679494D01*
X10679502Y-33569180D01*
X10715812Y-33449482D01*
X10728072Y-33325000D01*
X10728072Y-32168000D01*
X12568861Y-32168000D01*
X12625000Y-32173529D01*
X12681139Y-32168000D01*
X12681146Y-32168000D01*
X12849067Y-32151461D01*
X13064523Y-32086103D01*
X13263089Y-31979968D01*
X13437133Y-31837133D01*
X13472927Y-31793518D01*
X14615484Y-30650961D01*
X14988096Y-30650961D01*
X15110085Y-30873000D01*
X16253000Y-30873000D01*
X16253000Y-29729376D01*
X16507000Y-29729376D01*
X16507000Y-30873000D01*
X17649915Y-30873000D01*
X17771904Y-30650961D01*
X17731246Y-30516913D01*
X17611037Y-30262580D01*
X17443519Y-30036586D01*
X17235131Y-29847615D01*
X16993881Y-29702930D01*
X16729040Y-29608091D01*
X16507000Y-29729376D01*
X16253000Y-29729376D01*
X16030960Y-29608091D01*
X15766119Y-29702930D01*
X15524869Y-29847615D01*
X15316481Y-30036586D01*
X15148963Y-30262580D01*
X15028754Y-30516913D01*
X14988096Y-30650961D01*
X14615484Y-30650961D01*
X16173446Y-29093000D01*
X21582199Y-29093000D01*
X20488998Y-30186201D01*
X20460000Y-30209999D01*
X20436202Y-30238997D01*
X20436201Y-30238998D01*
X20365026Y-30325724D01*
X20294454Y-30457754D01*
X20250998Y-30601015D01*
X20236324Y-30750000D01*
X20240001Y-30787332D01*
X20240000Y-36565298D01*
X20106614Y-36636595D01*
X19972038Y-36747038D01*
X19861595Y-36881614D01*
X19779528Y-37035150D01*
X19775000Y-37050077D01*
X19770472Y-37035150D01*
X19688405Y-36881614D01*
X19577962Y-36747038D01*
X19443386Y-36636595D01*
X19289850Y-36554528D01*
X19123254Y-36503992D01*
X18950000Y-36486928D01*
X18150000Y-36486928D01*
X17976746Y-36503992D01*
X17810150Y-36554528D01*
X17656614Y-36636595D01*
X17522038Y-36747038D01*
X17411595Y-36881614D01*
X17329528Y-37035150D01*
X17278992Y-37201746D01*
X17261928Y-37375000D01*
X17261928Y-38625000D01*
X17278992Y-38798254D01*
X17329528Y-38964850D01*
X17411595Y-39118386D01*
X17522038Y-39252962D01*
X17656614Y-39363405D01*
X17674270Y-39372842D01*
X17582795Y-39509744D01*
X17504774Y-39698102D01*
X17465000Y-39898061D01*
X17465000Y-40101939D01*
X17504774Y-40301898D01*
X17582795Y-40490256D01*
X17696063Y-40659774D01*
X17840226Y-40803937D01*
X18009744Y-40917205D01*
X18198102Y-40995226D01*
X18398061Y-41035000D01*
X18601939Y-41035000D01*
X18801898Y-40995226D01*
X18990256Y-40917205D01*
X19159774Y-40803937D01*
X19303937Y-40659774D01*
X19417205Y-40490256D01*
X19495226Y-40301898D01*
X19535000Y-40101939D01*
X19535000Y-39898061D01*
X19495226Y-39698102D01*
X19417205Y-39509744D01*
X19352047Y-39412227D01*
X19443386Y-39363405D01*
X19577962Y-39252962D01*
X19688405Y-39118386D01*
X19770472Y-38964850D01*
X19775000Y-38949923D01*
X19779528Y-38964850D01*
X19861595Y-39118386D01*
X19972038Y-39252962D01*
X20106614Y-39363405D01*
X20260150Y-39445472D01*
X20426746Y-39496008D01*
X20600000Y-39513072D01*
X21400000Y-39513072D01*
X21573254Y-39496008D01*
X21739850Y-39445472D01*
X21893386Y-39363405D01*
X22027962Y-39252962D01*
X22138405Y-39118386D01*
X22220472Y-38964850D01*
X22271008Y-38798254D01*
X22288072Y-38625000D01*
X22288072Y-37375000D01*
X22271008Y-37201746D01*
X22220472Y-37035150D01*
X22138405Y-36881614D01*
X22027962Y-36747038D01*
X21893386Y-36636595D01*
X21760000Y-36565298D01*
X21760000Y-31064801D01*
X22979178Y-29845624D01*
X22994066Y-29860512D01*
X23029857Y-29904123D01*
X23049973Y-29920631D01*
X22885363Y-30085241D01*
X22728320Y-30320273D01*
X22620147Y-30581426D01*
X22565000Y-30858665D01*
X22565000Y-31141335D01*
X22620147Y-31418574D01*
X22728320Y-31679727D01*
X22885363Y-31914759D01*
X23083961Y-32113357D01*
X23075518Y-32114188D01*
X22955820Y-32150498D01*
X22845506Y-32209463D01*
X22748815Y-32288815D01*
X22669463Y-32385506D01*
X22610498Y-32495820D01*
X22574188Y-32615518D01*
X22561928Y-32740000D01*
X22561928Y-34340000D01*
X22574188Y-34464482D01*
X22610498Y-34584180D01*
X22669463Y-34694494D01*
X22748815Y-34791185D01*
X22845506Y-34870537D01*
X22955820Y-34929502D01*
X23075518Y-34965812D01*
X23200000Y-34978072D01*
X23340001Y-34978072D01*
X23340000Y-36565298D01*
X23206614Y-36636595D01*
X23072038Y-36747038D01*
X22961595Y-36881614D01*
X22879528Y-37035150D01*
X22828992Y-37201746D01*
X22811928Y-37375000D01*
X22811928Y-38625000D01*
X22828992Y-38798254D01*
X22879528Y-38964850D01*
X22961595Y-39118386D01*
X23072038Y-39252962D01*
X23206614Y-39363405D01*
X23360150Y-39445472D01*
X23526746Y-39496008D01*
X23700000Y-39513072D01*
X24500000Y-39513072D01*
X24673254Y-39496008D01*
X24839850Y-39445472D01*
X24886056Y-39420774D01*
X24953042Y-39546098D01*
X25095877Y-39720143D01*
X25139492Y-39755938D01*
X30857001Y-45473447D01*
X30857000Y-51695986D01*
X30639017Y-51841637D01*
X30341637Y-52139017D01*
X30107988Y-52488698D01*
X29947047Y-52877244D01*
X29865000Y-53289721D01*
X29865000Y-53710279D01*
X29947047Y-54122756D01*
X30051140Y-54374059D01*
X29860198Y-54565001D01*
X29056971Y-54565001D01*
X29055000Y-53785750D01*
X28896250Y-53627000D01*
X27047000Y-53627000D01*
X27047000Y-53647000D01*
X26793000Y-53647000D01*
X26793000Y-53627000D01*
X24943750Y-53627000D01*
X24785000Y-53785750D01*
X24783029Y-54565001D01*
X23889804Y-54565001D01*
X22363803Y-53039002D01*
X22340001Y-53009999D01*
X22224276Y-52915026D01*
X22092247Y-52844454D01*
X21948986Y-52800997D01*
X21837333Y-52790000D01*
X21837322Y-52790000D01*
X21800000Y-52786324D01*
X21762678Y-52790000D01*
X19434702Y-52790000D01*
X19363405Y-52656614D01*
X19252962Y-52522038D01*
X19118386Y-52411595D01*
X18964850Y-52329528D01*
X18798254Y-52278992D01*
X18625000Y-52261928D01*
X17375000Y-52261928D01*
X17201746Y-52278992D01*
X17035150Y-52329528D01*
X16881614Y-52411595D01*
X16747038Y-52522038D01*
X16636595Y-52656614D01*
X16554528Y-52810150D01*
X16503992Y-52976746D01*
X16486928Y-53150000D01*
X16486928Y-53950000D01*
X16503992Y-54123254D01*
X16554528Y-54289850D01*
X16636595Y-54443386D01*
X16747038Y-54577962D01*
X16881614Y-54688405D01*
X17035150Y-54770472D01*
X17201746Y-54821008D01*
X17375000Y-54838072D01*
X18625000Y-54838072D01*
X18798254Y-54821008D01*
X18964850Y-54770472D01*
X19118386Y-54688405D01*
X19252962Y-54577962D01*
X19363405Y-54443386D01*
X19434702Y-54310000D01*
X21485199Y-54310000D01*
X22465198Y-55290000D01*
X5222915Y-55290000D01*
X5588966Y-55045412D01*
X6045412Y-54588966D01*
X6296958Y-54212500D01*
X12486928Y-54212500D01*
X12499188Y-54336982D01*
X12535498Y-54456680D01*
X12594463Y-54566994D01*
X12673815Y-54663685D01*
X12770506Y-54743037D01*
X12880820Y-54802002D01*
X13000518Y-54838312D01*
X13125000Y-54850572D01*
X13714250Y-54847500D01*
X13873000Y-54688750D01*
X13873000Y-53627000D01*
X14127000Y-53627000D01*
X14127000Y-54688750D01*
X14285750Y-54847500D01*
X14875000Y-54850572D01*
X14999482Y-54838312D01*
X15119180Y-54802002D01*
X15229494Y-54743037D01*
X15326185Y-54663685D01*
X15405537Y-54566994D01*
X15464502Y-54456680D01*
X15500812Y-54336982D01*
X15513072Y-54212500D01*
X15510000Y-53785750D01*
X15351250Y-53627000D01*
X14127000Y-53627000D01*
X13873000Y-53627000D01*
X12648750Y-53627000D01*
X12490000Y-53785750D01*
X12486928Y-54212500D01*
X6296958Y-54212500D01*
X6404040Y-54052242D01*
X6651067Y-53455866D01*
X6777000Y-52822756D01*
X6777000Y-52787500D01*
X12486928Y-52787500D01*
X12490000Y-53214250D01*
X12648750Y-53373000D01*
X13873000Y-53373000D01*
X13873000Y-52311250D01*
X14127000Y-52311250D01*
X14127000Y-53373000D01*
X15351250Y-53373000D01*
X15510000Y-53214250D01*
X15513072Y-52787500D01*
X15500812Y-52663018D01*
X15464502Y-52543320D01*
X15405537Y-52433006D01*
X15326185Y-52336315D01*
X15229494Y-52256963D01*
X15119180Y-52197998D01*
X14999482Y-52161688D01*
X14875000Y-52149428D01*
X14285750Y-52152500D01*
X14127000Y-52311250D01*
X13873000Y-52311250D01*
X13714250Y-52152500D01*
X13125000Y-52149428D01*
X13000518Y-52161688D01*
X12880820Y-52197998D01*
X12770506Y-52256963D01*
X12673815Y-52336315D01*
X12594463Y-52433006D01*
X12535498Y-52543320D01*
X12499188Y-52663018D01*
X12486928Y-52787500D01*
X6777000Y-52787500D01*
X6777000Y-52177244D01*
X6741745Y-52000000D01*
X24781928Y-52000000D01*
X24785000Y-53214250D01*
X24943750Y-53373000D01*
X26793000Y-53373000D01*
X26793000Y-51523750D01*
X27047000Y-51523750D01*
X27047000Y-53373000D01*
X28896250Y-53373000D01*
X29055000Y-53214250D01*
X29058072Y-52000000D01*
X29045812Y-51875518D01*
X29009502Y-51755820D01*
X28950537Y-51645506D01*
X28871185Y-51548815D01*
X28774494Y-51469463D01*
X28664180Y-51410498D01*
X28544482Y-51374188D01*
X28420000Y-51361928D01*
X27205750Y-51365000D01*
X27047000Y-51523750D01*
X26793000Y-51523750D01*
X26634250Y-51365000D01*
X25420000Y-51361928D01*
X25295518Y-51374188D01*
X25175820Y-51410498D01*
X25065506Y-51469463D01*
X24968815Y-51548815D01*
X24889463Y-51645506D01*
X24830498Y-51755820D01*
X24794188Y-51875518D01*
X24781928Y-52000000D01*
X6741745Y-52000000D01*
X6651067Y-51544134D01*
X6404040Y-50947758D01*
X6045412Y-50411034D01*
X5696878Y-50062500D01*
X12486928Y-50062500D01*
X12486928Y-50987500D01*
X12503992Y-51160754D01*
X12554528Y-51327350D01*
X12636595Y-51480886D01*
X12747038Y-51615462D01*
X12881614Y-51725905D01*
X13035150Y-51807972D01*
X13201746Y-51858508D01*
X13375000Y-51875572D01*
X14625000Y-51875572D01*
X14798254Y-51858508D01*
X14964850Y-51807972D01*
X15118386Y-51725905D01*
X15252962Y-51615462D01*
X15363405Y-51480886D01*
X15445472Y-51327350D01*
X15458319Y-51285000D01*
X16605387Y-51285000D01*
X16636595Y-51343386D01*
X16747038Y-51477962D01*
X16881614Y-51588405D01*
X17035150Y-51670472D01*
X17201746Y-51721008D01*
X17375000Y-51738072D01*
X18625000Y-51738072D01*
X18798254Y-51721008D01*
X18964850Y-51670472D01*
X19118386Y-51588405D01*
X19252962Y-51477962D01*
X19363405Y-51343386D01*
X19445472Y-51189850D01*
X19496008Y-51023254D01*
X19513072Y-50850000D01*
X19513072Y-50050000D01*
X19496008Y-49876746D01*
X19445472Y-49710150D01*
X19363405Y-49556614D01*
X19252962Y-49422038D01*
X19118386Y-49311595D01*
X18964850Y-49229528D01*
X18798254Y-49178992D01*
X18625000Y-49161928D01*
X17375000Y-49161928D01*
X17201746Y-49178992D01*
X17035150Y-49229528D01*
X16881614Y-49311595D01*
X16747038Y-49422038D01*
X16636595Y-49556614D01*
X16554528Y-49710150D01*
X16537890Y-49765000D01*
X15458319Y-49765000D01*
X15445472Y-49722650D01*
X15363405Y-49569114D01*
X15252962Y-49434538D01*
X15118386Y-49324095D01*
X14964850Y-49242028D01*
X14798254Y-49191492D01*
X14625000Y-49174428D01*
X13375000Y-49174428D01*
X13201746Y-49191492D01*
X13035150Y-49242028D01*
X12881614Y-49324095D01*
X12747038Y-49434538D01*
X12636595Y-49569114D01*
X12554528Y-49722650D01*
X12503992Y-49889246D01*
X12486928Y-50062500D01*
X5696878Y-50062500D01*
X5588966Y-49954588D01*
X5052242Y-49595960D01*
X4455866Y-49348933D01*
X3822756Y-49223000D01*
X3177244Y-49223000D01*
X2544134Y-49348933D01*
X1947758Y-49595960D01*
X1411034Y-49954588D01*
X954588Y-50411034D01*
X710000Y-50777085D01*
X710000Y-45700000D01*
X4361928Y-45700000D01*
X4374188Y-45824482D01*
X4410498Y-45944180D01*
X4469463Y-46054494D01*
X4548815Y-46151185D01*
X4645506Y-46230537D01*
X4755820Y-46289502D01*
X4875518Y-46325812D01*
X5000000Y-46338072D01*
X6464250Y-46335000D01*
X6623000Y-46176250D01*
X6623000Y-44077000D01*
X6877000Y-44077000D01*
X6877000Y-46176250D01*
X7035750Y-46335000D01*
X8500000Y-46338072D01*
X8624482Y-46325812D01*
X8744180Y-46289502D01*
X8854494Y-46230537D01*
X8951185Y-46151185D01*
X9030537Y-46054494D01*
X9089502Y-45944180D01*
X9125812Y-45824482D01*
X9138072Y-45700000D01*
X9135000Y-44235750D01*
X8976250Y-44077000D01*
X6877000Y-44077000D01*
X6623000Y-44077000D01*
X4523750Y-44077000D01*
X4365000Y-44235750D01*
X4361928Y-45700000D01*
X710000Y-45700000D01*
X710000Y-41000000D01*
X1611928Y-41000000D01*
X1624188Y-41124482D01*
X1660498Y-41244180D01*
X1719463Y-41354494D01*
X1798815Y-41451185D01*
X1895506Y-41530537D01*
X2005820Y-41589502D01*
X2125518Y-41625812D01*
X2250000Y-41638072D01*
X3464250Y-41635000D01*
X3623000Y-41476250D01*
X3623000Y-39377000D01*
X3877000Y-39377000D01*
X3877000Y-41476250D01*
X4035750Y-41635000D01*
X4706805Y-41636698D01*
X4645506Y-41669463D01*
X4548815Y-41748815D01*
X4469463Y-41845506D01*
X4410498Y-41955820D01*
X4374188Y-42075518D01*
X4361928Y-42200000D01*
X4365000Y-43664250D01*
X4523750Y-43823000D01*
X6623000Y-43823000D01*
X6623000Y-41723750D01*
X6464250Y-41565000D01*
X5543633Y-41563069D01*
X5604494Y-41530537D01*
X5701185Y-41451185D01*
X5780537Y-41354494D01*
X5839502Y-41244180D01*
X5875812Y-41124482D01*
X5888072Y-41000000D01*
X5885000Y-39535750D01*
X5726250Y-39377000D01*
X3877000Y-39377000D01*
X3623000Y-39377000D01*
X1773750Y-39377000D01*
X1615000Y-39535750D01*
X1611928Y-41000000D01*
X710000Y-41000000D01*
X710000Y-37500000D01*
X1611928Y-37500000D01*
X1615000Y-38964250D01*
X1773750Y-39123000D01*
X3623000Y-39123000D01*
X3623000Y-37023750D01*
X3877000Y-37023750D01*
X3877000Y-39123000D01*
X5726250Y-39123000D01*
X5885000Y-38964250D01*
X5888072Y-37500000D01*
X5875812Y-37375518D01*
X5839502Y-37255820D01*
X5780537Y-37145506D01*
X5701185Y-37048815D01*
X5604494Y-36969463D01*
X5494180Y-36910498D01*
X5374482Y-36874188D01*
X5250000Y-36861928D01*
X4035750Y-36865000D01*
X3877000Y-37023750D01*
X3623000Y-37023750D01*
X3464250Y-36865000D01*
X2250000Y-36861928D01*
X2125518Y-36874188D01*
X2005820Y-36910498D01*
X1895506Y-36969463D01*
X1798815Y-37048815D01*
X1719463Y-37145506D01*
X1660498Y-37255820D01*
X1624188Y-37375518D01*
X1611928Y-37500000D01*
X710000Y-37500000D01*
X710000Y-33325000D01*
X3271928Y-33325000D01*
X3284188Y-33449482D01*
X3320498Y-33569180D01*
X3379463Y-33679494D01*
X3458815Y-33776185D01*
X3555506Y-33855537D01*
X3665820Y-33914502D01*
X3785518Y-33950812D01*
X3910000Y-33963072D01*
X4174250Y-33960000D01*
X4333000Y-33801250D01*
X4333000Y-31152000D01*
X4587000Y-31152000D01*
X4587000Y-33801250D01*
X4745750Y-33960000D01*
X5010000Y-33963072D01*
X5134482Y-33950812D01*
X5254180Y-33914502D01*
X5364494Y-33855537D01*
X5461185Y-33776185D01*
X5540537Y-33679494D01*
X5599502Y-33569180D01*
X5635812Y-33449482D01*
X5648072Y-33325000D01*
X5645000Y-31310750D01*
X5486250Y-31152000D01*
X4587000Y-31152000D01*
X4333000Y-31152000D01*
X3433750Y-31152000D01*
X3275000Y-31310750D01*
X3271928Y-33325000D01*
X710000Y-33325000D01*
X710000Y-28725000D01*
X3271928Y-28725000D01*
X3275000Y-30739250D01*
X3433750Y-30898000D01*
X4333000Y-30898000D01*
X4333000Y-28248750D01*
X4587000Y-28248750D01*
X4587000Y-30898000D01*
X5486250Y-30898000D01*
X5645000Y-30739250D01*
X5648072Y-28725000D01*
X5635812Y-28600518D01*
X5599502Y-28480820D01*
X5540537Y-28370506D01*
X5461185Y-28273815D01*
X5364494Y-28194463D01*
X5254180Y-28135498D01*
X5134482Y-28099188D01*
X5010000Y-28086928D01*
X4745750Y-28090000D01*
X4587000Y-28248750D01*
X4333000Y-28248750D01*
X4174250Y-28090000D01*
X3910000Y-28086928D01*
X3785518Y-28099188D01*
X3665820Y-28135498D01*
X3555506Y-28194463D01*
X3458815Y-28273815D01*
X3379463Y-28370506D01*
X3320498Y-28480820D01*
X3284188Y-28600518D01*
X3271928Y-28725000D01*
X710000Y-28725000D01*
X710000Y-16493178D01*
X801745Y-16521008D01*
X974999Y-16538072D01*
X1588384Y-16538072D01*
X1475518Y-16549188D01*
X1355820Y-16585498D01*
X1245506Y-16644463D01*
X1148815Y-16723815D01*
X1069463Y-16820506D01*
X1010498Y-16930820D01*
X974188Y-17050518D01*
X961928Y-17175000D01*
X961928Y-26575000D01*
X974188Y-26699482D01*
X1010498Y-26819180D01*
X1069463Y-26929494D01*
X1148815Y-27026185D01*
X1245506Y-27105537D01*
X1355820Y-27164502D01*
X1475518Y-27200812D01*
X1600000Y-27213072D01*
X5857001Y-27213072D01*
X5857000Y-33943861D01*
X5851471Y-34000000D01*
X5857000Y-34056139D01*
X5857000Y-34056145D01*
X5862403Y-34111000D01*
X5873539Y-34224067D01*
X5883604Y-34257247D01*
X5938897Y-34439522D01*
X6045032Y-34638088D01*
X6187867Y-34812133D01*
X6231482Y-34847927D01*
X8245482Y-36861928D01*
X8000000Y-36861928D01*
X7875518Y-36874188D01*
X7755820Y-36910498D01*
X7645506Y-36969463D01*
X7548815Y-37048815D01*
X7469463Y-37145506D01*
X7410498Y-37255820D01*
X7374188Y-37375518D01*
X7361928Y-37500000D01*
X7361928Y-41000000D01*
X7374188Y-41124482D01*
X7410498Y-41244180D01*
X7469463Y-41354494D01*
X7548815Y-41451185D01*
X7645506Y-41530537D01*
X7707345Y-41563591D01*
X7035750Y-41565000D01*
X6877000Y-41723750D01*
X6877000Y-43823000D01*
X8976250Y-43823000D01*
X9135000Y-43664250D01*
X9138072Y-42200000D01*
X9125812Y-42075518D01*
X9089502Y-41955820D01*
X9030537Y-41845506D01*
X8951185Y-41748815D01*
X8854494Y-41669463D01*
X8795767Y-41638072D01*
X11500000Y-41638072D01*
X11624482Y-41625812D01*
X11744180Y-41589502D01*
X11854494Y-41530537D01*
X11951185Y-41451185D01*
X12030537Y-41354494D01*
X12089502Y-41244180D01*
X12125812Y-41124482D01*
X12138072Y-41000000D01*
X12138072Y-37500000D01*
X12125812Y-37375518D01*
X12125655Y-37375000D01*
X14161928Y-37375000D01*
X14161928Y-38625000D01*
X14178992Y-38798254D01*
X14229528Y-38964850D01*
X14311595Y-39118386D01*
X14422038Y-39252962D01*
X14556614Y-39363405D01*
X14710150Y-39445472D01*
X14876746Y-39496008D01*
X15050000Y-39513072D01*
X15850000Y-39513072D01*
X16023254Y-39496008D01*
X16189850Y-39445472D01*
X16343386Y-39363405D01*
X16477962Y-39252962D01*
X16588405Y-39118386D01*
X16670472Y-38964850D01*
X16721008Y-38798254D01*
X16738072Y-38625000D01*
X16738072Y-37375000D01*
X16721008Y-37201746D01*
X16670472Y-37035150D01*
X16588405Y-36881614D01*
X16477962Y-36747038D01*
X16343386Y-36636595D01*
X16210000Y-36565298D01*
X16210000Y-34969298D01*
X16238665Y-34975000D01*
X16521335Y-34975000D01*
X16798574Y-34919853D01*
X17059727Y-34811680D01*
X17294759Y-34654637D01*
X17494637Y-34454759D01*
X17651680Y-34219727D01*
X17759853Y-33958574D01*
X17815000Y-33681335D01*
X17815000Y-33398665D01*
X17759853Y-33121426D01*
X17651680Y-32860273D01*
X17494637Y-32625241D01*
X17294759Y-32425363D01*
X17059727Y-32268320D01*
X17049135Y-32263933D01*
X17235131Y-32152385D01*
X17443519Y-31963414D01*
X17611037Y-31737420D01*
X17731246Y-31483087D01*
X17771904Y-31349039D01*
X17649915Y-31127000D01*
X16507000Y-31127000D01*
X16507000Y-31147000D01*
X16253000Y-31147000D01*
X16253000Y-31127000D01*
X15110085Y-31127000D01*
X14988096Y-31349039D01*
X15028754Y-31483087D01*
X15148963Y-31737420D01*
X15316481Y-31963414D01*
X15524869Y-32152385D01*
X15710865Y-32263933D01*
X15700273Y-32268320D01*
X15465241Y-32425363D01*
X15265363Y-32625241D01*
X15108320Y-32860273D01*
X15000147Y-33121426D01*
X14945000Y-33398665D01*
X14945000Y-33681335D01*
X14994585Y-33930614D01*
X14938998Y-33986201D01*
X14910000Y-34009999D01*
X14886202Y-34038997D01*
X14886201Y-34038998D01*
X14815026Y-34125724D01*
X14744454Y-34257754D01*
X14700998Y-34401015D01*
X14686324Y-34550000D01*
X14690001Y-34587332D01*
X14690000Y-36565298D01*
X14556614Y-36636595D01*
X14422038Y-36747038D01*
X14311595Y-36881614D01*
X14229528Y-37035150D01*
X14178992Y-37201746D01*
X14161928Y-37375000D01*
X12125655Y-37375000D01*
X12089502Y-37255820D01*
X12030537Y-37145506D01*
X11951185Y-37048815D01*
X11854494Y-36969463D01*
X11744180Y-36910498D01*
X11624482Y-36874188D01*
X11500000Y-36861928D01*
X10893000Y-36861928D01*
X10893000Y-36806138D01*
X10898529Y-36749999D01*
X10893000Y-36693860D01*
X10893000Y-36693854D01*
X10876461Y-36525933D01*
X10811103Y-36310477D01*
X10704968Y-36111911D01*
X10647800Y-36042252D01*
X10597924Y-35981477D01*
X10597918Y-35981471D01*
X10562133Y-35937867D01*
X10518528Y-35902081D01*
X8143000Y-33526555D01*
X8143000Y-27213072D01*
X12400000Y-27213072D01*
X12524482Y-27200812D01*
X12644180Y-27164502D01*
X12754494Y-27105537D01*
X12851185Y-27026185D01*
X12930537Y-26929494D01*
X12989502Y-26819180D01*
X13025812Y-26699482D01*
X13038072Y-26575000D01*
X13038072Y-17175000D01*
X13025812Y-17050518D01*
X12989502Y-16930820D01*
X12930537Y-16820506D01*
X12851185Y-16723815D01*
X12754494Y-16644463D01*
X12644180Y-16585498D01*
X12524482Y-16549188D01*
X12400000Y-16536928D01*
X2286616Y-16536928D01*
X2448255Y-16521008D01*
X2614851Y-16470472D01*
X2768387Y-16388405D01*
X2902962Y-16277962D01*
X3013405Y-16143387D01*
X3095472Y-15989851D01*
X3146008Y-15823255D01*
X3163072Y-15650001D01*
X3163072Y-14949999D01*
X3146008Y-14776745D01*
X3095472Y-14610149D01*
X3013405Y-14456613D01*
X2902962Y-14322038D01*
X2876109Y-14300000D01*
X4086928Y-14300000D01*
X4099188Y-14424482D01*
X4135498Y-14544180D01*
X4194463Y-14654494D01*
X4273815Y-14751185D01*
X4370506Y-14830537D01*
X4480820Y-14889502D01*
X4600518Y-14925812D01*
X4725000Y-14938072D01*
X5214250Y-14935000D01*
X5373000Y-14776250D01*
X5373000Y-14127000D01*
X5627000Y-14127000D01*
X5627000Y-14776250D01*
X5785750Y-14935000D01*
X6275000Y-14938072D01*
X6399482Y-14925812D01*
X6519180Y-14889502D01*
X6629494Y-14830537D01*
X6726185Y-14751185D01*
X6805537Y-14654494D01*
X6864502Y-14544180D01*
X6900812Y-14424482D01*
X6913072Y-14300000D01*
X6910000Y-14285750D01*
X6751250Y-14127000D01*
X5627000Y-14127000D01*
X5373000Y-14127000D01*
X4248750Y-14127000D01*
X4090000Y-14285750D01*
X4086928Y-14300000D01*
X2876109Y-14300000D01*
X2768387Y-14211595D01*
X2614851Y-14129528D01*
X2448255Y-14078992D01*
X2275001Y-14061928D01*
X974999Y-14061928D01*
X801745Y-14078992D01*
X710000Y-14106822D01*
X710000Y-10893178D01*
X801745Y-10921008D01*
X974999Y-10938072D01*
X2275001Y-10938072D01*
X2448255Y-10921008D01*
X2542000Y-10892571D01*
X2542001Y-12281668D01*
X2538324Y-12319000D01*
X2552998Y-12467985D01*
X2596454Y-12611246D01*
X2667026Y-12743276D01*
X2738201Y-12830002D01*
X2762000Y-12859001D01*
X2790998Y-12882799D01*
X3373200Y-13465002D01*
X3396999Y-13494001D01*
X3425997Y-13517799D01*
X3512724Y-13588974D01*
X3644753Y-13659546D01*
X3788014Y-13703003D01*
X3937000Y-13717677D01*
X3974333Y-13714000D01*
X4089946Y-13714000D01*
X4090000Y-13714250D01*
X4248750Y-13873000D01*
X4563907Y-13873000D01*
X4573418Y-13878084D01*
X4721255Y-13922929D01*
X4875000Y-13938072D01*
X6125000Y-13938072D01*
X6278745Y-13922929D01*
X6426582Y-13878084D01*
X6436093Y-13873000D01*
X6751250Y-13873000D01*
X6910000Y-13714250D01*
X6913072Y-13700000D01*
X6900812Y-13575518D01*
X6864502Y-13455820D01*
X6856398Y-13440658D01*
X6897929Y-13303745D01*
X6913072Y-13150000D01*
X6913072Y-12850000D01*
X6904208Y-12760000D01*
X8917678Y-12760000D01*
X8955000Y-12763676D01*
X8992322Y-12760000D01*
X8992333Y-12760000D01*
X9103986Y-12749003D01*
X9247247Y-12705546D01*
X9379276Y-12634974D01*
X9495001Y-12540001D01*
X9518804Y-12510997D01*
X11421003Y-10608799D01*
X11450001Y-10585001D01*
X11544974Y-10469276D01*
X11615546Y-10337247D01*
X11654721Y-10208102D01*
X13357001Y-11755630D01*
%TA.AperFunction,Conductor*%
D28*
G36*
X13357001Y-11755630D02*
G01*
X13357000Y-24693861D01*
X13351471Y-24750000D01*
X13357000Y-24806139D01*
X13357000Y-24806145D01*
X13357001Y-24806155D01*
X13357000Y-26693861D01*
X13351471Y-26750000D01*
X13357000Y-26806139D01*
X13357000Y-26806145D01*
X13365151Y-26888898D01*
X13372154Y-26959999D01*
X13373539Y-26974066D01*
X13438897Y-27189522D01*
X13545032Y-27388088D01*
X13687867Y-27562133D01*
X13731482Y-27597927D01*
X14083554Y-27950000D01*
X12151555Y-29882000D01*
X10728072Y-29882000D01*
X10728072Y-28725000D01*
X10715812Y-28600518D01*
X10679502Y-28480820D01*
X10620537Y-28370506D01*
X10541185Y-28273815D01*
X10444494Y-28194463D01*
X10334180Y-28135498D01*
X10214482Y-28099188D01*
X10090000Y-28086928D01*
X8990000Y-28086928D01*
X8865518Y-28099188D01*
X8745820Y-28135498D01*
X8635506Y-28194463D01*
X8538815Y-28273815D01*
X8459463Y-28370506D01*
X8400498Y-28480820D01*
X8364188Y-28600518D01*
X8351928Y-28725000D01*
X8351928Y-33325000D01*
X8364188Y-33449482D01*
X8400498Y-33569180D01*
X8459463Y-33679494D01*
X8538815Y-33776185D01*
X8635506Y-33855537D01*
X8745820Y-33914502D01*
X8865518Y-33950812D01*
X8990000Y-33963072D01*
X10090000Y-33963072D01*
X10214482Y-33950812D01*
X10334180Y-33914502D01*
X10444494Y-33855537D01*
X10541185Y-33776185D01*
X10620537Y-33679494D01*
X10679502Y-33569180D01*
X10715812Y-33449482D01*
X10728072Y-33325000D01*
X10728072Y-32168000D01*
X12568861Y-32168000D01*
X12625000Y-32173529D01*
X12681139Y-32168000D01*
X12681146Y-32168000D01*
X12849067Y-32151461D01*
X13064523Y-32086103D01*
X13263089Y-31979968D01*
X13437133Y-31837133D01*
X13472927Y-31793518D01*
X14615484Y-30650961D01*
X14988096Y-30650961D01*
X15110085Y-30873000D01*
X16253000Y-30873000D01*
X16253000Y-29729376D01*
X16507000Y-29729376D01*
X16507000Y-30873000D01*
X17649915Y-30873000D01*
X17771904Y-30650961D01*
X17731246Y-30516913D01*
X17611037Y-30262580D01*
X17443519Y-30036586D01*
X17235131Y-29847615D01*
X16993881Y-29702930D01*
X16729040Y-29608091D01*
X16507000Y-29729376D01*
X16253000Y-29729376D01*
X16030960Y-29608091D01*
X15766119Y-29702930D01*
X15524869Y-29847615D01*
X15316481Y-30036586D01*
X15148963Y-30262580D01*
X15028754Y-30516913D01*
X14988096Y-30650961D01*
X14615484Y-30650961D01*
X16173446Y-29093000D01*
X21582199Y-29093000D01*
X20488998Y-30186201D01*
X20460000Y-30209999D01*
X20436202Y-30238997D01*
X20436201Y-30238998D01*
X20365026Y-30325724D01*
X20294454Y-30457754D01*
X20250998Y-30601015D01*
X20236324Y-30750000D01*
X20240001Y-30787332D01*
X20240000Y-36565298D01*
X20106614Y-36636595D01*
X19972038Y-36747038D01*
X19861595Y-36881614D01*
X19779528Y-37035150D01*
X19775000Y-37050077D01*
X19770472Y-37035150D01*
X19688405Y-36881614D01*
X19577962Y-36747038D01*
X19443386Y-36636595D01*
X19289850Y-36554528D01*
X19123254Y-36503992D01*
X18950000Y-36486928D01*
X18150000Y-36486928D01*
X17976746Y-36503992D01*
X17810150Y-36554528D01*
X17656614Y-36636595D01*
X17522038Y-36747038D01*
X17411595Y-36881614D01*
X17329528Y-37035150D01*
X17278992Y-37201746D01*
X17261928Y-37375000D01*
X17261928Y-38625000D01*
X17278992Y-38798254D01*
X17329528Y-38964850D01*
X17411595Y-39118386D01*
X17522038Y-39252962D01*
X17656614Y-39363405D01*
X17674270Y-39372842D01*
X17582795Y-39509744D01*
X17504774Y-39698102D01*
X17465000Y-39898061D01*
X17465000Y-40101939D01*
X17504774Y-40301898D01*
X17582795Y-40490256D01*
X17696063Y-40659774D01*
X17840226Y-40803937D01*
X18009744Y-40917205D01*
X18198102Y-40995226D01*
X18398061Y-41035000D01*
X18601939Y-41035000D01*
X18801898Y-40995226D01*
X18990256Y-40917205D01*
X19159774Y-40803937D01*
X19303937Y-40659774D01*
X19417205Y-40490256D01*
X19495226Y-40301898D01*
X19535000Y-40101939D01*
X19535000Y-39898061D01*
X19495226Y-39698102D01*
X19417205Y-39509744D01*
X19352047Y-39412227D01*
X19443386Y-39363405D01*
X19577962Y-39252962D01*
X19688405Y-39118386D01*
X19770472Y-38964850D01*
X19775000Y-38949923D01*
X19779528Y-38964850D01*
X19861595Y-39118386D01*
X19972038Y-39252962D01*
X20106614Y-39363405D01*
X20260150Y-39445472D01*
X20426746Y-39496008D01*
X20600000Y-39513072D01*
X21400000Y-39513072D01*
X21573254Y-39496008D01*
X21739850Y-39445472D01*
X21893386Y-39363405D01*
X22027962Y-39252962D01*
X22138405Y-39118386D01*
X22220472Y-38964850D01*
X22271008Y-38798254D01*
X22288072Y-38625000D01*
X22288072Y-37375000D01*
X22271008Y-37201746D01*
X22220472Y-37035150D01*
X22138405Y-36881614D01*
X22027962Y-36747038D01*
X21893386Y-36636595D01*
X21760000Y-36565298D01*
X21760000Y-31064801D01*
X22979178Y-29845624D01*
X22994066Y-29860512D01*
X23029857Y-29904123D01*
X23049973Y-29920631D01*
X22885363Y-30085241D01*
X22728320Y-30320273D01*
X22620147Y-30581426D01*
X22565000Y-30858665D01*
X22565000Y-31141335D01*
X22620147Y-31418574D01*
X22728320Y-31679727D01*
X22885363Y-31914759D01*
X23083961Y-32113357D01*
X23075518Y-32114188D01*
X22955820Y-32150498D01*
X22845506Y-32209463D01*
X22748815Y-32288815D01*
X22669463Y-32385506D01*
X22610498Y-32495820D01*
X22574188Y-32615518D01*
X22561928Y-32740000D01*
X22561928Y-34340000D01*
X22574188Y-34464482D01*
X22610498Y-34584180D01*
X22669463Y-34694494D01*
X22748815Y-34791185D01*
X22845506Y-34870537D01*
X22955820Y-34929502D01*
X23075518Y-34965812D01*
X23200000Y-34978072D01*
X23340001Y-34978072D01*
X23340000Y-36565298D01*
X23206614Y-36636595D01*
X23072038Y-36747038D01*
X22961595Y-36881614D01*
X22879528Y-37035150D01*
X22828992Y-37201746D01*
X22811928Y-37375000D01*
X22811928Y-38625000D01*
X22828992Y-38798254D01*
X22879528Y-38964850D01*
X22961595Y-39118386D01*
X23072038Y-39252962D01*
X23206614Y-39363405D01*
X23360150Y-39445472D01*
X23526746Y-39496008D01*
X23700000Y-39513072D01*
X24500000Y-39513072D01*
X24673254Y-39496008D01*
X24839850Y-39445472D01*
X24886056Y-39420774D01*
X24953042Y-39546098D01*
X25095877Y-39720143D01*
X25139492Y-39755938D01*
X30857001Y-45473447D01*
X30857000Y-51695986D01*
X30639017Y-51841637D01*
X30341637Y-52139017D01*
X30107988Y-52488698D01*
X29947047Y-52877244D01*
X29865000Y-53289721D01*
X29865000Y-53710279D01*
X29947047Y-54122756D01*
X30051140Y-54374059D01*
X29860198Y-54565001D01*
X29056971Y-54565001D01*
X29055000Y-53785750D01*
X28896250Y-53627000D01*
X27047000Y-53627000D01*
X27047000Y-53647000D01*
X26793000Y-53647000D01*
X26793000Y-53627000D01*
X24943750Y-53627000D01*
X24785000Y-53785750D01*
X24783029Y-54565001D01*
X23889804Y-54565001D01*
X22363803Y-53039002D01*
X22340001Y-53009999D01*
X22224276Y-52915026D01*
X22092247Y-52844454D01*
X21948986Y-52800997D01*
X21837333Y-52790000D01*
X21837322Y-52790000D01*
X21800000Y-52786324D01*
X21762678Y-52790000D01*
X19434702Y-52790000D01*
X19363405Y-52656614D01*
X19252962Y-52522038D01*
X19118386Y-52411595D01*
X18964850Y-52329528D01*
X18798254Y-52278992D01*
X18625000Y-52261928D01*
X17375000Y-52261928D01*
X17201746Y-52278992D01*
X17035150Y-52329528D01*
X16881614Y-52411595D01*
X16747038Y-52522038D01*
X16636595Y-52656614D01*
X16554528Y-52810150D01*
X16503992Y-52976746D01*
X16486928Y-53150000D01*
X16486928Y-53950000D01*
X16503992Y-54123254D01*
X16554528Y-54289850D01*
X16636595Y-54443386D01*
X16747038Y-54577962D01*
X16881614Y-54688405D01*
X17035150Y-54770472D01*
X17201746Y-54821008D01*
X17375000Y-54838072D01*
X18625000Y-54838072D01*
X18798254Y-54821008D01*
X18964850Y-54770472D01*
X19118386Y-54688405D01*
X19252962Y-54577962D01*
X19363405Y-54443386D01*
X19434702Y-54310000D01*
X21485199Y-54310000D01*
X22465198Y-55290000D01*
X5222915Y-55290000D01*
X5588966Y-55045412D01*
X6045412Y-54588966D01*
X6296958Y-54212500D01*
X12486928Y-54212500D01*
X12499188Y-54336982D01*
X12535498Y-54456680D01*
X12594463Y-54566994D01*
X12673815Y-54663685D01*
X12770506Y-54743037D01*
X12880820Y-54802002D01*
X13000518Y-54838312D01*
X13125000Y-54850572D01*
X13714250Y-54847500D01*
X13873000Y-54688750D01*
X13873000Y-53627000D01*
X14127000Y-53627000D01*
X14127000Y-54688750D01*
X14285750Y-54847500D01*
X14875000Y-54850572D01*
X14999482Y-54838312D01*
X15119180Y-54802002D01*
X15229494Y-54743037D01*
X15326185Y-54663685D01*
X15405537Y-54566994D01*
X15464502Y-54456680D01*
X15500812Y-54336982D01*
X15513072Y-54212500D01*
X15510000Y-53785750D01*
X15351250Y-53627000D01*
X14127000Y-53627000D01*
X13873000Y-53627000D01*
X12648750Y-53627000D01*
X12490000Y-53785750D01*
X12486928Y-54212500D01*
X6296958Y-54212500D01*
X6404040Y-54052242D01*
X6651067Y-53455866D01*
X6777000Y-52822756D01*
X6777000Y-52787500D01*
X12486928Y-52787500D01*
X12490000Y-53214250D01*
X12648750Y-53373000D01*
X13873000Y-53373000D01*
X13873000Y-52311250D01*
X14127000Y-52311250D01*
X14127000Y-53373000D01*
X15351250Y-53373000D01*
X15510000Y-53214250D01*
X15513072Y-52787500D01*
X15500812Y-52663018D01*
X15464502Y-52543320D01*
X15405537Y-52433006D01*
X15326185Y-52336315D01*
X15229494Y-52256963D01*
X15119180Y-52197998D01*
X14999482Y-52161688D01*
X14875000Y-52149428D01*
X14285750Y-52152500D01*
X14127000Y-52311250D01*
X13873000Y-52311250D01*
X13714250Y-52152500D01*
X13125000Y-52149428D01*
X13000518Y-52161688D01*
X12880820Y-52197998D01*
X12770506Y-52256963D01*
X12673815Y-52336315D01*
X12594463Y-52433006D01*
X12535498Y-52543320D01*
X12499188Y-52663018D01*
X12486928Y-52787500D01*
X6777000Y-52787500D01*
X6777000Y-52177244D01*
X6741745Y-52000000D01*
X24781928Y-52000000D01*
X24785000Y-53214250D01*
X24943750Y-53373000D01*
X26793000Y-53373000D01*
X26793000Y-51523750D01*
X27047000Y-51523750D01*
X27047000Y-53373000D01*
X28896250Y-53373000D01*
X29055000Y-53214250D01*
X29058072Y-52000000D01*
X29045812Y-51875518D01*
X29009502Y-51755820D01*
X28950537Y-51645506D01*
X28871185Y-51548815D01*
X28774494Y-51469463D01*
X28664180Y-51410498D01*
X28544482Y-51374188D01*
X28420000Y-51361928D01*
X27205750Y-51365000D01*
X27047000Y-51523750D01*
X26793000Y-51523750D01*
X26634250Y-51365000D01*
X25420000Y-51361928D01*
X25295518Y-51374188D01*
X25175820Y-51410498D01*
X25065506Y-51469463D01*
X24968815Y-51548815D01*
X24889463Y-51645506D01*
X24830498Y-51755820D01*
X24794188Y-51875518D01*
X24781928Y-52000000D01*
X6741745Y-52000000D01*
X6651067Y-51544134D01*
X6404040Y-50947758D01*
X6045412Y-50411034D01*
X5696878Y-50062500D01*
X12486928Y-50062500D01*
X12486928Y-50987500D01*
X12503992Y-51160754D01*
X12554528Y-51327350D01*
X12636595Y-51480886D01*
X12747038Y-51615462D01*
X12881614Y-51725905D01*
X13035150Y-51807972D01*
X13201746Y-51858508D01*
X13375000Y-51875572D01*
X14625000Y-51875572D01*
X14798254Y-51858508D01*
X14964850Y-51807972D01*
X15118386Y-51725905D01*
X15252962Y-51615462D01*
X15363405Y-51480886D01*
X15445472Y-51327350D01*
X15458319Y-51285000D01*
X16605387Y-51285000D01*
X16636595Y-51343386D01*
X16747038Y-51477962D01*
X16881614Y-51588405D01*
X17035150Y-51670472D01*
X17201746Y-51721008D01*
X17375000Y-51738072D01*
X18625000Y-51738072D01*
X18798254Y-51721008D01*
X18964850Y-51670472D01*
X19118386Y-51588405D01*
X19252962Y-51477962D01*
X19363405Y-51343386D01*
X19445472Y-51189850D01*
X19496008Y-51023254D01*
X19513072Y-50850000D01*
X19513072Y-50050000D01*
X19496008Y-49876746D01*
X19445472Y-49710150D01*
X19363405Y-49556614D01*
X19252962Y-49422038D01*
X19118386Y-49311595D01*
X18964850Y-49229528D01*
X18798254Y-49178992D01*
X18625000Y-49161928D01*
X17375000Y-49161928D01*
X17201746Y-49178992D01*
X17035150Y-49229528D01*
X16881614Y-49311595D01*
X16747038Y-49422038D01*
X16636595Y-49556614D01*
X16554528Y-49710150D01*
X16537890Y-49765000D01*
X15458319Y-49765000D01*
X15445472Y-49722650D01*
X15363405Y-49569114D01*
X15252962Y-49434538D01*
X15118386Y-49324095D01*
X14964850Y-49242028D01*
X14798254Y-49191492D01*
X14625000Y-49174428D01*
X13375000Y-49174428D01*
X13201746Y-49191492D01*
X13035150Y-49242028D01*
X12881614Y-49324095D01*
X12747038Y-49434538D01*
X12636595Y-49569114D01*
X12554528Y-49722650D01*
X12503992Y-49889246D01*
X12486928Y-50062500D01*
X5696878Y-50062500D01*
X5588966Y-49954588D01*
X5052242Y-49595960D01*
X4455866Y-49348933D01*
X3822756Y-49223000D01*
X3177244Y-49223000D01*
X2544134Y-49348933D01*
X1947758Y-49595960D01*
X1411034Y-49954588D01*
X954588Y-50411034D01*
X710000Y-50777085D01*
X710000Y-45700000D01*
X4361928Y-45700000D01*
X4374188Y-45824482D01*
X4410498Y-45944180D01*
X4469463Y-46054494D01*
X4548815Y-46151185D01*
X4645506Y-46230537D01*
X4755820Y-46289502D01*
X4875518Y-46325812D01*
X5000000Y-46338072D01*
X6464250Y-46335000D01*
X6623000Y-46176250D01*
X6623000Y-44077000D01*
X6877000Y-44077000D01*
X6877000Y-46176250D01*
X7035750Y-46335000D01*
X8500000Y-46338072D01*
X8624482Y-46325812D01*
X8744180Y-46289502D01*
X8854494Y-46230537D01*
X8951185Y-46151185D01*
X9030537Y-46054494D01*
X9089502Y-45944180D01*
X9125812Y-45824482D01*
X9138072Y-45700000D01*
X9135000Y-44235750D01*
X8976250Y-44077000D01*
X6877000Y-44077000D01*
X6623000Y-44077000D01*
X4523750Y-44077000D01*
X4365000Y-44235750D01*
X4361928Y-45700000D01*
X710000Y-45700000D01*
X710000Y-41000000D01*
X1611928Y-41000000D01*
X1624188Y-41124482D01*
X1660498Y-41244180D01*
X1719463Y-41354494D01*
X1798815Y-41451185D01*
X1895506Y-41530537D01*
X2005820Y-41589502D01*
X2125518Y-41625812D01*
X2250000Y-41638072D01*
X3464250Y-41635000D01*
X3623000Y-41476250D01*
X3623000Y-39377000D01*
X3877000Y-39377000D01*
X3877000Y-41476250D01*
X4035750Y-41635000D01*
X4706805Y-41636698D01*
X4645506Y-41669463D01*
X4548815Y-41748815D01*
X4469463Y-41845506D01*
X4410498Y-41955820D01*
X4374188Y-42075518D01*
X4361928Y-42200000D01*
X4365000Y-43664250D01*
X4523750Y-43823000D01*
X6623000Y-43823000D01*
X6623000Y-41723750D01*
X6464250Y-41565000D01*
X5543633Y-41563069D01*
X5604494Y-41530537D01*
X5701185Y-41451185D01*
X5780537Y-41354494D01*
X5839502Y-41244180D01*
X5875812Y-41124482D01*
X5888072Y-41000000D01*
X5885000Y-39535750D01*
X5726250Y-39377000D01*
X3877000Y-39377000D01*
X3623000Y-39377000D01*
X1773750Y-39377000D01*
X1615000Y-39535750D01*
X1611928Y-41000000D01*
X710000Y-41000000D01*
X710000Y-37500000D01*
X1611928Y-37500000D01*
X1615000Y-38964250D01*
X1773750Y-39123000D01*
X3623000Y-39123000D01*
X3623000Y-37023750D01*
X3877000Y-37023750D01*
X3877000Y-39123000D01*
X5726250Y-39123000D01*
X5885000Y-38964250D01*
X5888072Y-37500000D01*
X5875812Y-37375518D01*
X5839502Y-37255820D01*
X5780537Y-37145506D01*
X5701185Y-37048815D01*
X5604494Y-36969463D01*
X5494180Y-36910498D01*
X5374482Y-36874188D01*
X5250000Y-36861928D01*
X4035750Y-36865000D01*
X3877000Y-37023750D01*
X3623000Y-37023750D01*
X3464250Y-36865000D01*
X2250000Y-36861928D01*
X2125518Y-36874188D01*
X2005820Y-36910498D01*
X1895506Y-36969463D01*
X1798815Y-37048815D01*
X1719463Y-37145506D01*
X1660498Y-37255820D01*
X1624188Y-37375518D01*
X1611928Y-37500000D01*
X710000Y-37500000D01*
X710000Y-33325000D01*
X3271928Y-33325000D01*
X3284188Y-33449482D01*
X3320498Y-33569180D01*
X3379463Y-33679494D01*
X3458815Y-33776185D01*
X3555506Y-33855537D01*
X3665820Y-33914502D01*
X3785518Y-33950812D01*
X3910000Y-33963072D01*
X4174250Y-33960000D01*
X4333000Y-33801250D01*
X4333000Y-31152000D01*
X4587000Y-31152000D01*
X4587000Y-33801250D01*
X4745750Y-33960000D01*
X5010000Y-33963072D01*
X5134482Y-33950812D01*
X5254180Y-33914502D01*
X5364494Y-33855537D01*
X5461185Y-33776185D01*
X5540537Y-33679494D01*
X5599502Y-33569180D01*
X5635812Y-33449482D01*
X5648072Y-33325000D01*
X5645000Y-31310750D01*
X5486250Y-31152000D01*
X4587000Y-31152000D01*
X4333000Y-31152000D01*
X3433750Y-31152000D01*
X3275000Y-31310750D01*
X3271928Y-33325000D01*
X710000Y-33325000D01*
X710000Y-28725000D01*
X3271928Y-28725000D01*
X3275000Y-30739250D01*
X3433750Y-30898000D01*
X4333000Y-30898000D01*
X4333000Y-28248750D01*
X4587000Y-28248750D01*
X4587000Y-30898000D01*
X5486250Y-30898000D01*
X5645000Y-30739250D01*
X5648072Y-28725000D01*
X5635812Y-28600518D01*
X5599502Y-28480820D01*
X5540537Y-28370506D01*
X5461185Y-28273815D01*
X5364494Y-28194463D01*
X5254180Y-28135498D01*
X5134482Y-28099188D01*
X5010000Y-28086928D01*
X4745750Y-28090000D01*
X4587000Y-28248750D01*
X4333000Y-28248750D01*
X4174250Y-28090000D01*
X3910000Y-28086928D01*
X3785518Y-28099188D01*
X3665820Y-28135498D01*
X3555506Y-28194463D01*
X3458815Y-28273815D01*
X3379463Y-28370506D01*
X3320498Y-28480820D01*
X3284188Y-28600518D01*
X3271928Y-28725000D01*
X710000Y-28725000D01*
X710000Y-16493178D01*
X801745Y-16521008D01*
X974999Y-16538072D01*
X1588384Y-16538072D01*
X1475518Y-16549188D01*
X1355820Y-16585498D01*
X1245506Y-16644463D01*
X1148815Y-16723815D01*
X1069463Y-16820506D01*
X1010498Y-16930820D01*
X974188Y-17050518D01*
X961928Y-17175000D01*
X961928Y-26575000D01*
X974188Y-26699482D01*
X1010498Y-26819180D01*
X1069463Y-26929494D01*
X1148815Y-27026185D01*
X1245506Y-27105537D01*
X1355820Y-27164502D01*
X1475518Y-27200812D01*
X1600000Y-27213072D01*
X5857001Y-27213072D01*
X5857000Y-33943861D01*
X5851471Y-34000000D01*
X5857000Y-34056139D01*
X5857000Y-34056145D01*
X5862403Y-34111000D01*
X5873539Y-34224067D01*
X5883604Y-34257247D01*
X5938897Y-34439522D01*
X6045032Y-34638088D01*
X6187867Y-34812133D01*
X6231482Y-34847927D01*
X8245482Y-36861928D01*
X8000000Y-36861928D01*
X7875518Y-36874188D01*
X7755820Y-36910498D01*
X7645506Y-36969463D01*
X7548815Y-37048815D01*
X7469463Y-37145506D01*
X7410498Y-37255820D01*
X7374188Y-37375518D01*
X7361928Y-37500000D01*
X7361928Y-41000000D01*
X7374188Y-41124482D01*
X7410498Y-41244180D01*
X7469463Y-41354494D01*
X7548815Y-41451185D01*
X7645506Y-41530537D01*
X7707345Y-41563591D01*
X7035750Y-41565000D01*
X6877000Y-41723750D01*
X6877000Y-43823000D01*
X8976250Y-43823000D01*
X9135000Y-43664250D01*
X9138072Y-42200000D01*
X9125812Y-42075518D01*
X9089502Y-41955820D01*
X9030537Y-41845506D01*
X8951185Y-41748815D01*
X8854494Y-41669463D01*
X8795767Y-41638072D01*
X11500000Y-41638072D01*
X11624482Y-41625812D01*
X11744180Y-41589502D01*
X11854494Y-41530537D01*
X11951185Y-41451185D01*
X12030537Y-41354494D01*
X12089502Y-41244180D01*
X12125812Y-41124482D01*
X12138072Y-41000000D01*
X12138072Y-37500000D01*
X12125812Y-37375518D01*
X12125655Y-37375000D01*
X14161928Y-37375000D01*
X14161928Y-38625000D01*
X14178992Y-38798254D01*
X14229528Y-38964850D01*
X14311595Y-39118386D01*
X14422038Y-39252962D01*
X14556614Y-39363405D01*
X14710150Y-39445472D01*
X14876746Y-39496008D01*
X15050000Y-39513072D01*
X15850000Y-39513072D01*
X16023254Y-39496008D01*
X16189850Y-39445472D01*
X16343386Y-39363405D01*
X16477962Y-39252962D01*
X16588405Y-39118386D01*
X16670472Y-38964850D01*
X16721008Y-38798254D01*
X16738072Y-38625000D01*
X16738072Y-37375000D01*
X16721008Y-37201746D01*
X16670472Y-37035150D01*
X16588405Y-36881614D01*
X16477962Y-36747038D01*
X16343386Y-36636595D01*
X16210000Y-36565298D01*
X16210000Y-34969298D01*
X16238665Y-34975000D01*
X16521335Y-34975000D01*
X16798574Y-34919853D01*
X17059727Y-34811680D01*
X17294759Y-34654637D01*
X17494637Y-34454759D01*
X17651680Y-34219727D01*
X17759853Y-33958574D01*
X17815000Y-33681335D01*
X17815000Y-33398665D01*
X17759853Y-33121426D01*
X17651680Y-32860273D01*
X17494637Y-32625241D01*
X17294759Y-32425363D01*
X17059727Y-32268320D01*
X17049135Y-32263933D01*
X17235131Y-32152385D01*
X17443519Y-31963414D01*
X17611037Y-31737420D01*
X17731246Y-31483087D01*
X17771904Y-31349039D01*
X17649915Y-31127000D01*
X16507000Y-31127000D01*
X16507000Y-31147000D01*
X16253000Y-31147000D01*
X16253000Y-31127000D01*
X15110085Y-31127000D01*
X14988096Y-31349039D01*
X15028754Y-31483087D01*
X15148963Y-31737420D01*
X15316481Y-31963414D01*
X15524869Y-32152385D01*
X15710865Y-32263933D01*
X15700273Y-32268320D01*
X15465241Y-32425363D01*
X15265363Y-32625241D01*
X15108320Y-32860273D01*
X15000147Y-33121426D01*
X14945000Y-33398665D01*
X14945000Y-33681335D01*
X14994585Y-33930614D01*
X14938998Y-33986201D01*
X14910000Y-34009999D01*
X14886202Y-34038997D01*
X14886201Y-34038998D01*
X14815026Y-34125724D01*
X14744454Y-34257754D01*
X14700998Y-34401015D01*
X14686324Y-34550000D01*
X14690001Y-34587332D01*
X14690000Y-36565298D01*
X14556614Y-36636595D01*
X14422038Y-36747038D01*
X14311595Y-36881614D01*
X14229528Y-37035150D01*
X14178992Y-37201746D01*
X14161928Y-37375000D01*
X12125655Y-37375000D01*
X12089502Y-37255820D01*
X12030537Y-37145506D01*
X11951185Y-37048815D01*
X11854494Y-36969463D01*
X11744180Y-36910498D01*
X11624482Y-36874188D01*
X11500000Y-36861928D01*
X10893000Y-36861928D01*
X10893000Y-36806138D01*
X10898529Y-36749999D01*
X10893000Y-36693860D01*
X10893000Y-36693854D01*
X10876461Y-36525933D01*
X10811103Y-36310477D01*
X10704968Y-36111911D01*
X10647800Y-36042252D01*
X10597924Y-35981477D01*
X10597918Y-35981471D01*
X10562133Y-35937867D01*
X10518528Y-35902081D01*
X8143000Y-33526555D01*
X8143000Y-27213072D01*
X12400000Y-27213072D01*
X12524482Y-27200812D01*
X12644180Y-27164502D01*
X12754494Y-27105537D01*
X12851185Y-27026185D01*
X12930537Y-26929494D01*
X12989502Y-26819180D01*
X13025812Y-26699482D01*
X13038072Y-26575000D01*
X13038072Y-17175000D01*
X13025812Y-17050518D01*
X12989502Y-16930820D01*
X12930537Y-16820506D01*
X12851185Y-16723815D01*
X12754494Y-16644463D01*
X12644180Y-16585498D01*
X12524482Y-16549188D01*
X12400000Y-16536928D01*
X2286616Y-16536928D01*
X2448255Y-16521008D01*
X2614851Y-16470472D01*
X2768387Y-16388405D01*
X2902962Y-16277962D01*
X3013405Y-16143387D01*
X3095472Y-15989851D01*
X3146008Y-15823255D01*
X3163072Y-15650001D01*
X3163072Y-14949999D01*
X3146008Y-14776745D01*
X3095472Y-14610149D01*
X3013405Y-14456613D01*
X2902962Y-14322038D01*
X2876109Y-14300000D01*
X4086928Y-14300000D01*
X4099188Y-14424482D01*
X4135498Y-14544180D01*
X4194463Y-14654494D01*
X4273815Y-14751185D01*
X4370506Y-14830537D01*
X4480820Y-14889502D01*
X4600518Y-14925812D01*
X4725000Y-14938072D01*
X5214250Y-14935000D01*
X5373000Y-14776250D01*
X5373000Y-14127000D01*
X5627000Y-14127000D01*
X5627000Y-14776250D01*
X5785750Y-14935000D01*
X6275000Y-14938072D01*
X6399482Y-14925812D01*
X6519180Y-14889502D01*
X6629494Y-14830537D01*
X6726185Y-14751185D01*
X6805537Y-14654494D01*
X6864502Y-14544180D01*
X6900812Y-14424482D01*
X6913072Y-14300000D01*
X6910000Y-14285750D01*
X6751250Y-14127000D01*
X5627000Y-14127000D01*
X5373000Y-14127000D01*
X4248750Y-14127000D01*
X4090000Y-14285750D01*
X4086928Y-14300000D01*
X2876109Y-14300000D01*
X2768387Y-14211595D01*
X2614851Y-14129528D01*
X2448255Y-14078992D01*
X2275001Y-14061928D01*
X974999Y-14061928D01*
X801745Y-14078992D01*
X710000Y-14106822D01*
X710000Y-10893178D01*
X801745Y-10921008D01*
X974999Y-10938072D01*
X2275001Y-10938072D01*
X2448255Y-10921008D01*
X2542000Y-10892571D01*
X2542001Y-12281668D01*
X2538324Y-12319000D01*
X2552998Y-12467985D01*
X2596454Y-12611246D01*
X2667026Y-12743276D01*
X2738201Y-12830002D01*
X2762000Y-12859001D01*
X2790998Y-12882799D01*
X3373200Y-13465002D01*
X3396999Y-13494001D01*
X3425997Y-13517799D01*
X3512724Y-13588974D01*
X3644753Y-13659546D01*
X3788014Y-13703003D01*
X3937000Y-13717677D01*
X3974333Y-13714000D01*
X4089946Y-13714000D01*
X4090000Y-13714250D01*
X4248750Y-13873000D01*
X4563907Y-13873000D01*
X4573418Y-13878084D01*
X4721255Y-13922929D01*
X4875000Y-13938072D01*
X6125000Y-13938072D01*
X6278745Y-13922929D01*
X6426582Y-13878084D01*
X6436093Y-13873000D01*
X6751250Y-13873000D01*
X6910000Y-13714250D01*
X6913072Y-13700000D01*
X6900812Y-13575518D01*
X6864502Y-13455820D01*
X6856398Y-13440658D01*
X6897929Y-13303745D01*
X6913072Y-13150000D01*
X6913072Y-12850000D01*
X6904208Y-12760000D01*
X8917678Y-12760000D01*
X8955000Y-12763676D01*
X8992322Y-12760000D01*
X8992333Y-12760000D01*
X9103986Y-12749003D01*
X9247247Y-12705546D01*
X9379276Y-12634974D01*
X9495001Y-12540001D01*
X9518804Y-12510997D01*
X11421003Y-10608799D01*
X11450001Y-10585001D01*
X11544974Y-10469276D01*
X11615546Y-10337247D01*
X11654721Y-10208102D01*
X13357001Y-11755630D01*
G37*
%TD.AperFunction*%
D27*
X18657000Y-4643000D02*
X18677000Y-4643000D01*
X18677000Y-4897000D01*
X18657000Y-4897000D01*
X18657000Y-6090155D01*
X18886890Y-6211476D01*
X19034099Y-6166825D01*
X19296920Y-6041641D01*
X19530269Y-5867588D01*
X19725178Y-5651355D01*
X19794805Y-5534466D01*
X19916525Y-5716632D01*
X20123368Y-5923475D01*
X20366589Y-6085990D01*
X20636842Y-6197932D01*
X20923740Y-6255000D01*
X21216260Y-6255000D01*
X21503158Y-6197932D01*
X21773411Y-6085990D01*
X22016632Y-5923475D01*
X22223475Y-5716632D01*
X22340000Y-5542240D01*
X22456525Y-5716632D01*
X22663368Y-5923475D01*
X22906589Y-6085990D01*
X23176842Y-6197932D01*
X23463740Y-6255000D01*
X23756260Y-6255000D01*
X24043158Y-6197932D01*
X24215000Y-6126753D01*
X24214999Y-15072333D01*
X24051898Y-15004774D01*
X23851939Y-14965000D01*
X23648061Y-14965000D01*
X23448102Y-15004774D01*
X23259744Y-15082795D01*
X23090226Y-15196063D01*
X23046289Y-15240000D01*
X22774776Y-15240000D01*
X22771008Y-15201746D01*
X22720472Y-15035150D01*
X22638405Y-14881614D01*
X22527962Y-14747038D01*
X22393386Y-14636595D01*
X22239850Y-14554528D01*
X22073254Y-14503992D01*
X21900000Y-14486928D01*
X21100000Y-14486928D01*
X20926746Y-14503992D01*
X20760150Y-14554528D01*
X20606614Y-14636595D01*
X20472038Y-14747038D01*
X20361595Y-14881614D01*
X20279528Y-15035150D01*
X20228992Y-15201746D01*
X20211928Y-15375000D01*
X20211928Y-16625000D01*
X20228992Y-16798254D01*
X20279528Y-16964850D01*
X20361595Y-17118386D01*
X20472038Y-17252962D01*
X20606614Y-17363405D01*
X20760150Y-17445472D01*
X20900078Y-17487918D01*
X20762500Y-17486928D01*
X20638018Y-17499188D01*
X20518320Y-17535498D01*
X20408006Y-17594463D01*
X20311315Y-17673815D01*
X20231963Y-17770506D01*
X20172998Y-17880820D01*
X20136688Y-18000518D01*
X20124428Y-18125000D01*
X20127500Y-18714250D01*
X20286250Y-18873000D01*
X21348000Y-18873000D01*
X21348000Y-18853000D01*
X21602000Y-18853000D01*
X21602000Y-18873000D01*
X22663750Y-18873000D01*
X22822500Y-18714250D01*
X22825572Y-18125000D01*
X22813312Y-18000518D01*
X22777002Y-17880820D01*
X22718037Y-17770506D01*
X22638685Y-17673815D01*
X22541994Y-17594463D01*
X22431680Y-17535498D01*
X22311982Y-17499188D01*
X22187500Y-17486928D01*
X22101138Y-17487550D01*
X22239850Y-17445472D01*
X22393386Y-17363405D01*
X22527962Y-17252962D01*
X22638405Y-17118386D01*
X22720472Y-16964850D01*
X22771008Y-16798254D01*
X22774776Y-16760000D01*
X23046289Y-16760000D01*
X23090226Y-16803937D01*
X23259744Y-16917205D01*
X23448102Y-16995226D01*
X23648061Y-17035000D01*
X23851939Y-17035000D01*
X24051898Y-16995226D01*
X24214999Y-16927667D01*
X24214999Y-18187677D01*
X24211323Y-18224999D01*
X24214999Y-18262321D01*
X24214999Y-18262331D01*
X24225996Y-18373984D01*
X24268772Y-18514999D01*
X24269453Y-18517245D01*
X24340025Y-18649275D01*
X24379870Y-18697825D01*
X24434998Y-18765000D01*
X24464002Y-18788803D01*
X27915198Y-22240000D01*
X23287325Y-22240000D01*
X23250000Y-22236324D01*
X23212675Y-22240000D01*
X23212667Y-22240000D01*
X23101014Y-22250997D01*
X22957753Y-22294454D01*
X22825724Y-22365026D01*
X22709999Y-22459999D01*
X22686196Y-22489003D01*
X22238998Y-22936201D01*
X22210000Y-22959999D01*
X22186202Y-22988997D01*
X22186201Y-22988998D01*
X22115026Y-23075724D01*
X22044454Y-23207754D01*
X22043188Y-23211928D01*
X21000000Y-23211928D01*
X20875518Y-23224188D01*
X20755820Y-23260498D01*
X20645506Y-23319463D01*
X20548815Y-23398815D01*
X20469463Y-23495506D01*
X20410498Y-23605820D01*
X20374188Y-23725518D01*
X20361928Y-23850000D01*
X20361928Y-26150000D01*
X20374188Y-26274482D01*
X20410498Y-26394180D01*
X20469463Y-26504494D01*
X20548815Y-26601185D01*
X20645506Y-26680537D01*
X20755820Y-26739502D01*
X20875518Y-26775812D01*
X21000000Y-26788072D01*
X24500000Y-26788072D01*
X24624482Y-26775812D01*
X24744180Y-26739502D01*
X24854494Y-26680537D01*
X24951185Y-26601185D01*
X25030537Y-26504494D01*
X25089502Y-26394180D01*
X25125812Y-26274482D01*
X25138072Y-26150000D01*
X25138072Y-23850000D01*
X25129208Y-23760000D01*
X26289807Y-23760000D01*
X26281928Y-23840000D01*
X26281928Y-25840000D01*
X26294188Y-25964482D01*
X26330498Y-26084180D01*
X26389463Y-26194494D01*
X26468815Y-26291185D01*
X26565506Y-26370537D01*
X26611630Y-26395191D01*
X26471082Y-26605537D01*
X26347832Y-26903088D01*
X26314899Y-27068655D01*
X25434565Y-27948990D01*
X24315435Y-27948990D01*
X23547928Y-27181483D01*
X23512133Y-27137867D01*
X23338089Y-26995032D01*
X23139523Y-26888897D01*
X22924067Y-26823539D01*
X22756146Y-26807000D01*
X22756139Y-26807000D01*
X22700000Y-26801471D01*
X22643861Y-26807000D01*
X16173446Y-26807000D01*
X16154518Y-26788072D01*
X19100000Y-26788072D01*
X19224482Y-26775812D01*
X19344180Y-26739502D01*
X19454494Y-26680537D01*
X19551185Y-26601185D01*
X19630537Y-26504494D01*
X19689502Y-26394180D01*
X19725812Y-26274482D01*
X19738072Y-26150000D01*
X19738072Y-23850000D01*
X19725812Y-23725518D01*
X19689502Y-23605820D01*
X19630537Y-23495506D01*
X19551185Y-23398815D01*
X19454494Y-23319463D01*
X19344180Y-23260498D01*
X19224482Y-23224188D01*
X19100000Y-23211928D01*
X15643000Y-23211928D01*
X15643000Y-15375000D01*
X17111928Y-15375000D01*
X17111928Y-16625000D01*
X17128992Y-16798254D01*
X17179528Y-16964850D01*
X17261595Y-17118386D01*
X17372038Y-17252962D01*
X17506614Y-17363405D01*
X17660150Y-17445472D01*
X17740001Y-17469694D01*
X17740000Y-17541681D01*
X17697650Y-17554528D01*
X17544114Y-17636595D01*
X17409538Y-17747038D01*
X17299095Y-17881614D01*
X17217028Y-18035150D01*
X17166492Y-18201746D01*
X17149428Y-18375000D01*
X17149428Y-19625000D01*
X17166492Y-19798254D01*
X17217028Y-19964850D01*
X17299095Y-20118386D01*
X17409538Y-20252962D01*
X17544114Y-20363405D01*
X17697650Y-20445472D01*
X17864246Y-20496008D01*
X18037500Y-20513072D01*
X18962500Y-20513072D01*
X19135754Y-20496008D01*
X19302350Y-20445472D01*
X19455886Y-20363405D01*
X19590462Y-20252962D01*
X19700905Y-20118386D01*
X19782972Y-19964850D01*
X19810227Y-19875000D01*
X20124428Y-19875000D01*
X20136688Y-19999482D01*
X20172998Y-20119180D01*
X20231963Y-20229494D01*
X20311315Y-20326185D01*
X20408006Y-20405537D01*
X20518320Y-20464502D01*
X20638018Y-20500812D01*
X20762500Y-20513072D01*
X21189250Y-20510000D01*
X21348000Y-20351250D01*
X21348000Y-19127000D01*
X21602000Y-19127000D01*
X21602000Y-20351250D01*
X21760750Y-20510000D01*
X22187500Y-20513072D01*
X22311982Y-20500812D01*
X22431680Y-20464502D01*
X22541994Y-20405537D01*
X22638685Y-20326185D01*
X22718037Y-20229494D01*
X22777002Y-20119180D01*
X22813312Y-19999482D01*
X22825572Y-19875000D01*
X22822500Y-19285750D01*
X22663750Y-19127000D01*
X21602000Y-19127000D01*
X21348000Y-19127000D01*
X20286250Y-19127000D01*
X20127500Y-19285750D01*
X20124428Y-19875000D01*
X19810227Y-19875000D01*
X19833508Y-19798254D01*
X19850572Y-19625000D01*
X19850572Y-18375000D01*
X19833508Y-18201746D01*
X19782972Y-18035150D01*
X19700905Y-17881614D01*
X19590462Y-17747038D01*
X19455886Y-17636595D01*
X19302350Y-17554528D01*
X19260000Y-17541681D01*
X19260000Y-17381250D01*
X19293386Y-17363405D01*
X19427962Y-17252962D01*
X19538405Y-17118386D01*
X19620472Y-16964850D01*
X19671008Y-16798254D01*
X19688072Y-16625000D01*
X19688072Y-15375000D01*
X19671008Y-15201746D01*
X19620472Y-15035150D01*
X19538405Y-14881614D01*
X19427962Y-14747038D01*
X19293386Y-14636595D01*
X19139850Y-14554528D01*
X18973254Y-14503992D01*
X18800000Y-14486928D01*
X18000000Y-14486928D01*
X17826746Y-14503992D01*
X17660150Y-14554528D01*
X17506614Y-14636595D01*
X17372038Y-14747038D01*
X17261595Y-14881614D01*
X17179528Y-15035150D01*
X17128992Y-15201746D01*
X17111928Y-15375000D01*
X15643000Y-15375000D01*
X15643000Y-11278896D01*
X15647229Y-11195369D01*
X15634830Y-11110908D01*
X15626461Y-11025933D01*
X15618507Y-10999714D01*
X15614528Y-10972605D01*
X15585887Y-10892178D01*
X15561103Y-10810477D01*
X15548186Y-10786310D01*
X15538995Y-10760502D01*
X15495222Y-10687221D01*
X15454968Y-10611911D01*
X15437582Y-10590726D01*
X15423535Y-10567210D01*
X15366300Y-10503869D01*
X15312133Y-10437867D01*
X15247475Y-10384803D01*
X13127000Y-8457099D01*
X13127000Y-6219844D01*
X13303740Y-6255000D01*
X13596260Y-6255000D01*
X13883158Y-6197932D01*
X14153411Y-6085990D01*
X14396632Y-5923475D01*
X14603475Y-5716632D01*
X14720000Y-5542240D01*
X14836525Y-5716632D01*
X15043368Y-5923475D01*
X15286589Y-6085990D01*
X15556842Y-6197932D01*
X15843740Y-6255000D01*
X16136260Y-6255000D01*
X16423158Y-6197932D01*
X16693411Y-6085990D01*
X16936632Y-5923475D01*
X17143475Y-5716632D01*
X17265195Y-5534466D01*
X17334822Y-5651355D01*
X17529731Y-5867588D01*
X17763080Y-6041641D01*
X18025901Y-6166825D01*
X18173110Y-6211476D01*
X18403000Y-6090155D01*
X18403000Y-4897000D01*
X18383000Y-4897000D01*
X18383000Y-4643000D01*
X18403000Y-4643000D01*
X18403000Y-4623000D01*
X18657000Y-4623000D01*
X18657000Y-4643000D01*
%TA.AperFunction,Conductor*%
D28*
G36*
X18657000Y-4643000D02*
G01*
X18677000Y-4643000D01*
X18677000Y-4897000D01*
X18657000Y-4897000D01*
X18657000Y-6090155D01*
X18886890Y-6211476D01*
X19034099Y-6166825D01*
X19296920Y-6041641D01*
X19530269Y-5867588D01*
X19725178Y-5651355D01*
X19794805Y-5534466D01*
X19916525Y-5716632D01*
X20123368Y-5923475D01*
X20366589Y-6085990D01*
X20636842Y-6197932D01*
X20923740Y-6255000D01*
X21216260Y-6255000D01*
X21503158Y-6197932D01*
X21773411Y-6085990D01*
X22016632Y-5923475D01*
X22223475Y-5716632D01*
X22340000Y-5542240D01*
X22456525Y-5716632D01*
X22663368Y-5923475D01*
X22906589Y-6085990D01*
X23176842Y-6197932D01*
X23463740Y-6255000D01*
X23756260Y-6255000D01*
X24043158Y-6197932D01*
X24215000Y-6126753D01*
X24214999Y-15072333D01*
X24051898Y-15004774D01*
X23851939Y-14965000D01*
X23648061Y-14965000D01*
X23448102Y-15004774D01*
X23259744Y-15082795D01*
X23090226Y-15196063D01*
X23046289Y-15240000D01*
X22774776Y-15240000D01*
X22771008Y-15201746D01*
X22720472Y-15035150D01*
X22638405Y-14881614D01*
X22527962Y-14747038D01*
X22393386Y-14636595D01*
X22239850Y-14554528D01*
X22073254Y-14503992D01*
X21900000Y-14486928D01*
X21100000Y-14486928D01*
X20926746Y-14503992D01*
X20760150Y-14554528D01*
X20606614Y-14636595D01*
X20472038Y-14747038D01*
X20361595Y-14881614D01*
X20279528Y-15035150D01*
X20228992Y-15201746D01*
X20211928Y-15375000D01*
X20211928Y-16625000D01*
X20228992Y-16798254D01*
X20279528Y-16964850D01*
X20361595Y-17118386D01*
X20472038Y-17252962D01*
X20606614Y-17363405D01*
X20760150Y-17445472D01*
X20900078Y-17487918D01*
X20762500Y-17486928D01*
X20638018Y-17499188D01*
X20518320Y-17535498D01*
X20408006Y-17594463D01*
X20311315Y-17673815D01*
X20231963Y-17770506D01*
X20172998Y-17880820D01*
X20136688Y-18000518D01*
X20124428Y-18125000D01*
X20127500Y-18714250D01*
X20286250Y-18873000D01*
X21348000Y-18873000D01*
X21348000Y-18853000D01*
X21602000Y-18853000D01*
X21602000Y-18873000D01*
X22663750Y-18873000D01*
X22822500Y-18714250D01*
X22825572Y-18125000D01*
X22813312Y-18000518D01*
X22777002Y-17880820D01*
X22718037Y-17770506D01*
X22638685Y-17673815D01*
X22541994Y-17594463D01*
X22431680Y-17535498D01*
X22311982Y-17499188D01*
X22187500Y-17486928D01*
X22101138Y-17487550D01*
X22239850Y-17445472D01*
X22393386Y-17363405D01*
X22527962Y-17252962D01*
X22638405Y-17118386D01*
X22720472Y-16964850D01*
X22771008Y-16798254D01*
X22774776Y-16760000D01*
X23046289Y-16760000D01*
X23090226Y-16803937D01*
X23259744Y-16917205D01*
X23448102Y-16995226D01*
X23648061Y-17035000D01*
X23851939Y-17035000D01*
X24051898Y-16995226D01*
X24214999Y-16927667D01*
X24214999Y-18187677D01*
X24211323Y-18224999D01*
X24214999Y-18262321D01*
X24214999Y-18262331D01*
X24225996Y-18373984D01*
X24268772Y-18514999D01*
X24269453Y-18517245D01*
X24340025Y-18649275D01*
X24379870Y-18697825D01*
X24434998Y-18765000D01*
X24464002Y-18788803D01*
X27915198Y-22240000D01*
X23287325Y-22240000D01*
X23250000Y-22236324D01*
X23212675Y-22240000D01*
X23212667Y-22240000D01*
X23101014Y-22250997D01*
X22957753Y-22294454D01*
X22825724Y-22365026D01*
X22709999Y-22459999D01*
X22686196Y-22489003D01*
X22238998Y-22936201D01*
X22210000Y-22959999D01*
X22186202Y-22988997D01*
X22186201Y-22988998D01*
X22115026Y-23075724D01*
X22044454Y-23207754D01*
X22043188Y-23211928D01*
X21000000Y-23211928D01*
X20875518Y-23224188D01*
X20755820Y-23260498D01*
X20645506Y-23319463D01*
X20548815Y-23398815D01*
X20469463Y-23495506D01*
X20410498Y-23605820D01*
X20374188Y-23725518D01*
X20361928Y-23850000D01*
X20361928Y-26150000D01*
X20374188Y-26274482D01*
X20410498Y-26394180D01*
X20469463Y-26504494D01*
X20548815Y-26601185D01*
X20645506Y-26680537D01*
X20755820Y-26739502D01*
X20875518Y-26775812D01*
X21000000Y-26788072D01*
X24500000Y-26788072D01*
X24624482Y-26775812D01*
X24744180Y-26739502D01*
X24854494Y-26680537D01*
X24951185Y-26601185D01*
X25030537Y-26504494D01*
X25089502Y-26394180D01*
X25125812Y-26274482D01*
X25138072Y-26150000D01*
X25138072Y-23850000D01*
X25129208Y-23760000D01*
X26289807Y-23760000D01*
X26281928Y-23840000D01*
X26281928Y-25840000D01*
X26294188Y-25964482D01*
X26330498Y-26084180D01*
X26389463Y-26194494D01*
X26468815Y-26291185D01*
X26565506Y-26370537D01*
X26611630Y-26395191D01*
X26471082Y-26605537D01*
X26347832Y-26903088D01*
X26314899Y-27068655D01*
X25434565Y-27948990D01*
X24315435Y-27948990D01*
X23547928Y-27181483D01*
X23512133Y-27137867D01*
X23338089Y-26995032D01*
X23139523Y-26888897D01*
X22924067Y-26823539D01*
X22756146Y-26807000D01*
X22756139Y-26807000D01*
X22700000Y-26801471D01*
X22643861Y-26807000D01*
X16173446Y-26807000D01*
X16154518Y-26788072D01*
X19100000Y-26788072D01*
X19224482Y-26775812D01*
X19344180Y-26739502D01*
X19454494Y-26680537D01*
X19551185Y-26601185D01*
X19630537Y-26504494D01*
X19689502Y-26394180D01*
X19725812Y-26274482D01*
X19738072Y-26150000D01*
X19738072Y-23850000D01*
X19725812Y-23725518D01*
X19689502Y-23605820D01*
X19630537Y-23495506D01*
X19551185Y-23398815D01*
X19454494Y-23319463D01*
X19344180Y-23260498D01*
X19224482Y-23224188D01*
X19100000Y-23211928D01*
X15643000Y-23211928D01*
X15643000Y-15375000D01*
X17111928Y-15375000D01*
X17111928Y-16625000D01*
X17128992Y-16798254D01*
X17179528Y-16964850D01*
X17261595Y-17118386D01*
X17372038Y-17252962D01*
X17506614Y-17363405D01*
X17660150Y-17445472D01*
X17740001Y-17469694D01*
X17740000Y-17541681D01*
X17697650Y-17554528D01*
X17544114Y-17636595D01*
X17409538Y-17747038D01*
X17299095Y-17881614D01*
X17217028Y-18035150D01*
X17166492Y-18201746D01*
X17149428Y-18375000D01*
X17149428Y-19625000D01*
X17166492Y-19798254D01*
X17217028Y-19964850D01*
X17299095Y-20118386D01*
X17409538Y-20252962D01*
X17544114Y-20363405D01*
X17697650Y-20445472D01*
X17864246Y-20496008D01*
X18037500Y-20513072D01*
X18962500Y-20513072D01*
X19135754Y-20496008D01*
X19302350Y-20445472D01*
X19455886Y-20363405D01*
X19590462Y-20252962D01*
X19700905Y-20118386D01*
X19782972Y-19964850D01*
X19810227Y-19875000D01*
X20124428Y-19875000D01*
X20136688Y-19999482D01*
X20172998Y-20119180D01*
X20231963Y-20229494D01*
X20311315Y-20326185D01*
X20408006Y-20405537D01*
X20518320Y-20464502D01*
X20638018Y-20500812D01*
X20762500Y-20513072D01*
X21189250Y-20510000D01*
X21348000Y-20351250D01*
X21348000Y-19127000D01*
X21602000Y-19127000D01*
X21602000Y-20351250D01*
X21760750Y-20510000D01*
X22187500Y-20513072D01*
X22311982Y-20500812D01*
X22431680Y-20464502D01*
X22541994Y-20405537D01*
X22638685Y-20326185D01*
X22718037Y-20229494D01*
X22777002Y-20119180D01*
X22813312Y-19999482D01*
X22825572Y-19875000D01*
X22822500Y-19285750D01*
X22663750Y-19127000D01*
X21602000Y-19127000D01*
X21348000Y-19127000D01*
X20286250Y-19127000D01*
X20127500Y-19285750D01*
X20124428Y-19875000D01*
X19810227Y-19875000D01*
X19833508Y-19798254D01*
X19850572Y-19625000D01*
X19850572Y-18375000D01*
X19833508Y-18201746D01*
X19782972Y-18035150D01*
X19700905Y-17881614D01*
X19590462Y-17747038D01*
X19455886Y-17636595D01*
X19302350Y-17554528D01*
X19260000Y-17541681D01*
X19260000Y-17381250D01*
X19293386Y-17363405D01*
X19427962Y-17252962D01*
X19538405Y-17118386D01*
X19620472Y-16964850D01*
X19671008Y-16798254D01*
X19688072Y-16625000D01*
X19688072Y-15375000D01*
X19671008Y-15201746D01*
X19620472Y-15035150D01*
X19538405Y-14881614D01*
X19427962Y-14747038D01*
X19293386Y-14636595D01*
X19139850Y-14554528D01*
X18973254Y-14503992D01*
X18800000Y-14486928D01*
X18000000Y-14486928D01*
X17826746Y-14503992D01*
X17660150Y-14554528D01*
X17506614Y-14636595D01*
X17372038Y-14747038D01*
X17261595Y-14881614D01*
X17179528Y-15035150D01*
X17128992Y-15201746D01*
X17111928Y-15375000D01*
X15643000Y-15375000D01*
X15643000Y-11278896D01*
X15647229Y-11195369D01*
X15634830Y-11110908D01*
X15626461Y-11025933D01*
X15618507Y-10999714D01*
X15614528Y-10972605D01*
X15585887Y-10892178D01*
X15561103Y-10810477D01*
X15548186Y-10786310D01*
X15538995Y-10760502D01*
X15495222Y-10687221D01*
X15454968Y-10611911D01*
X15437582Y-10590726D01*
X15423535Y-10567210D01*
X15366300Y-10503869D01*
X15312133Y-10437867D01*
X15247475Y-10384803D01*
X13127000Y-8457099D01*
X13127000Y-6219844D01*
X13303740Y-6255000D01*
X13596260Y-6255000D01*
X13883158Y-6197932D01*
X14153411Y-6085990D01*
X14396632Y-5923475D01*
X14603475Y-5716632D01*
X14720000Y-5542240D01*
X14836525Y-5716632D01*
X15043368Y-5923475D01*
X15286589Y-6085990D01*
X15556842Y-6197932D01*
X15843740Y-6255000D01*
X16136260Y-6255000D01*
X16423158Y-6197932D01*
X16693411Y-6085990D01*
X16936632Y-5923475D01*
X17143475Y-5716632D01*
X17265195Y-5534466D01*
X17334822Y-5651355D01*
X17529731Y-5867588D01*
X17763080Y-6041641D01*
X18025901Y-6166825D01*
X18173110Y-6211476D01*
X18403000Y-6090155D01*
X18403000Y-4897000D01*
X18383000Y-4897000D01*
X18383000Y-4643000D01*
X18403000Y-4643000D01*
X18403000Y-4623000D01*
X18657000Y-4623000D01*
X18657000Y-4643000D01*
G37*
%TD.AperFunction*%
D27*
X59411034Y-954588D02*
X58954588Y-1411034D01*
X58595960Y-1947758D01*
X58348933Y-2544134D01*
X58223000Y-3177244D01*
X58223000Y-3822756D01*
X58348933Y-4455866D01*
X58595960Y-5052242D01*
X58954588Y-5588966D01*
X59411034Y-6045412D01*
X59947758Y-6404040D01*
X60544134Y-6651067D01*
X61177244Y-6777000D01*
X61822756Y-6777000D01*
X62455866Y-6651067D01*
X63052242Y-6404040D01*
X63588966Y-6045412D01*
X64045412Y-5588966D01*
X64290000Y-5222915D01*
X64290000Y-11859636D01*
X64204494Y-11789463D01*
X64094180Y-11730498D01*
X63974482Y-11694188D01*
X63850000Y-11681928D01*
X62150000Y-11681928D01*
X62025518Y-11694188D01*
X61905820Y-11730498D01*
X61795506Y-11789463D01*
X61698815Y-11868815D01*
X61619463Y-11965506D01*
X61560498Y-12075820D01*
X61524188Y-12195518D01*
X61511928Y-12320000D01*
X61511928Y-14020000D01*
X61524188Y-14144482D01*
X61560498Y-14264180D01*
X61619463Y-14374494D01*
X61698815Y-14471185D01*
X61795506Y-14550537D01*
X61905820Y-14609502D01*
X61978380Y-14631513D01*
X61846525Y-14763368D01*
X61684010Y-15006589D01*
X61572068Y-15276842D01*
X61515000Y-15563740D01*
X61515000Y-15856260D01*
X61572068Y-16143158D01*
X61684010Y-16413411D01*
X61846525Y-16656632D01*
X62053368Y-16863475D01*
X62235534Y-16985195D01*
X62118645Y-17054822D01*
X61902412Y-17249731D01*
X61728359Y-17483080D01*
X61603175Y-17745901D01*
X61558524Y-17893110D01*
X61679845Y-18123000D01*
X62873000Y-18123000D01*
X62873000Y-18103000D01*
X63127000Y-18103000D01*
X63127000Y-18123000D01*
X63147000Y-18123000D01*
X63147000Y-18377000D01*
X63127000Y-18377000D01*
X63127000Y-19570814D01*
X63356891Y-19691481D01*
X63631252Y-19594157D01*
X63881355Y-19445178D01*
X64097588Y-19250269D01*
X64271641Y-19016920D01*
X64290000Y-18978375D01*
X64290000Y-20581334D01*
X64239850Y-20554528D01*
X64073254Y-20503992D01*
X63900000Y-20486928D01*
X63100000Y-20486928D01*
X62926746Y-20503992D01*
X62760150Y-20554528D01*
X62606614Y-20636595D01*
X62472038Y-20747038D01*
X62361595Y-20881614D01*
X62279528Y-21035150D01*
X62228992Y-21201746D01*
X62211928Y-21375000D01*
X62211928Y-22625000D01*
X62228992Y-22798254D01*
X62279528Y-22964850D01*
X62361595Y-23118386D01*
X62472038Y-23252962D01*
X62481795Y-23260970D01*
X62352259Y-23390506D01*
X62318342Y-23418341D01*
X62290507Y-23452258D01*
X62290505Y-23452260D01*
X62207248Y-23553709D01*
X62124698Y-23708148D01*
X62073864Y-23875726D01*
X62056700Y-24050000D01*
X62061001Y-24093669D01*
X62061001Y-24144892D01*
X62019463Y-24195506D01*
X62000000Y-24231918D01*
X61980537Y-24195506D01*
X61901185Y-24098815D01*
X61804494Y-24019463D01*
X61694180Y-23960498D01*
X61574482Y-23924188D01*
X61450000Y-23911928D01*
X61335750Y-23915000D01*
X61177000Y-24073750D01*
X61177000Y-24873000D01*
X61197000Y-24873000D01*
X61197000Y-25127000D01*
X61177000Y-25127000D01*
X61177000Y-25926250D01*
X61261607Y-26010857D01*
X61245506Y-26019463D01*
X61148815Y-26098815D01*
X61138815Y-26111000D01*
X59043239Y-26111000D01*
X59042252Y-26110013D01*
X58933400Y-26037280D01*
X58955808Y-25975413D01*
X58000000Y-25019605D01*
X57044192Y-25975413D01*
X57066600Y-26037280D01*
X56957748Y-26110013D01*
X56730013Y-26337748D01*
X56628281Y-26490000D01*
X56564801Y-26490000D01*
X56510000Y-26435199D01*
X56510000Y-25531317D01*
X56600186Y-25700044D01*
X56864587Y-25795808D01*
X57820395Y-24840000D01*
X58179605Y-24840000D01*
X59135413Y-25795808D01*
X59399814Y-25700044D01*
X59521453Y-25450000D01*
X60011928Y-25450000D01*
X60024188Y-25574482D01*
X60060498Y-25694180D01*
X60119463Y-25804494D01*
X60198815Y-25901185D01*
X60295506Y-25980537D01*
X60405820Y-26039502D01*
X60525518Y-26075812D01*
X60650000Y-26088072D01*
X60764250Y-26085000D01*
X60923000Y-25926250D01*
X60923000Y-25127000D01*
X60173750Y-25127000D01*
X60015000Y-25285750D01*
X60011928Y-25450000D01*
X59521453Y-25450000D01*
X59540704Y-25410429D01*
X59622384Y-25098892D01*
X59641718Y-24777405D01*
X59610533Y-24550000D01*
X60011928Y-24550000D01*
X60015000Y-24714250D01*
X60173750Y-24873000D01*
X60923000Y-24873000D01*
X60923000Y-24073750D01*
X60764250Y-23915000D01*
X60650000Y-23911928D01*
X60525518Y-23924188D01*
X60405820Y-23960498D01*
X60295506Y-24019463D01*
X60198815Y-24098815D01*
X60119463Y-24195506D01*
X60060498Y-24305820D01*
X60024188Y-24425518D01*
X60011928Y-24550000D01*
X59610533Y-24550000D01*
X59597961Y-24458325D01*
X59492795Y-24153912D01*
X59399814Y-23979956D01*
X59135413Y-23884192D01*
X58179605Y-24840000D01*
X57820395Y-24840000D01*
X56864587Y-23884192D01*
X56600186Y-23979956D01*
X56510000Y-24165343D01*
X56510000Y-23787322D01*
X56513676Y-23749999D01*
X56510000Y-23712676D01*
X56510000Y-23712667D01*
X56509205Y-23704587D01*
X57044192Y-23704587D01*
X58000000Y-24660395D01*
X58955808Y-23704587D01*
X58860044Y-23440186D01*
X58570429Y-23299296D01*
X58258892Y-23217616D01*
X57937405Y-23198282D01*
X57618325Y-23242039D01*
X57313912Y-23347205D01*
X57139956Y-23440186D01*
X57044192Y-23704587D01*
X56509205Y-23704587D01*
X56499003Y-23601014D01*
X56455546Y-23457753D01*
X56384974Y-23325724D01*
X56290001Y-23209999D01*
X56261004Y-23186202D01*
X55563803Y-22489002D01*
X55540001Y-22459999D01*
X55424276Y-22365026D01*
X55292247Y-22294454D01*
X55148986Y-22250997D01*
X55037333Y-22240000D01*
X55037322Y-22240000D01*
X55000000Y-22236324D01*
X54962678Y-22240000D01*
X48287322Y-22240000D01*
X48249999Y-22236324D01*
X48212676Y-22240000D01*
X48212667Y-22240000D01*
X48101014Y-22250997D01*
X47965032Y-22292246D01*
X47957753Y-22294454D01*
X47825723Y-22365026D01*
X47742083Y-22433668D01*
X47709999Y-22459999D01*
X47686200Y-22488998D01*
X47138998Y-23036201D01*
X47110000Y-23059999D01*
X47086202Y-23088997D01*
X47086201Y-23088998D01*
X47015026Y-23175724D01*
X46995674Y-23211928D01*
X45900000Y-23211928D01*
X45775518Y-23224188D01*
X45655820Y-23260498D01*
X45545506Y-23319463D01*
X45448815Y-23398815D01*
X45369463Y-23495506D01*
X45310498Y-23605820D01*
X45274188Y-23725518D01*
X45261928Y-23850000D01*
X45261928Y-26150000D01*
X45274188Y-26274482D01*
X45310498Y-26394180D01*
X45369463Y-26504494D01*
X45448815Y-26601185D01*
X45545506Y-26680537D01*
X45655820Y-26739502D01*
X45775518Y-26775812D01*
X45900000Y-26788072D01*
X49400000Y-26788072D01*
X49524482Y-26775812D01*
X49644180Y-26739502D01*
X49754494Y-26680537D01*
X49851185Y-26601185D01*
X49930537Y-26504494D01*
X49989502Y-26394180D01*
X50025812Y-26274482D01*
X50038072Y-26150000D01*
X50038072Y-23850000D01*
X50029208Y-23760000D01*
X51289807Y-23760000D01*
X51281928Y-23840000D01*
X51281928Y-25840000D01*
X51294188Y-25964482D01*
X51330498Y-26084180D01*
X51389463Y-26194494D01*
X51468815Y-26291185D01*
X51565506Y-26370537D01*
X51611630Y-26395191D01*
X51471082Y-26605537D01*
X51347832Y-26903088D01*
X51285000Y-27218967D01*
X51285000Y-27398554D01*
X50738554Y-27945001D01*
X43393000Y-27945001D01*
X43393000Y-26788072D01*
X44000000Y-26788072D01*
X44124482Y-26775812D01*
X44244180Y-26739502D01*
X44354494Y-26680537D01*
X44451185Y-26601185D01*
X44530537Y-26504494D01*
X44589502Y-26394180D01*
X44625812Y-26274482D01*
X44638072Y-26150000D01*
X44638072Y-23850000D01*
X44625812Y-23725518D01*
X44589502Y-23605820D01*
X44530537Y-23495506D01*
X44451185Y-23398815D01*
X44354494Y-23319463D01*
X44244180Y-23260498D01*
X44124482Y-23224188D01*
X44000000Y-23211928D01*
X40500000Y-23211928D01*
X40375518Y-23224188D01*
X40255820Y-23260498D01*
X40145506Y-23319463D01*
X40048815Y-23398815D01*
X39969463Y-23495506D01*
X39910498Y-23605820D01*
X39874188Y-23725518D01*
X39861928Y-23850000D01*
X39861928Y-26150000D01*
X39874188Y-26274482D01*
X39910498Y-26394180D01*
X39969463Y-26504494D01*
X40048815Y-26601185D01*
X40145506Y-26680537D01*
X40255820Y-26739502D01*
X40375518Y-26775812D01*
X40500000Y-26788072D01*
X41107000Y-26788072D01*
X41107001Y-27945001D01*
X37797795Y-27945001D01*
X37851185Y-27901185D01*
X37930537Y-27804494D01*
X37989502Y-27694180D01*
X38025812Y-27574482D01*
X38038072Y-27450000D01*
X38038072Y-26550000D01*
X38025812Y-26425518D01*
X37989502Y-26305820D01*
X37930537Y-26195506D01*
X37851185Y-26098815D01*
X37838095Y-26088072D01*
X38350000Y-26088072D01*
X38474482Y-26075812D01*
X38594180Y-26039502D01*
X38704494Y-25980537D01*
X38801185Y-25901185D01*
X38880537Y-25804494D01*
X38939502Y-25694180D01*
X38975812Y-25574482D01*
X38988072Y-25450000D01*
X38988072Y-24550000D01*
X38975812Y-24425518D01*
X38942275Y-24314960D01*
X39097737Y-24159498D01*
X39131659Y-24131659D01*
X39242753Y-23996291D01*
X39325303Y-23841851D01*
X39350132Y-23760000D01*
X39376136Y-23674276D01*
X39382878Y-23605820D01*
X39389000Y-23543667D01*
X39389000Y-23543661D01*
X39393300Y-23500001D01*
X39389000Y-23456341D01*
X39389000Y-23342475D01*
X39443386Y-23313405D01*
X39577962Y-23202962D01*
X39688405Y-23068386D01*
X39770472Y-22914850D01*
X39821008Y-22748254D01*
X39838072Y-22575000D01*
X39838072Y-21325000D01*
X39831670Y-21260000D01*
X56185199Y-21260000D01*
X57436201Y-22511003D01*
X57459999Y-22540001D01*
X57575724Y-22634974D01*
X57707753Y-22705546D01*
X57851014Y-22749003D01*
X57962667Y-22760000D01*
X57962676Y-22760000D01*
X57999999Y-22763676D01*
X58037322Y-22760000D01*
X59125224Y-22760000D01*
X59128992Y-22798254D01*
X59179528Y-22964850D01*
X59261595Y-23118386D01*
X59372038Y-23252962D01*
X59506614Y-23363405D01*
X59660150Y-23445472D01*
X59826746Y-23496008D01*
X60000000Y-23513072D01*
X60800000Y-23513072D01*
X60973254Y-23496008D01*
X61139850Y-23445472D01*
X61293386Y-23363405D01*
X61427962Y-23252962D01*
X61538405Y-23118386D01*
X61620472Y-22964850D01*
X61671008Y-22798254D01*
X61688072Y-22625000D01*
X61688072Y-21375000D01*
X61671008Y-21201746D01*
X61620472Y-21035150D01*
X61538405Y-20881614D01*
X61427962Y-20747038D01*
X61293386Y-20636595D01*
X61139850Y-20554528D01*
X60973254Y-20503992D01*
X60800000Y-20486928D01*
X60000000Y-20486928D01*
X59826746Y-20503992D01*
X59660150Y-20554528D01*
X59506614Y-20636595D01*
X59372038Y-20747038D01*
X59261595Y-20881614D01*
X59179528Y-21035150D01*
X59128992Y-21201746D01*
X59125224Y-21240000D01*
X58314802Y-21240000D01*
X57063804Y-19989003D01*
X57040001Y-19959999D01*
X56924276Y-19865026D01*
X56792247Y-19794454D01*
X56648986Y-19750997D01*
X56537333Y-19740000D01*
X56537322Y-19740000D01*
X56500000Y-19736324D01*
X56462678Y-19740000D01*
X47324868Y-19740000D01*
X47322500Y-19285750D01*
X47163750Y-19127000D01*
X46102000Y-19127000D01*
X46102000Y-19147000D01*
X45848000Y-19147000D01*
X45848000Y-19127000D01*
X44786250Y-19127000D01*
X44627500Y-19285750D01*
X44625132Y-19740000D01*
X44339246Y-19740000D01*
X44350572Y-19625000D01*
X44350572Y-18375000D01*
X44333508Y-18201746D01*
X44310228Y-18125000D01*
X44624428Y-18125000D01*
X44627500Y-18714250D01*
X44786250Y-18873000D01*
X45848000Y-18873000D01*
X45848000Y-17648750D01*
X46102000Y-17648750D01*
X46102000Y-18873000D01*
X47163750Y-18873000D01*
X47322500Y-18714250D01*
X47323059Y-18606890D01*
X61558524Y-18606890D01*
X61603175Y-18754099D01*
X61728359Y-19016920D01*
X61902412Y-19250269D01*
X62118645Y-19445178D01*
X62368748Y-19594157D01*
X62643109Y-19691481D01*
X62873000Y-19570814D01*
X62873000Y-18377000D01*
X61679845Y-18377000D01*
X61558524Y-18606890D01*
X47323059Y-18606890D01*
X47325572Y-18125000D01*
X47313312Y-18000518D01*
X47277002Y-17880820D01*
X47218037Y-17770506D01*
X47138685Y-17673815D01*
X47041994Y-17594463D01*
X46931680Y-17535498D01*
X46811982Y-17499188D01*
X46687500Y-17486928D01*
X46260750Y-17490000D01*
X46102000Y-17648750D01*
X45848000Y-17648750D01*
X45689250Y-17490000D01*
X45262500Y-17486928D01*
X45138018Y-17499188D01*
X45018320Y-17535498D01*
X44908006Y-17594463D01*
X44811315Y-17673815D01*
X44731963Y-17770506D01*
X44672998Y-17880820D01*
X44636688Y-18000518D01*
X44624428Y-18125000D01*
X44310228Y-18125000D01*
X44282972Y-18035150D01*
X44200905Y-17881614D01*
X44090462Y-17747038D01*
X43955886Y-17636595D01*
X43802350Y-17554528D01*
X43760000Y-17541681D01*
X43760000Y-17157976D01*
X43843386Y-17113405D01*
X43977962Y-17002962D01*
X44088405Y-16868386D01*
X44170472Y-16714850D01*
X44221008Y-16548254D01*
X44238072Y-16375000D01*
X44238072Y-15125000D01*
X44221008Y-14951746D01*
X44170472Y-14785150D01*
X44088405Y-14631614D01*
X43977962Y-14497038D01*
X43843386Y-14386595D01*
X43689850Y-14304528D01*
X43523254Y-14253992D01*
X43350000Y-14236928D01*
X42550000Y-14236928D01*
X42376746Y-14253992D01*
X42210150Y-14304528D01*
X42056614Y-14386595D01*
X41922038Y-14497038D01*
X41811595Y-14631614D01*
X41729528Y-14785150D01*
X41678992Y-14951746D01*
X41661928Y-15125000D01*
X41661928Y-16375000D01*
X41678992Y-16548254D01*
X41729528Y-16714850D01*
X41811595Y-16868386D01*
X41922038Y-17002962D01*
X42056614Y-17113405D01*
X42210150Y-17195472D01*
X42240001Y-17204527D01*
X42240000Y-17541681D01*
X42197650Y-17554528D01*
X42044114Y-17636595D01*
X41909538Y-17747038D01*
X41799095Y-17881614D01*
X41717028Y-18035150D01*
X41666492Y-18201746D01*
X41649428Y-18375000D01*
X41649428Y-19625000D01*
X41660754Y-19740000D01*
X29814802Y-19740000D01*
X28274999Y-18200198D01*
X28274999Y-16923524D01*
X28448102Y-16995226D01*
X28648061Y-17035000D01*
X28851939Y-17035000D01*
X29051898Y-16995226D01*
X29240256Y-16917205D01*
X29409774Y-16803937D01*
X29453711Y-16760000D01*
X38212678Y-16760000D01*
X38250000Y-16763676D01*
X38287322Y-16760000D01*
X38287333Y-16760000D01*
X38398986Y-16749003D01*
X38542247Y-16705546D01*
X38674276Y-16634974D01*
X38790001Y-16540001D01*
X38813804Y-16510997D01*
X45806002Y-9518800D01*
X45835000Y-9495002D01*
X45914607Y-9398001D01*
X45929973Y-9379278D01*
X46000545Y-9247248D01*
X46002896Y-9239497D01*
X46044002Y-9103987D01*
X46054999Y-8992334D01*
X46054999Y-8992325D01*
X46058675Y-8955002D01*
X46054999Y-8917679D01*
X46054999Y-6201544D01*
X46323740Y-6255000D01*
X46616260Y-6255000D01*
X46903158Y-6197932D01*
X47173411Y-6085990D01*
X47416632Y-5923475D01*
X47623475Y-5716632D01*
X47740000Y-5542240D01*
X47856525Y-5716632D01*
X48063368Y-5923475D01*
X48240001Y-6041497D01*
X48240000Y-10185198D01*
X45538998Y-12886201D01*
X45510000Y-12909999D01*
X45486202Y-12938997D01*
X45486201Y-12938998D01*
X45415026Y-13025724D01*
X45344454Y-13157754D01*
X45300998Y-13301015D01*
X45286324Y-13450000D01*
X45290001Y-13487332D01*
X45290001Y-14315298D01*
X45156614Y-14386595D01*
X45022038Y-14497038D01*
X44911595Y-14631614D01*
X44829528Y-14785150D01*
X44778992Y-14951746D01*
X44761928Y-15125000D01*
X44761928Y-16375000D01*
X44778992Y-16548254D01*
X44829528Y-16714850D01*
X44911595Y-16868386D01*
X45022038Y-17002962D01*
X45156614Y-17113405D01*
X45310150Y-17195472D01*
X45476746Y-17246008D01*
X45650000Y-17263072D01*
X46450000Y-17263072D01*
X46623254Y-17246008D01*
X46789850Y-17195472D01*
X46943386Y-17113405D01*
X47077962Y-17002962D01*
X47188405Y-16868386D01*
X47270472Y-16714850D01*
X47321008Y-16548254D01*
X47338072Y-16375000D01*
X47338072Y-15125000D01*
X47321008Y-14951746D01*
X47270472Y-14785150D01*
X47188405Y-14631614D01*
X47077962Y-14497038D01*
X46943386Y-14386595D01*
X46810000Y-14315298D01*
X46810000Y-13764801D01*
X49511004Y-11063798D01*
X49540001Y-11040001D01*
X49572829Y-11000000D01*
X49634974Y-10924277D01*
X49705546Y-10792247D01*
X49706711Y-10788405D01*
X49749003Y-10648986D01*
X49760000Y-10537333D01*
X49760000Y-10537323D01*
X49763676Y-10500001D01*
X49760000Y-10462678D01*
X49760000Y-6054860D01*
X49956632Y-5923475D01*
X50163475Y-5716632D01*
X50280000Y-5542240D01*
X50396525Y-5716632D01*
X50603368Y-5923475D01*
X50846589Y-6085990D01*
X51116842Y-6197932D01*
X51403740Y-6255000D01*
X51696260Y-6255000D01*
X51983158Y-6197932D01*
X52253411Y-6085990D01*
X52496632Y-5923475D01*
X52703475Y-5716632D01*
X52820000Y-5542240D01*
X52936525Y-5716632D01*
X53143368Y-5923475D01*
X53240001Y-5988043D01*
X53240000Y-14296289D01*
X53196063Y-14340226D01*
X53082795Y-14509744D01*
X53004774Y-14698102D01*
X52965000Y-14898061D01*
X52965000Y-15101939D01*
X53004774Y-15301898D01*
X53082795Y-15490256D01*
X53196063Y-15659774D01*
X53340226Y-15803937D01*
X53509744Y-15917205D01*
X53698102Y-15995226D01*
X53898061Y-16035000D01*
X54101939Y-16035000D01*
X54301898Y-15995226D01*
X54490256Y-15917205D01*
X54659774Y-15803937D01*
X54803937Y-15659774D01*
X54917205Y-15490256D01*
X54995226Y-15301898D01*
X55035000Y-15101939D01*
X55035000Y-14898061D01*
X54995226Y-14698102D01*
X54917205Y-14509744D01*
X54803937Y-14340226D01*
X54760000Y-14296289D01*
X54760000Y-6099829D01*
X54793411Y-6085990D01*
X55036632Y-5923475D01*
X55243475Y-5716632D01*
X55365195Y-5534466D01*
X55434822Y-5651355D01*
X55629731Y-5867588D01*
X55863080Y-6041641D01*
X56125901Y-6166825D01*
X56273110Y-6211476D01*
X56503000Y-6090155D01*
X56503000Y-4897000D01*
X56757000Y-4897000D01*
X56757000Y-6090155D01*
X56986890Y-6211476D01*
X57134099Y-6166825D01*
X57396920Y-6041641D01*
X57630269Y-5867588D01*
X57825178Y-5651355D01*
X57974157Y-5401252D01*
X58071481Y-5126891D01*
X57950814Y-4897000D01*
X56757000Y-4897000D01*
X56503000Y-4897000D01*
X56483000Y-4897000D01*
X56483000Y-4643000D01*
X56503000Y-4643000D01*
X56503000Y-4623000D01*
X56757000Y-4623000D01*
X56757000Y-4643000D01*
X57950814Y-4643000D01*
X58071481Y-4413109D01*
X57974157Y-4138748D01*
X57825178Y-3888645D01*
X57630269Y-3672412D01*
X57400594Y-3501100D01*
X57576632Y-3383475D01*
X57783475Y-3176632D01*
X57945990Y-2933411D01*
X58057932Y-2663158D01*
X58115000Y-2376260D01*
X58115000Y-2083740D01*
X58057932Y-1796842D01*
X57945990Y-1526589D01*
X57783475Y-1283368D01*
X57576632Y-1076525D01*
X57333411Y-914010D01*
X57063158Y-802068D01*
X56776260Y-745000D01*
X56483740Y-745000D01*
X56196842Y-802068D01*
X55926589Y-914010D01*
X55683368Y-1076525D01*
X55476525Y-1283368D01*
X55360000Y-1457760D01*
X55243475Y-1283368D01*
X55036632Y-1076525D01*
X54793411Y-914010D01*
X54523158Y-802068D01*
X54236260Y-745000D01*
X53943740Y-745000D01*
X53656842Y-802068D01*
X53386589Y-914010D01*
X53143368Y-1076525D01*
X52936525Y-1283368D01*
X52820000Y-1457760D01*
X52703475Y-1283368D01*
X52496632Y-1076525D01*
X52253411Y-914010D01*
X51983158Y-802068D01*
X51696260Y-745000D01*
X51403740Y-745000D01*
X51116842Y-802068D01*
X50846589Y-914010D01*
X50603368Y-1076525D01*
X50396525Y-1283368D01*
X50274805Y-1465534D01*
X50205178Y-1348645D01*
X50010269Y-1132412D01*
X49776920Y-958359D01*
X49514099Y-833175D01*
X49366890Y-788524D01*
X49137000Y-909845D01*
X49137000Y-2103000D01*
X49157000Y-2103000D01*
X49157000Y-2357000D01*
X49137000Y-2357000D01*
X49137000Y-2377000D01*
X48883000Y-2377000D01*
X48883000Y-2357000D01*
X48863000Y-2357000D01*
X48863000Y-2103000D01*
X48883000Y-2103000D01*
X48883000Y-909845D01*
X48653110Y-788524D01*
X48505901Y-833175D01*
X48243080Y-958359D01*
X48009731Y-1132412D01*
X47814822Y-1348645D01*
X47745195Y-1465534D01*
X47623475Y-1283368D01*
X47416632Y-1076525D01*
X47173411Y-914010D01*
X46903158Y-802068D01*
X46616260Y-745000D01*
X46323740Y-745000D01*
X46036842Y-802068D01*
X45766589Y-914010D01*
X45523368Y-1076525D01*
X45316525Y-1283368D01*
X45194805Y-1465534D01*
X45125178Y-1348645D01*
X44930269Y-1132412D01*
X44696920Y-958359D01*
X44434099Y-833175D01*
X44286890Y-788524D01*
X44057000Y-909845D01*
X44057000Y-2103000D01*
X44077000Y-2103000D01*
X44077000Y-2357000D01*
X44057000Y-2357000D01*
X44057000Y-2377000D01*
X43803000Y-2377000D01*
X43803000Y-2357000D01*
X43783000Y-2357000D01*
X43783000Y-2103000D01*
X43803000Y-2103000D01*
X43803000Y-909845D01*
X43573110Y-788524D01*
X43425901Y-833175D01*
X43163080Y-958359D01*
X42929731Y-1132412D01*
X42734822Y-1348645D01*
X42665195Y-1465534D01*
X42543475Y-1283368D01*
X42336632Y-1076525D01*
X42093411Y-914010D01*
X41823158Y-802068D01*
X41536260Y-745000D01*
X41243740Y-745000D01*
X40956842Y-802068D01*
X40686589Y-914010D01*
X40443368Y-1076525D01*
X40236525Y-1283368D01*
X40120000Y-1457760D01*
X40003475Y-1283368D01*
X39796632Y-1076525D01*
X39553411Y-914010D01*
X39283158Y-802068D01*
X38996260Y-745000D01*
X38703740Y-745000D01*
X38416842Y-802068D01*
X38146589Y-914010D01*
X37903368Y-1076525D01*
X37696525Y-1283368D01*
X37580000Y-1457760D01*
X37463475Y-1283368D01*
X37256632Y-1076525D01*
X37013411Y-914010D01*
X36743158Y-802068D01*
X36456260Y-745000D01*
X36163740Y-745000D01*
X35876842Y-802068D01*
X35606589Y-914010D01*
X35363368Y-1076525D01*
X35156525Y-1283368D01*
X35040000Y-1457760D01*
X34923475Y-1283368D01*
X34716632Y-1076525D01*
X34473411Y-914010D01*
X34203158Y-802068D01*
X33916260Y-745000D01*
X33623740Y-745000D01*
X33336842Y-802068D01*
X33066589Y-914010D01*
X32823368Y-1076525D01*
X32616525Y-1283368D01*
X32494805Y-1465534D01*
X32425178Y-1348645D01*
X32230269Y-1132412D01*
X31996920Y-958359D01*
X31734099Y-833175D01*
X31586890Y-788524D01*
X31357000Y-909845D01*
X31357000Y-2103000D01*
X31377000Y-2103000D01*
X31377000Y-2357000D01*
X31357000Y-2357000D01*
X31357000Y-2377000D01*
X31103000Y-2377000D01*
X31103000Y-2357000D01*
X31083000Y-2357000D01*
X31083000Y-2103000D01*
X31103000Y-2103000D01*
X31103000Y-909845D01*
X30873110Y-788524D01*
X30725901Y-833175D01*
X30463080Y-958359D01*
X30229731Y-1132412D01*
X30034822Y-1348645D01*
X29965195Y-1465534D01*
X29843475Y-1283368D01*
X29636632Y-1076525D01*
X29393411Y-914010D01*
X29123158Y-802068D01*
X28836260Y-745000D01*
X28543740Y-745000D01*
X28256842Y-802068D01*
X27986589Y-914010D01*
X27743368Y-1076525D01*
X27536525Y-1283368D01*
X27420000Y-1457760D01*
X27303475Y-1283368D01*
X27096632Y-1076525D01*
X26853411Y-914010D01*
X26583158Y-802068D01*
X26296260Y-745000D01*
X26003740Y-745000D01*
X25716842Y-802068D01*
X25446589Y-914010D01*
X25203368Y-1076525D01*
X24996525Y-1283368D01*
X24874805Y-1465534D01*
X24805178Y-1348645D01*
X24610269Y-1132412D01*
X24376920Y-958359D01*
X24114099Y-833175D01*
X23966890Y-788524D01*
X23737000Y-909845D01*
X23737000Y-2103000D01*
X23757000Y-2103000D01*
X23757000Y-2357000D01*
X23737000Y-2357000D01*
X23737000Y-2377000D01*
X23483000Y-2377000D01*
X23483000Y-2357000D01*
X23463000Y-2357000D01*
X23463000Y-2103000D01*
X23483000Y-2103000D01*
X23483000Y-909845D01*
X23253110Y-788524D01*
X23105901Y-833175D01*
X22843080Y-958359D01*
X22609731Y-1132412D01*
X22414822Y-1348645D01*
X22345195Y-1465534D01*
X22223475Y-1283368D01*
X22016632Y-1076525D01*
X21773411Y-914010D01*
X21503158Y-802068D01*
X21216260Y-745000D01*
X20923740Y-745000D01*
X20636842Y-802068D01*
X20366589Y-914010D01*
X20123368Y-1076525D01*
X19916525Y-1283368D01*
X19800000Y-1457760D01*
X19683475Y-1283368D01*
X19476632Y-1076525D01*
X19233411Y-914010D01*
X18963158Y-802068D01*
X18676260Y-745000D01*
X18383740Y-745000D01*
X18096842Y-802068D01*
X17826589Y-914010D01*
X17583368Y-1076525D01*
X17376525Y-1283368D01*
X17260000Y-1457760D01*
X17143475Y-1283368D01*
X16936632Y-1076525D01*
X16693411Y-914010D01*
X16423158Y-802068D01*
X16136260Y-745000D01*
X15843740Y-745000D01*
X15556842Y-802068D01*
X15286589Y-914010D01*
X15043368Y-1076525D01*
X14836525Y-1283368D01*
X14714805Y-1465534D01*
X14645178Y-1348645D01*
X14450269Y-1132412D01*
X14216920Y-958359D01*
X13954099Y-833175D01*
X13806890Y-788524D01*
X13577000Y-909845D01*
X13577000Y-2103000D01*
X13597000Y-2103000D01*
X13597000Y-2357000D01*
X13577000Y-2357000D01*
X13577000Y-2377000D01*
X13323000Y-2377000D01*
X13323000Y-2357000D01*
X13303000Y-2357000D01*
X13303000Y-2103000D01*
X13323000Y-2103000D01*
X13323000Y-909845D01*
X13127000Y-806409D01*
X13127000Y-710000D01*
X59777085Y-710000D01*
X59411034Y-954588D01*
%TA.AperFunction,Conductor*%
D28*
G36*
X59411034Y-954588D02*
G01*
X58954588Y-1411034D01*
X58595960Y-1947758D01*
X58348933Y-2544134D01*
X58223000Y-3177244D01*
X58223000Y-3822756D01*
X58348933Y-4455866D01*
X58595960Y-5052242D01*
X58954588Y-5588966D01*
X59411034Y-6045412D01*
X59947758Y-6404040D01*
X60544134Y-6651067D01*
X61177244Y-6777000D01*
X61822756Y-6777000D01*
X62455866Y-6651067D01*
X63052242Y-6404040D01*
X63588966Y-6045412D01*
X64045412Y-5588966D01*
X64290000Y-5222915D01*
X64290000Y-11859636D01*
X64204494Y-11789463D01*
X64094180Y-11730498D01*
X63974482Y-11694188D01*
X63850000Y-11681928D01*
X62150000Y-11681928D01*
X62025518Y-11694188D01*
X61905820Y-11730498D01*
X61795506Y-11789463D01*
X61698815Y-11868815D01*
X61619463Y-11965506D01*
X61560498Y-12075820D01*
X61524188Y-12195518D01*
X61511928Y-12320000D01*
X61511928Y-14020000D01*
X61524188Y-14144482D01*
X61560498Y-14264180D01*
X61619463Y-14374494D01*
X61698815Y-14471185D01*
X61795506Y-14550537D01*
X61905820Y-14609502D01*
X61978380Y-14631513D01*
X61846525Y-14763368D01*
X61684010Y-15006589D01*
X61572068Y-15276842D01*
X61515000Y-15563740D01*
X61515000Y-15856260D01*
X61572068Y-16143158D01*
X61684010Y-16413411D01*
X61846525Y-16656632D01*
X62053368Y-16863475D01*
X62235534Y-16985195D01*
X62118645Y-17054822D01*
X61902412Y-17249731D01*
X61728359Y-17483080D01*
X61603175Y-17745901D01*
X61558524Y-17893110D01*
X61679845Y-18123000D01*
X62873000Y-18123000D01*
X62873000Y-18103000D01*
X63127000Y-18103000D01*
X63127000Y-18123000D01*
X63147000Y-18123000D01*
X63147000Y-18377000D01*
X63127000Y-18377000D01*
X63127000Y-19570814D01*
X63356891Y-19691481D01*
X63631252Y-19594157D01*
X63881355Y-19445178D01*
X64097588Y-19250269D01*
X64271641Y-19016920D01*
X64290000Y-18978375D01*
X64290000Y-20581334D01*
X64239850Y-20554528D01*
X64073254Y-20503992D01*
X63900000Y-20486928D01*
X63100000Y-20486928D01*
X62926746Y-20503992D01*
X62760150Y-20554528D01*
X62606614Y-20636595D01*
X62472038Y-20747038D01*
X62361595Y-20881614D01*
X62279528Y-21035150D01*
X62228992Y-21201746D01*
X62211928Y-21375000D01*
X62211928Y-22625000D01*
X62228992Y-22798254D01*
X62279528Y-22964850D01*
X62361595Y-23118386D01*
X62472038Y-23252962D01*
X62481795Y-23260970D01*
X62352259Y-23390506D01*
X62318342Y-23418341D01*
X62290507Y-23452258D01*
X62290505Y-23452260D01*
X62207248Y-23553709D01*
X62124698Y-23708148D01*
X62073864Y-23875726D01*
X62056700Y-24050000D01*
X62061001Y-24093669D01*
X62061001Y-24144892D01*
X62019463Y-24195506D01*
X62000000Y-24231918D01*
X61980537Y-24195506D01*
X61901185Y-24098815D01*
X61804494Y-24019463D01*
X61694180Y-23960498D01*
X61574482Y-23924188D01*
X61450000Y-23911928D01*
X61335750Y-23915000D01*
X61177000Y-24073750D01*
X61177000Y-24873000D01*
X61197000Y-24873000D01*
X61197000Y-25127000D01*
X61177000Y-25127000D01*
X61177000Y-25926250D01*
X61261607Y-26010857D01*
X61245506Y-26019463D01*
X61148815Y-26098815D01*
X61138815Y-26111000D01*
X59043239Y-26111000D01*
X59042252Y-26110013D01*
X58933400Y-26037280D01*
X58955808Y-25975413D01*
X58000000Y-25019605D01*
X57044192Y-25975413D01*
X57066600Y-26037280D01*
X56957748Y-26110013D01*
X56730013Y-26337748D01*
X56628281Y-26490000D01*
X56564801Y-26490000D01*
X56510000Y-26435199D01*
X56510000Y-25531317D01*
X56600186Y-25700044D01*
X56864587Y-25795808D01*
X57820395Y-24840000D01*
X58179605Y-24840000D01*
X59135413Y-25795808D01*
X59399814Y-25700044D01*
X59521453Y-25450000D01*
X60011928Y-25450000D01*
X60024188Y-25574482D01*
X60060498Y-25694180D01*
X60119463Y-25804494D01*
X60198815Y-25901185D01*
X60295506Y-25980537D01*
X60405820Y-26039502D01*
X60525518Y-26075812D01*
X60650000Y-26088072D01*
X60764250Y-26085000D01*
X60923000Y-25926250D01*
X60923000Y-25127000D01*
X60173750Y-25127000D01*
X60015000Y-25285750D01*
X60011928Y-25450000D01*
X59521453Y-25450000D01*
X59540704Y-25410429D01*
X59622384Y-25098892D01*
X59641718Y-24777405D01*
X59610533Y-24550000D01*
X60011928Y-24550000D01*
X60015000Y-24714250D01*
X60173750Y-24873000D01*
X60923000Y-24873000D01*
X60923000Y-24073750D01*
X60764250Y-23915000D01*
X60650000Y-23911928D01*
X60525518Y-23924188D01*
X60405820Y-23960498D01*
X60295506Y-24019463D01*
X60198815Y-24098815D01*
X60119463Y-24195506D01*
X60060498Y-24305820D01*
X60024188Y-24425518D01*
X60011928Y-24550000D01*
X59610533Y-24550000D01*
X59597961Y-24458325D01*
X59492795Y-24153912D01*
X59399814Y-23979956D01*
X59135413Y-23884192D01*
X58179605Y-24840000D01*
X57820395Y-24840000D01*
X56864587Y-23884192D01*
X56600186Y-23979956D01*
X56510000Y-24165343D01*
X56510000Y-23787322D01*
X56513676Y-23749999D01*
X56510000Y-23712676D01*
X56510000Y-23712667D01*
X56509205Y-23704587D01*
X57044192Y-23704587D01*
X58000000Y-24660395D01*
X58955808Y-23704587D01*
X58860044Y-23440186D01*
X58570429Y-23299296D01*
X58258892Y-23217616D01*
X57937405Y-23198282D01*
X57618325Y-23242039D01*
X57313912Y-23347205D01*
X57139956Y-23440186D01*
X57044192Y-23704587D01*
X56509205Y-23704587D01*
X56499003Y-23601014D01*
X56455546Y-23457753D01*
X56384974Y-23325724D01*
X56290001Y-23209999D01*
X56261004Y-23186202D01*
X55563803Y-22489002D01*
X55540001Y-22459999D01*
X55424276Y-22365026D01*
X55292247Y-22294454D01*
X55148986Y-22250997D01*
X55037333Y-22240000D01*
X55037322Y-22240000D01*
X55000000Y-22236324D01*
X54962678Y-22240000D01*
X48287322Y-22240000D01*
X48249999Y-22236324D01*
X48212676Y-22240000D01*
X48212667Y-22240000D01*
X48101014Y-22250997D01*
X47965032Y-22292246D01*
X47957753Y-22294454D01*
X47825723Y-22365026D01*
X47742083Y-22433668D01*
X47709999Y-22459999D01*
X47686200Y-22488998D01*
X47138998Y-23036201D01*
X47110000Y-23059999D01*
X47086202Y-23088997D01*
X47086201Y-23088998D01*
X47015026Y-23175724D01*
X46995674Y-23211928D01*
X45900000Y-23211928D01*
X45775518Y-23224188D01*
X45655820Y-23260498D01*
X45545506Y-23319463D01*
X45448815Y-23398815D01*
X45369463Y-23495506D01*
X45310498Y-23605820D01*
X45274188Y-23725518D01*
X45261928Y-23850000D01*
X45261928Y-26150000D01*
X45274188Y-26274482D01*
X45310498Y-26394180D01*
X45369463Y-26504494D01*
X45448815Y-26601185D01*
X45545506Y-26680537D01*
X45655820Y-26739502D01*
X45775518Y-26775812D01*
X45900000Y-26788072D01*
X49400000Y-26788072D01*
X49524482Y-26775812D01*
X49644180Y-26739502D01*
X49754494Y-26680537D01*
X49851185Y-26601185D01*
X49930537Y-26504494D01*
X49989502Y-26394180D01*
X50025812Y-26274482D01*
X50038072Y-26150000D01*
X50038072Y-23850000D01*
X50029208Y-23760000D01*
X51289807Y-23760000D01*
X51281928Y-23840000D01*
X51281928Y-25840000D01*
X51294188Y-25964482D01*
X51330498Y-26084180D01*
X51389463Y-26194494D01*
X51468815Y-26291185D01*
X51565506Y-26370537D01*
X51611630Y-26395191D01*
X51471082Y-26605537D01*
X51347832Y-26903088D01*
X51285000Y-27218967D01*
X51285000Y-27398554D01*
X50738554Y-27945001D01*
X43393000Y-27945001D01*
X43393000Y-26788072D01*
X44000000Y-26788072D01*
X44124482Y-26775812D01*
X44244180Y-26739502D01*
X44354494Y-26680537D01*
X44451185Y-26601185D01*
X44530537Y-26504494D01*
X44589502Y-26394180D01*
X44625812Y-26274482D01*
X44638072Y-26150000D01*
X44638072Y-23850000D01*
X44625812Y-23725518D01*
X44589502Y-23605820D01*
X44530537Y-23495506D01*
X44451185Y-23398815D01*
X44354494Y-23319463D01*
X44244180Y-23260498D01*
X44124482Y-23224188D01*
X44000000Y-23211928D01*
X40500000Y-23211928D01*
X40375518Y-23224188D01*
X40255820Y-23260498D01*
X40145506Y-23319463D01*
X40048815Y-23398815D01*
X39969463Y-23495506D01*
X39910498Y-23605820D01*
X39874188Y-23725518D01*
X39861928Y-23850000D01*
X39861928Y-26150000D01*
X39874188Y-26274482D01*
X39910498Y-26394180D01*
X39969463Y-26504494D01*
X40048815Y-26601185D01*
X40145506Y-26680537D01*
X40255820Y-26739502D01*
X40375518Y-26775812D01*
X40500000Y-26788072D01*
X41107000Y-26788072D01*
X41107001Y-27945001D01*
X37797795Y-27945001D01*
X37851185Y-27901185D01*
X37930537Y-27804494D01*
X37989502Y-27694180D01*
X38025812Y-27574482D01*
X38038072Y-27450000D01*
X38038072Y-26550000D01*
X38025812Y-26425518D01*
X37989502Y-26305820D01*
X37930537Y-26195506D01*
X37851185Y-26098815D01*
X37838095Y-26088072D01*
X38350000Y-26088072D01*
X38474482Y-26075812D01*
X38594180Y-26039502D01*
X38704494Y-25980537D01*
X38801185Y-25901185D01*
X38880537Y-25804494D01*
X38939502Y-25694180D01*
X38975812Y-25574482D01*
X38988072Y-25450000D01*
X38988072Y-24550000D01*
X38975812Y-24425518D01*
X38942275Y-24314960D01*
X39097737Y-24159498D01*
X39131659Y-24131659D01*
X39242753Y-23996291D01*
X39325303Y-23841851D01*
X39350132Y-23760000D01*
X39376136Y-23674276D01*
X39382878Y-23605820D01*
X39389000Y-23543667D01*
X39389000Y-23543661D01*
X39393300Y-23500001D01*
X39389000Y-23456341D01*
X39389000Y-23342475D01*
X39443386Y-23313405D01*
X39577962Y-23202962D01*
X39688405Y-23068386D01*
X39770472Y-22914850D01*
X39821008Y-22748254D01*
X39838072Y-22575000D01*
X39838072Y-21325000D01*
X39831670Y-21260000D01*
X56185199Y-21260000D01*
X57436201Y-22511003D01*
X57459999Y-22540001D01*
X57575724Y-22634974D01*
X57707753Y-22705546D01*
X57851014Y-22749003D01*
X57962667Y-22760000D01*
X57962676Y-22760000D01*
X57999999Y-22763676D01*
X58037322Y-22760000D01*
X59125224Y-22760000D01*
X59128992Y-22798254D01*
X59179528Y-22964850D01*
X59261595Y-23118386D01*
X59372038Y-23252962D01*
X59506614Y-23363405D01*
X59660150Y-23445472D01*
X59826746Y-23496008D01*
X60000000Y-23513072D01*
X60800000Y-23513072D01*
X60973254Y-23496008D01*
X61139850Y-23445472D01*
X61293386Y-23363405D01*
X61427962Y-23252962D01*
X61538405Y-23118386D01*
X61620472Y-22964850D01*
X61671008Y-22798254D01*
X61688072Y-22625000D01*
X61688072Y-21375000D01*
X61671008Y-21201746D01*
X61620472Y-21035150D01*
X61538405Y-20881614D01*
X61427962Y-20747038D01*
X61293386Y-20636595D01*
X61139850Y-20554528D01*
X60973254Y-20503992D01*
X60800000Y-20486928D01*
X60000000Y-20486928D01*
X59826746Y-20503992D01*
X59660150Y-20554528D01*
X59506614Y-20636595D01*
X59372038Y-20747038D01*
X59261595Y-20881614D01*
X59179528Y-21035150D01*
X59128992Y-21201746D01*
X59125224Y-21240000D01*
X58314802Y-21240000D01*
X57063804Y-19989003D01*
X57040001Y-19959999D01*
X56924276Y-19865026D01*
X56792247Y-19794454D01*
X56648986Y-19750997D01*
X56537333Y-19740000D01*
X56537322Y-19740000D01*
X56500000Y-19736324D01*
X56462678Y-19740000D01*
X47324868Y-19740000D01*
X47322500Y-19285750D01*
X47163750Y-19127000D01*
X46102000Y-19127000D01*
X46102000Y-19147000D01*
X45848000Y-19147000D01*
X45848000Y-19127000D01*
X44786250Y-19127000D01*
X44627500Y-19285750D01*
X44625132Y-19740000D01*
X44339246Y-19740000D01*
X44350572Y-19625000D01*
X44350572Y-18375000D01*
X44333508Y-18201746D01*
X44310228Y-18125000D01*
X44624428Y-18125000D01*
X44627500Y-18714250D01*
X44786250Y-18873000D01*
X45848000Y-18873000D01*
X45848000Y-17648750D01*
X46102000Y-17648750D01*
X46102000Y-18873000D01*
X47163750Y-18873000D01*
X47322500Y-18714250D01*
X47323059Y-18606890D01*
X61558524Y-18606890D01*
X61603175Y-18754099D01*
X61728359Y-19016920D01*
X61902412Y-19250269D01*
X62118645Y-19445178D01*
X62368748Y-19594157D01*
X62643109Y-19691481D01*
X62873000Y-19570814D01*
X62873000Y-18377000D01*
X61679845Y-18377000D01*
X61558524Y-18606890D01*
X47323059Y-18606890D01*
X47325572Y-18125000D01*
X47313312Y-18000518D01*
X47277002Y-17880820D01*
X47218037Y-17770506D01*
X47138685Y-17673815D01*
X47041994Y-17594463D01*
X46931680Y-17535498D01*
X46811982Y-17499188D01*
X46687500Y-17486928D01*
X46260750Y-17490000D01*
X46102000Y-17648750D01*
X45848000Y-17648750D01*
X45689250Y-17490000D01*
X45262500Y-17486928D01*
X45138018Y-17499188D01*
X45018320Y-17535498D01*
X44908006Y-17594463D01*
X44811315Y-17673815D01*
X44731963Y-17770506D01*
X44672998Y-17880820D01*
X44636688Y-18000518D01*
X44624428Y-18125000D01*
X44310228Y-18125000D01*
X44282972Y-18035150D01*
X44200905Y-17881614D01*
X44090462Y-17747038D01*
X43955886Y-17636595D01*
X43802350Y-17554528D01*
X43760000Y-17541681D01*
X43760000Y-17157976D01*
X43843386Y-17113405D01*
X43977962Y-17002962D01*
X44088405Y-16868386D01*
X44170472Y-16714850D01*
X44221008Y-16548254D01*
X44238072Y-16375000D01*
X44238072Y-15125000D01*
X44221008Y-14951746D01*
X44170472Y-14785150D01*
X44088405Y-14631614D01*
X43977962Y-14497038D01*
X43843386Y-14386595D01*
X43689850Y-14304528D01*
X43523254Y-14253992D01*
X43350000Y-14236928D01*
X42550000Y-14236928D01*
X42376746Y-14253992D01*
X42210150Y-14304528D01*
X42056614Y-14386595D01*
X41922038Y-14497038D01*
X41811595Y-14631614D01*
X41729528Y-14785150D01*
X41678992Y-14951746D01*
X41661928Y-15125000D01*
X41661928Y-16375000D01*
X41678992Y-16548254D01*
X41729528Y-16714850D01*
X41811595Y-16868386D01*
X41922038Y-17002962D01*
X42056614Y-17113405D01*
X42210150Y-17195472D01*
X42240001Y-17204527D01*
X42240000Y-17541681D01*
X42197650Y-17554528D01*
X42044114Y-17636595D01*
X41909538Y-17747038D01*
X41799095Y-17881614D01*
X41717028Y-18035150D01*
X41666492Y-18201746D01*
X41649428Y-18375000D01*
X41649428Y-19625000D01*
X41660754Y-19740000D01*
X29814802Y-19740000D01*
X28274999Y-18200198D01*
X28274999Y-16923524D01*
X28448102Y-16995226D01*
X28648061Y-17035000D01*
X28851939Y-17035000D01*
X29051898Y-16995226D01*
X29240256Y-16917205D01*
X29409774Y-16803937D01*
X29453711Y-16760000D01*
X38212678Y-16760000D01*
X38250000Y-16763676D01*
X38287322Y-16760000D01*
X38287333Y-16760000D01*
X38398986Y-16749003D01*
X38542247Y-16705546D01*
X38674276Y-16634974D01*
X38790001Y-16540001D01*
X38813804Y-16510997D01*
X45806002Y-9518800D01*
X45835000Y-9495002D01*
X45914607Y-9398001D01*
X45929973Y-9379278D01*
X46000545Y-9247248D01*
X46002896Y-9239497D01*
X46044002Y-9103987D01*
X46054999Y-8992334D01*
X46054999Y-8992325D01*
X46058675Y-8955002D01*
X46054999Y-8917679D01*
X46054999Y-6201544D01*
X46323740Y-6255000D01*
X46616260Y-6255000D01*
X46903158Y-6197932D01*
X47173411Y-6085990D01*
X47416632Y-5923475D01*
X47623475Y-5716632D01*
X47740000Y-5542240D01*
X47856525Y-5716632D01*
X48063368Y-5923475D01*
X48240001Y-6041497D01*
X48240000Y-10185198D01*
X45538998Y-12886201D01*
X45510000Y-12909999D01*
X45486202Y-12938997D01*
X45486201Y-12938998D01*
X45415026Y-13025724D01*
X45344454Y-13157754D01*
X45300998Y-13301015D01*
X45286324Y-13450000D01*
X45290001Y-13487332D01*
X45290001Y-14315298D01*
X45156614Y-14386595D01*
X45022038Y-14497038D01*
X44911595Y-14631614D01*
X44829528Y-14785150D01*
X44778992Y-14951746D01*
X44761928Y-15125000D01*
X44761928Y-16375000D01*
X44778992Y-16548254D01*
X44829528Y-16714850D01*
X44911595Y-16868386D01*
X45022038Y-17002962D01*
X45156614Y-17113405D01*
X45310150Y-17195472D01*
X45476746Y-17246008D01*
X45650000Y-17263072D01*
X46450000Y-17263072D01*
X46623254Y-17246008D01*
X46789850Y-17195472D01*
X46943386Y-17113405D01*
X47077962Y-17002962D01*
X47188405Y-16868386D01*
X47270472Y-16714850D01*
X47321008Y-16548254D01*
X47338072Y-16375000D01*
X47338072Y-15125000D01*
X47321008Y-14951746D01*
X47270472Y-14785150D01*
X47188405Y-14631614D01*
X47077962Y-14497038D01*
X46943386Y-14386595D01*
X46810000Y-14315298D01*
X46810000Y-13764801D01*
X49511004Y-11063798D01*
X49540001Y-11040001D01*
X49572829Y-11000000D01*
X49634974Y-10924277D01*
X49705546Y-10792247D01*
X49706711Y-10788405D01*
X49749003Y-10648986D01*
X49760000Y-10537333D01*
X49760000Y-10537323D01*
X49763676Y-10500001D01*
X49760000Y-10462678D01*
X49760000Y-6054860D01*
X49956632Y-5923475D01*
X50163475Y-5716632D01*
X50280000Y-5542240D01*
X50396525Y-5716632D01*
X50603368Y-5923475D01*
X50846589Y-6085990D01*
X51116842Y-6197932D01*
X51403740Y-6255000D01*
X51696260Y-6255000D01*
X51983158Y-6197932D01*
X52253411Y-6085990D01*
X52496632Y-5923475D01*
X52703475Y-5716632D01*
X52820000Y-5542240D01*
X52936525Y-5716632D01*
X53143368Y-5923475D01*
X53240001Y-5988043D01*
X53240000Y-14296289D01*
X53196063Y-14340226D01*
X53082795Y-14509744D01*
X53004774Y-14698102D01*
X52965000Y-14898061D01*
X52965000Y-15101939D01*
X53004774Y-15301898D01*
X53082795Y-15490256D01*
X53196063Y-15659774D01*
X53340226Y-15803937D01*
X53509744Y-15917205D01*
X53698102Y-15995226D01*
X53898061Y-16035000D01*
X54101939Y-16035000D01*
X54301898Y-15995226D01*
X54490256Y-15917205D01*
X54659774Y-15803937D01*
X54803937Y-15659774D01*
X54917205Y-15490256D01*
X54995226Y-15301898D01*
X55035000Y-15101939D01*
X55035000Y-14898061D01*
X54995226Y-14698102D01*
X54917205Y-14509744D01*
X54803937Y-14340226D01*
X54760000Y-14296289D01*
X54760000Y-6099829D01*
X54793411Y-6085990D01*
X55036632Y-5923475D01*
X55243475Y-5716632D01*
X55365195Y-5534466D01*
X55434822Y-5651355D01*
X55629731Y-5867588D01*
X55863080Y-6041641D01*
X56125901Y-6166825D01*
X56273110Y-6211476D01*
X56503000Y-6090155D01*
X56503000Y-4897000D01*
X56757000Y-4897000D01*
X56757000Y-6090155D01*
X56986890Y-6211476D01*
X57134099Y-6166825D01*
X57396920Y-6041641D01*
X57630269Y-5867588D01*
X57825178Y-5651355D01*
X57974157Y-5401252D01*
X58071481Y-5126891D01*
X57950814Y-4897000D01*
X56757000Y-4897000D01*
X56503000Y-4897000D01*
X56483000Y-4897000D01*
X56483000Y-4643000D01*
X56503000Y-4643000D01*
X56503000Y-4623000D01*
X56757000Y-4623000D01*
X56757000Y-4643000D01*
X57950814Y-4643000D01*
X58071481Y-4413109D01*
X57974157Y-4138748D01*
X57825178Y-3888645D01*
X57630269Y-3672412D01*
X57400594Y-3501100D01*
X57576632Y-3383475D01*
X57783475Y-3176632D01*
X57945990Y-2933411D01*
X58057932Y-2663158D01*
X58115000Y-2376260D01*
X58115000Y-2083740D01*
X58057932Y-1796842D01*
X57945990Y-1526589D01*
X57783475Y-1283368D01*
X57576632Y-1076525D01*
X57333411Y-914010D01*
X57063158Y-802068D01*
X56776260Y-745000D01*
X56483740Y-745000D01*
X56196842Y-802068D01*
X55926589Y-914010D01*
X55683368Y-1076525D01*
X55476525Y-1283368D01*
X55360000Y-1457760D01*
X55243475Y-1283368D01*
X55036632Y-1076525D01*
X54793411Y-914010D01*
X54523158Y-802068D01*
X54236260Y-745000D01*
X53943740Y-745000D01*
X53656842Y-802068D01*
X53386589Y-914010D01*
X53143368Y-1076525D01*
X52936525Y-1283368D01*
X52820000Y-1457760D01*
X52703475Y-1283368D01*
X52496632Y-1076525D01*
X52253411Y-914010D01*
X51983158Y-802068D01*
X51696260Y-745000D01*
X51403740Y-745000D01*
X51116842Y-802068D01*
X50846589Y-914010D01*
X50603368Y-1076525D01*
X50396525Y-1283368D01*
X50274805Y-1465534D01*
X50205178Y-1348645D01*
X50010269Y-1132412D01*
X49776920Y-958359D01*
X49514099Y-833175D01*
X49366890Y-788524D01*
X49137000Y-909845D01*
X49137000Y-2103000D01*
X49157000Y-2103000D01*
X49157000Y-2357000D01*
X49137000Y-2357000D01*
X49137000Y-2377000D01*
X48883000Y-2377000D01*
X48883000Y-2357000D01*
X48863000Y-2357000D01*
X48863000Y-2103000D01*
X48883000Y-2103000D01*
X48883000Y-909845D01*
X48653110Y-788524D01*
X48505901Y-833175D01*
X48243080Y-958359D01*
X48009731Y-1132412D01*
X47814822Y-1348645D01*
X47745195Y-1465534D01*
X47623475Y-1283368D01*
X47416632Y-1076525D01*
X47173411Y-914010D01*
X46903158Y-802068D01*
X46616260Y-745000D01*
X46323740Y-745000D01*
X46036842Y-802068D01*
X45766589Y-914010D01*
X45523368Y-1076525D01*
X45316525Y-1283368D01*
X45194805Y-1465534D01*
X45125178Y-1348645D01*
X44930269Y-1132412D01*
X44696920Y-958359D01*
X44434099Y-833175D01*
X44286890Y-788524D01*
X44057000Y-909845D01*
X44057000Y-2103000D01*
X44077000Y-2103000D01*
X44077000Y-2357000D01*
X44057000Y-2357000D01*
X44057000Y-2377000D01*
X43803000Y-2377000D01*
X43803000Y-2357000D01*
X43783000Y-2357000D01*
X43783000Y-2103000D01*
X43803000Y-2103000D01*
X43803000Y-909845D01*
X43573110Y-788524D01*
X43425901Y-833175D01*
X43163080Y-958359D01*
X42929731Y-1132412D01*
X42734822Y-1348645D01*
X42665195Y-1465534D01*
X42543475Y-1283368D01*
X42336632Y-1076525D01*
X42093411Y-914010D01*
X41823158Y-802068D01*
X41536260Y-745000D01*
X41243740Y-745000D01*
X40956842Y-802068D01*
X40686589Y-914010D01*
X40443368Y-1076525D01*
X40236525Y-1283368D01*
X40120000Y-1457760D01*
X40003475Y-1283368D01*
X39796632Y-1076525D01*
X39553411Y-914010D01*
X39283158Y-802068D01*
X38996260Y-745000D01*
X38703740Y-745000D01*
X38416842Y-802068D01*
X38146589Y-914010D01*
X37903368Y-1076525D01*
X37696525Y-1283368D01*
X37580000Y-1457760D01*
X37463475Y-1283368D01*
X37256632Y-1076525D01*
X37013411Y-914010D01*
X36743158Y-802068D01*
X36456260Y-745000D01*
X36163740Y-745000D01*
X35876842Y-802068D01*
X35606589Y-914010D01*
X35363368Y-1076525D01*
X35156525Y-1283368D01*
X35040000Y-1457760D01*
X34923475Y-1283368D01*
X34716632Y-1076525D01*
X34473411Y-914010D01*
X34203158Y-802068D01*
X33916260Y-745000D01*
X33623740Y-745000D01*
X33336842Y-802068D01*
X33066589Y-914010D01*
X32823368Y-1076525D01*
X32616525Y-1283368D01*
X32494805Y-1465534D01*
X32425178Y-1348645D01*
X32230269Y-1132412D01*
X31996920Y-958359D01*
X31734099Y-833175D01*
X31586890Y-788524D01*
X31357000Y-909845D01*
X31357000Y-2103000D01*
X31377000Y-2103000D01*
X31377000Y-2357000D01*
X31357000Y-2357000D01*
X31357000Y-2377000D01*
X31103000Y-2377000D01*
X31103000Y-2357000D01*
X31083000Y-2357000D01*
X31083000Y-2103000D01*
X31103000Y-2103000D01*
X31103000Y-909845D01*
X30873110Y-788524D01*
X30725901Y-833175D01*
X30463080Y-958359D01*
X30229731Y-1132412D01*
X30034822Y-1348645D01*
X29965195Y-1465534D01*
X29843475Y-1283368D01*
X29636632Y-1076525D01*
X29393411Y-914010D01*
X29123158Y-802068D01*
X28836260Y-745000D01*
X28543740Y-745000D01*
X28256842Y-802068D01*
X27986589Y-914010D01*
X27743368Y-1076525D01*
X27536525Y-1283368D01*
X27420000Y-1457760D01*
X27303475Y-1283368D01*
X27096632Y-1076525D01*
X26853411Y-914010D01*
X26583158Y-802068D01*
X26296260Y-745000D01*
X26003740Y-745000D01*
X25716842Y-802068D01*
X25446589Y-914010D01*
X25203368Y-1076525D01*
X24996525Y-1283368D01*
X24874805Y-1465534D01*
X24805178Y-1348645D01*
X24610269Y-1132412D01*
X24376920Y-958359D01*
X24114099Y-833175D01*
X23966890Y-788524D01*
X23737000Y-909845D01*
X23737000Y-2103000D01*
X23757000Y-2103000D01*
X23757000Y-2357000D01*
X23737000Y-2357000D01*
X23737000Y-2377000D01*
X23483000Y-2377000D01*
X23483000Y-2357000D01*
X23463000Y-2357000D01*
X23463000Y-2103000D01*
X23483000Y-2103000D01*
X23483000Y-909845D01*
X23253110Y-788524D01*
X23105901Y-833175D01*
X22843080Y-958359D01*
X22609731Y-1132412D01*
X22414822Y-1348645D01*
X22345195Y-1465534D01*
X22223475Y-1283368D01*
X22016632Y-1076525D01*
X21773411Y-914010D01*
X21503158Y-802068D01*
X21216260Y-745000D01*
X20923740Y-745000D01*
X20636842Y-802068D01*
X20366589Y-914010D01*
X20123368Y-1076525D01*
X19916525Y-1283368D01*
X19800000Y-1457760D01*
X19683475Y-1283368D01*
X19476632Y-1076525D01*
X19233411Y-914010D01*
X18963158Y-802068D01*
X18676260Y-745000D01*
X18383740Y-745000D01*
X18096842Y-802068D01*
X17826589Y-914010D01*
X17583368Y-1076525D01*
X17376525Y-1283368D01*
X17260000Y-1457760D01*
X17143475Y-1283368D01*
X16936632Y-1076525D01*
X16693411Y-914010D01*
X16423158Y-802068D01*
X16136260Y-745000D01*
X15843740Y-745000D01*
X15556842Y-802068D01*
X15286589Y-914010D01*
X15043368Y-1076525D01*
X14836525Y-1283368D01*
X14714805Y-1465534D01*
X14645178Y-1348645D01*
X14450269Y-1132412D01*
X14216920Y-958359D01*
X13954099Y-833175D01*
X13806890Y-788524D01*
X13577000Y-909845D01*
X13577000Y-2103000D01*
X13597000Y-2103000D01*
X13597000Y-2357000D01*
X13577000Y-2357000D01*
X13577000Y-2377000D01*
X13323000Y-2377000D01*
X13323000Y-2357000D01*
X13303000Y-2357000D01*
X13303000Y-2103000D01*
X13323000Y-2103000D01*
X13323000Y-909845D01*
X13127000Y-806409D01*
X13127000Y-710000D01*
X59777085Y-710000D01*
X59411034Y-954588D01*
G37*
%TD.AperFunction*%
D27*
X37261928Y-21325000D02*
X37261928Y-22575000D01*
X37278992Y-22748254D01*
X37329528Y-22914850D01*
X37411595Y-23068386D01*
X37522038Y-23202962D01*
X37531795Y-23210970D01*
X37352259Y-23390506D01*
X37318342Y-23418341D01*
X37290507Y-23452258D01*
X37290505Y-23452260D01*
X37207248Y-23553709D01*
X37124698Y-23708148D01*
X37073864Y-23875726D01*
X37056700Y-24050000D01*
X37061001Y-24093669D01*
X37061001Y-24144892D01*
X37019463Y-24195506D01*
X37000000Y-24231918D01*
X36980537Y-24195506D01*
X36901185Y-24098815D01*
X36804494Y-24019463D01*
X36694180Y-23960498D01*
X36574482Y-23924188D01*
X36450000Y-23911928D01*
X36335750Y-23915000D01*
X36177000Y-24073750D01*
X36177000Y-24873000D01*
X36197000Y-24873000D01*
X36197000Y-25127000D01*
X36177000Y-25127000D01*
X36177000Y-25926250D01*
X36261607Y-26010857D01*
X36245506Y-26019463D01*
X36148815Y-26098815D01*
X36138815Y-26111000D01*
X34043239Y-26111000D01*
X34042252Y-26110013D01*
X33933400Y-26037280D01*
X33955808Y-25975413D01*
X33000000Y-25019605D01*
X32044192Y-25975413D01*
X32066600Y-26037280D01*
X31957748Y-26110013D01*
X31730013Y-26337748D01*
X31602855Y-26528053D01*
X31510000Y-26435199D01*
X31510000Y-25531317D01*
X31600186Y-25700044D01*
X31864587Y-25795808D01*
X32820395Y-24840000D01*
X33179605Y-24840000D01*
X34135413Y-25795808D01*
X34399814Y-25700044D01*
X34521453Y-25450000D01*
X35011928Y-25450000D01*
X35024188Y-25574482D01*
X35060498Y-25694180D01*
X35119463Y-25804494D01*
X35198815Y-25901185D01*
X35295506Y-25980537D01*
X35405820Y-26039502D01*
X35525518Y-26075812D01*
X35650000Y-26088072D01*
X35764250Y-26085000D01*
X35923000Y-25926250D01*
X35923000Y-25127000D01*
X35173750Y-25127000D01*
X35015000Y-25285750D01*
X35011928Y-25450000D01*
X34521453Y-25450000D01*
X34540704Y-25410429D01*
X34622384Y-25098892D01*
X34641718Y-24777405D01*
X34610533Y-24550000D01*
X35011928Y-24550000D01*
X35015000Y-24714250D01*
X35173750Y-24873000D01*
X35923000Y-24873000D01*
X35923000Y-24073750D01*
X35764250Y-23915000D01*
X35650000Y-23911928D01*
X35525518Y-23924188D01*
X35405820Y-23960498D01*
X35295506Y-24019463D01*
X35198815Y-24098815D01*
X35119463Y-24195506D01*
X35060498Y-24305820D01*
X35024188Y-24425518D01*
X35011928Y-24550000D01*
X34610533Y-24550000D01*
X34597961Y-24458325D01*
X34492795Y-24153912D01*
X34399814Y-23979956D01*
X34135413Y-23884192D01*
X33179605Y-24840000D01*
X32820395Y-24840000D01*
X31864587Y-23884192D01*
X31600186Y-23979956D01*
X31510000Y-24165343D01*
X31510000Y-23787322D01*
X31513676Y-23749999D01*
X31510000Y-23712676D01*
X31510000Y-23712667D01*
X31509205Y-23704587D01*
X32044192Y-23704587D01*
X33000000Y-24660395D01*
X33955808Y-23704587D01*
X33860044Y-23440186D01*
X33570429Y-23299296D01*
X33258892Y-23217616D01*
X32937405Y-23198282D01*
X32618325Y-23242039D01*
X32313912Y-23347205D01*
X32139956Y-23440186D01*
X32044192Y-23704587D01*
X31509205Y-23704587D01*
X31499003Y-23601014D01*
X31455546Y-23457753D01*
X31384974Y-23325724D01*
X31290001Y-23209999D01*
X31261004Y-23186202D01*
X30784801Y-22710000D01*
X34175224Y-22710000D01*
X34178992Y-22748254D01*
X34229528Y-22914850D01*
X34311595Y-23068386D01*
X34422038Y-23202962D01*
X34556614Y-23313405D01*
X34710150Y-23395472D01*
X34876746Y-23446008D01*
X35050000Y-23463072D01*
X35850000Y-23463072D01*
X36023254Y-23446008D01*
X36189850Y-23395472D01*
X36343386Y-23313405D01*
X36477962Y-23202962D01*
X36588405Y-23068386D01*
X36670472Y-22914850D01*
X36721008Y-22748254D01*
X36738072Y-22575000D01*
X36738072Y-21325000D01*
X36731670Y-21260000D01*
X37268330Y-21260000D01*
X37261928Y-21325000D01*
%TA.AperFunction,Conductor*%
D28*
G36*
X37261928Y-21325000D02*
G01*
X37261928Y-22575000D01*
X37278992Y-22748254D01*
X37329528Y-22914850D01*
X37411595Y-23068386D01*
X37522038Y-23202962D01*
X37531795Y-23210970D01*
X37352259Y-23390506D01*
X37318342Y-23418341D01*
X37290507Y-23452258D01*
X37290505Y-23452260D01*
X37207248Y-23553709D01*
X37124698Y-23708148D01*
X37073864Y-23875726D01*
X37056700Y-24050000D01*
X37061001Y-24093669D01*
X37061001Y-24144892D01*
X37019463Y-24195506D01*
X37000000Y-24231918D01*
X36980537Y-24195506D01*
X36901185Y-24098815D01*
X36804494Y-24019463D01*
X36694180Y-23960498D01*
X36574482Y-23924188D01*
X36450000Y-23911928D01*
X36335750Y-23915000D01*
X36177000Y-24073750D01*
X36177000Y-24873000D01*
X36197000Y-24873000D01*
X36197000Y-25127000D01*
X36177000Y-25127000D01*
X36177000Y-25926250D01*
X36261607Y-26010857D01*
X36245506Y-26019463D01*
X36148815Y-26098815D01*
X36138815Y-26111000D01*
X34043239Y-26111000D01*
X34042252Y-26110013D01*
X33933400Y-26037280D01*
X33955808Y-25975413D01*
X33000000Y-25019605D01*
X32044192Y-25975413D01*
X32066600Y-26037280D01*
X31957748Y-26110013D01*
X31730013Y-26337748D01*
X31602855Y-26528053D01*
X31510000Y-26435199D01*
X31510000Y-25531317D01*
X31600186Y-25700044D01*
X31864587Y-25795808D01*
X32820395Y-24840000D01*
X33179605Y-24840000D01*
X34135413Y-25795808D01*
X34399814Y-25700044D01*
X34521453Y-25450000D01*
X35011928Y-25450000D01*
X35024188Y-25574482D01*
X35060498Y-25694180D01*
X35119463Y-25804494D01*
X35198815Y-25901185D01*
X35295506Y-25980537D01*
X35405820Y-26039502D01*
X35525518Y-26075812D01*
X35650000Y-26088072D01*
X35764250Y-26085000D01*
X35923000Y-25926250D01*
X35923000Y-25127000D01*
X35173750Y-25127000D01*
X35015000Y-25285750D01*
X35011928Y-25450000D01*
X34521453Y-25450000D01*
X34540704Y-25410429D01*
X34622384Y-25098892D01*
X34641718Y-24777405D01*
X34610533Y-24550000D01*
X35011928Y-24550000D01*
X35015000Y-24714250D01*
X35173750Y-24873000D01*
X35923000Y-24873000D01*
X35923000Y-24073750D01*
X35764250Y-23915000D01*
X35650000Y-23911928D01*
X35525518Y-23924188D01*
X35405820Y-23960498D01*
X35295506Y-24019463D01*
X35198815Y-24098815D01*
X35119463Y-24195506D01*
X35060498Y-24305820D01*
X35024188Y-24425518D01*
X35011928Y-24550000D01*
X34610533Y-24550000D01*
X34597961Y-24458325D01*
X34492795Y-24153912D01*
X34399814Y-23979956D01*
X34135413Y-23884192D01*
X33179605Y-24840000D01*
X32820395Y-24840000D01*
X31864587Y-23884192D01*
X31600186Y-23979956D01*
X31510000Y-24165343D01*
X31510000Y-23787322D01*
X31513676Y-23749999D01*
X31510000Y-23712676D01*
X31510000Y-23712667D01*
X31509205Y-23704587D01*
X32044192Y-23704587D01*
X33000000Y-24660395D01*
X33955808Y-23704587D01*
X33860044Y-23440186D01*
X33570429Y-23299296D01*
X33258892Y-23217616D01*
X32937405Y-23198282D01*
X32618325Y-23242039D01*
X32313912Y-23347205D01*
X32139956Y-23440186D01*
X32044192Y-23704587D01*
X31509205Y-23704587D01*
X31499003Y-23601014D01*
X31455546Y-23457753D01*
X31384974Y-23325724D01*
X31290001Y-23209999D01*
X31261004Y-23186202D01*
X30784801Y-22710000D01*
X34175224Y-22710000D01*
X34178992Y-22748254D01*
X34229528Y-22914850D01*
X34311595Y-23068386D01*
X34422038Y-23202962D01*
X34556614Y-23313405D01*
X34710150Y-23395472D01*
X34876746Y-23446008D01*
X35050000Y-23463072D01*
X35850000Y-23463072D01*
X36023254Y-23446008D01*
X36189850Y-23395472D01*
X36343386Y-23313405D01*
X36477962Y-23202962D01*
X36588405Y-23068386D01*
X36670472Y-22914850D01*
X36721008Y-22748254D01*
X36738072Y-22575000D01*
X36738072Y-21325000D01*
X36731670Y-21260000D01*
X37268330Y-21260000D01*
X37261928Y-21325000D01*
G37*
%TD.AperFunction*%
D27*
X38977000Y-4643000D02*
X38997000Y-4643000D01*
X38997000Y-4897000D01*
X38977000Y-4897000D01*
X38977000Y-6090155D01*
X39206890Y-6211476D01*
X39354099Y-6166825D01*
X39616920Y-6041641D01*
X39850269Y-5867588D01*
X40045178Y-5651355D01*
X40114805Y-5534466D01*
X40236525Y-5716632D01*
X40443368Y-5923475D01*
X40686589Y-6085990D01*
X40956842Y-6197932D01*
X41243740Y-6255000D01*
X41536260Y-6255000D01*
X41823158Y-6197932D01*
X42093411Y-6085990D01*
X42336632Y-5923475D01*
X42543475Y-5716632D01*
X42660000Y-5542240D01*
X42776525Y-5716632D01*
X42983368Y-5923475D01*
X43226589Y-6085990D01*
X43496842Y-6197932D01*
X43783740Y-6255000D01*
X44076260Y-6255000D01*
X44363158Y-6197932D01*
X44534999Y-6126753D01*
X44535000Y-8640198D01*
X37935199Y-15240000D01*
X29453711Y-15240000D01*
X29409774Y-15196063D01*
X29240256Y-15082795D01*
X29051898Y-15004774D01*
X28851939Y-14965000D01*
X28648061Y-14965000D01*
X28448102Y-15004774D01*
X28274999Y-15076476D01*
X28274999Y-11099800D01*
X30436201Y-13261003D01*
X30459999Y-13290001D01*
X30488997Y-13313799D01*
X30575724Y-13384974D01*
X30707753Y-13455546D01*
X30851014Y-13499003D01*
X31000000Y-13513677D01*
X31037333Y-13510000D01*
X35546289Y-13510000D01*
X35590226Y-13553937D01*
X35759744Y-13667205D01*
X35948102Y-13745226D01*
X36148061Y-13785000D01*
X36351939Y-13785000D01*
X36551898Y-13745226D01*
X36740256Y-13667205D01*
X36909774Y-13553937D01*
X37053937Y-13409774D01*
X37167205Y-13240256D01*
X37245226Y-13051898D01*
X37285000Y-12851939D01*
X37285000Y-12648061D01*
X37245226Y-12448102D01*
X37167205Y-12259744D01*
X37053937Y-12090226D01*
X36909774Y-11946063D01*
X36740256Y-11832795D01*
X36551898Y-11754774D01*
X36351939Y-11715000D01*
X36148061Y-11715000D01*
X35948102Y-11754774D01*
X35759744Y-11832795D01*
X35590226Y-11946063D01*
X35546289Y-11990000D01*
X31314802Y-11990000D01*
X29510000Y-10185199D01*
X29510000Y-6008088D01*
X29636632Y-5923475D01*
X29843475Y-5716632D01*
X29960000Y-5542240D01*
X30076525Y-5716632D01*
X30283368Y-5923475D01*
X30526589Y-6085990D01*
X30796842Y-6197932D01*
X31083740Y-6255000D01*
X31376260Y-6255000D01*
X31663158Y-6197932D01*
X31933411Y-6085990D01*
X32176632Y-5923475D01*
X32383475Y-5716632D01*
X32500000Y-5542240D01*
X32616525Y-5716632D01*
X32823368Y-5923475D01*
X33066589Y-6085990D01*
X33336842Y-6197932D01*
X33623740Y-6255000D01*
X33916260Y-6255000D01*
X34203158Y-6197932D01*
X34473411Y-6085990D01*
X34716632Y-5923475D01*
X34923475Y-5716632D01*
X35040000Y-5542240D01*
X35156525Y-5716632D01*
X35363368Y-5923475D01*
X35606589Y-6085990D01*
X35876842Y-6197932D01*
X36163740Y-6255000D01*
X36456260Y-6255000D01*
X36743158Y-6197932D01*
X37013411Y-6085990D01*
X37256632Y-5923475D01*
X37463475Y-5716632D01*
X37585195Y-5534466D01*
X37654822Y-5651355D01*
X37849731Y-5867588D01*
X38083080Y-6041641D01*
X38345901Y-6166825D01*
X38493110Y-6211476D01*
X38723000Y-6090155D01*
X38723000Y-4897000D01*
X38703000Y-4897000D01*
X38703000Y-4643000D01*
X38723000Y-4643000D01*
X38723000Y-4623000D01*
X38977000Y-4623000D01*
X38977000Y-4643000D01*
%TA.AperFunction,Conductor*%
D28*
G36*
X38977000Y-4643000D02*
G01*
X38997000Y-4643000D01*
X38997000Y-4897000D01*
X38977000Y-4897000D01*
X38977000Y-6090155D01*
X39206890Y-6211476D01*
X39354099Y-6166825D01*
X39616920Y-6041641D01*
X39850269Y-5867588D01*
X40045178Y-5651355D01*
X40114805Y-5534466D01*
X40236525Y-5716632D01*
X40443368Y-5923475D01*
X40686589Y-6085990D01*
X40956842Y-6197932D01*
X41243740Y-6255000D01*
X41536260Y-6255000D01*
X41823158Y-6197932D01*
X42093411Y-6085990D01*
X42336632Y-5923475D01*
X42543475Y-5716632D01*
X42660000Y-5542240D01*
X42776525Y-5716632D01*
X42983368Y-5923475D01*
X43226589Y-6085990D01*
X43496842Y-6197932D01*
X43783740Y-6255000D01*
X44076260Y-6255000D01*
X44363158Y-6197932D01*
X44534999Y-6126753D01*
X44535000Y-8640198D01*
X37935199Y-15240000D01*
X29453711Y-15240000D01*
X29409774Y-15196063D01*
X29240256Y-15082795D01*
X29051898Y-15004774D01*
X28851939Y-14965000D01*
X28648061Y-14965000D01*
X28448102Y-15004774D01*
X28274999Y-15076476D01*
X28274999Y-11099800D01*
X30436201Y-13261003D01*
X30459999Y-13290001D01*
X30488997Y-13313799D01*
X30575724Y-13384974D01*
X30707753Y-13455546D01*
X30851014Y-13499003D01*
X31000000Y-13513677D01*
X31037333Y-13510000D01*
X35546289Y-13510000D01*
X35590226Y-13553937D01*
X35759744Y-13667205D01*
X35948102Y-13745226D01*
X36148061Y-13785000D01*
X36351939Y-13785000D01*
X36551898Y-13745226D01*
X36740256Y-13667205D01*
X36909774Y-13553937D01*
X37053937Y-13409774D01*
X37167205Y-13240256D01*
X37245226Y-13051898D01*
X37285000Y-12851939D01*
X37285000Y-12648061D01*
X37245226Y-12448102D01*
X37167205Y-12259744D01*
X37053937Y-12090226D01*
X36909774Y-11946063D01*
X36740256Y-11832795D01*
X36551898Y-11754774D01*
X36351939Y-11715000D01*
X36148061Y-11715000D01*
X35948102Y-11754774D01*
X35759744Y-11832795D01*
X35590226Y-11946063D01*
X35546289Y-11990000D01*
X31314802Y-11990000D01*
X29510000Y-10185199D01*
X29510000Y-6008088D01*
X29636632Y-5923475D01*
X29843475Y-5716632D01*
X29960000Y-5542240D01*
X30076525Y-5716632D01*
X30283368Y-5923475D01*
X30526589Y-6085990D01*
X30796842Y-6197932D01*
X31083740Y-6255000D01*
X31376260Y-6255000D01*
X31663158Y-6197932D01*
X31933411Y-6085990D01*
X32176632Y-5923475D01*
X32383475Y-5716632D01*
X32500000Y-5542240D01*
X32616525Y-5716632D01*
X32823368Y-5923475D01*
X33066589Y-6085990D01*
X33336842Y-6197932D01*
X33623740Y-6255000D01*
X33916260Y-6255000D01*
X34203158Y-6197932D01*
X34473411Y-6085990D01*
X34716632Y-5923475D01*
X34923475Y-5716632D01*
X35040000Y-5542240D01*
X35156525Y-5716632D01*
X35363368Y-5923475D01*
X35606589Y-6085990D01*
X35876842Y-6197932D01*
X36163740Y-6255000D01*
X36456260Y-6255000D01*
X36743158Y-6197932D01*
X37013411Y-6085990D01*
X37256632Y-5923475D01*
X37463475Y-5716632D01*
X37585195Y-5534466D01*
X37654822Y-5651355D01*
X37849731Y-5867588D01*
X38083080Y-6041641D01*
X38345901Y-6166825D01*
X38493110Y-6211476D01*
X38723000Y-6090155D01*
X38723000Y-4897000D01*
X38703000Y-4897000D01*
X38703000Y-4643000D01*
X38723000Y-4643000D01*
X38723000Y-4623000D01*
X38977000Y-4623000D01*
X38977000Y-4643000D01*
G37*
%TD.AperFunction*%
D27*
X19916525Y-3176632D02*
X20123368Y-3383475D01*
X20297760Y-3500000D01*
X20123368Y-3616525D01*
X19916525Y-3823368D01*
X19794805Y-4005534D01*
X19725178Y-3888645D01*
X19530269Y-3672412D01*
X19300594Y-3501100D01*
X19476632Y-3383475D01*
X19683475Y-3176632D01*
X19800000Y-3002240D01*
X19916525Y-3176632D01*
%TA.AperFunction,Conductor*%
D28*
G36*
X19916525Y-3176632D02*
G01*
X20123368Y-3383475D01*
X20297760Y-3500000D01*
X20123368Y-3616525D01*
X19916525Y-3823368D01*
X19794805Y-4005534D01*
X19725178Y-3888645D01*
X19530269Y-3672412D01*
X19300594Y-3501100D01*
X19476632Y-3383475D01*
X19683475Y-3176632D01*
X19800000Y-3002240D01*
X19916525Y-3176632D01*
G37*
%TD.AperFunction*%
D27*
X22414822Y-3111355D02*
X22609731Y-3327588D01*
X22839406Y-3498900D01*
X22663368Y-3616525D01*
X22456525Y-3823368D01*
X22340000Y-3997760D01*
X22223475Y-3823368D01*
X22016632Y-3616525D01*
X21842240Y-3500000D01*
X22016632Y-3383475D01*
X22223475Y-3176632D01*
X22345195Y-2994466D01*
X22414822Y-3111355D01*
%TA.AperFunction,Conductor*%
D28*
G36*
X22414822Y-3111355D02*
G01*
X22609731Y-3327588D01*
X22839406Y-3498900D01*
X22663368Y-3616525D01*
X22456525Y-3823368D01*
X22340000Y-3997760D01*
X22223475Y-3823368D01*
X22016632Y-3616525D01*
X21842240Y-3500000D01*
X22016632Y-3383475D01*
X22223475Y-3176632D01*
X22345195Y-2994466D01*
X22414822Y-3111355D01*
G37*
%TD.AperFunction*%
%TD*%
D29*
%TO.N,VCC*%
X12150000Y-3169999D02*
X11571266Y-3169999D01*
X11737302Y-3028794D01*
X11877243Y-2852047D01*
X11980013Y-2651395D01*
X12041663Y-2434549D01*
X11984729Y-2255000D01*
X10935000Y-2255000D01*
X10935000Y-2275000D01*
X10885000Y-2275000D01*
X10885000Y-2255000D01*
X9835271Y-2255000D01*
X9778337Y-2434549D01*
X9839987Y-2651395D01*
X9942757Y-2852047D01*
X10082698Y-3028794D01*
X10246492Y-3168093D01*
X10227134Y-3169999D01*
X10227127Y-3169999D01*
X10164687Y-3176149D01*
X10084573Y-3200451D01*
X10058856Y-3214198D01*
X10010741Y-3239915D01*
X9946027Y-3293025D01*
X9932722Y-3309237D01*
X9477192Y-3764768D01*
X9470647Y-3752523D01*
X9433158Y-3706842D01*
X9387477Y-3669353D01*
X9335360Y-3641496D01*
X9278810Y-3624341D01*
X9220000Y-3618549D01*
X7520000Y-3618549D01*
X7461190Y-3624341D01*
X7404640Y-3641496D01*
X7352523Y-3669353D01*
X7306842Y-3706842D01*
X7269353Y-3752523D01*
X7241496Y-3804640D01*
X7224341Y-3861190D01*
X7218549Y-3920000D01*
X7218549Y-5620000D01*
X7224341Y-5678810D01*
X7241496Y-5735360D01*
X7269353Y-5787477D01*
X7306842Y-5833158D01*
X7352523Y-5870647D01*
X7404640Y-5898504D01*
X7461190Y-5915659D01*
X7520000Y-5921451D01*
X7945000Y-5921451D01*
X7945001Y-8725958D01*
X7520959Y-9150000D01*
X7119305Y-9150000D01*
X7106211Y-2434549D01*
X7238337Y-2434549D01*
X7299987Y-2651395D01*
X7402757Y-2852047D01*
X7542698Y-3028794D01*
X7714431Y-3174844D01*
X7911357Y-3284584D01*
X8125909Y-3353797D01*
X8165451Y-3361662D01*
X8345000Y-3304709D01*
X8345000Y-2255000D01*
X8395000Y-2255000D01*
X8395000Y-3304709D01*
X8574549Y-3361662D01*
X8614091Y-3353797D01*
X8828643Y-3284584D01*
X9025569Y-3174844D01*
X9197302Y-3028794D01*
X9337243Y-2852047D01*
X9440013Y-2651395D01*
X9501663Y-2434549D01*
X9444729Y-2255000D01*
X8395000Y-2255000D01*
X8345000Y-2255000D01*
X7295271Y-2255000D01*
X7238337Y-2434549D01*
X7106211Y-2434549D01*
X7105414Y-2025451D01*
X7238337Y-2025451D01*
X7295271Y-2205000D01*
X8345000Y-2205000D01*
X8345000Y-1155291D01*
X8395000Y-1155291D01*
X8395000Y-2205000D01*
X9444729Y-2205000D01*
X9501663Y-2025451D01*
X9778337Y-2025451D01*
X9835271Y-2205000D01*
X10885000Y-2205000D01*
X10885000Y-1155291D01*
X10935000Y-1155291D01*
X10935000Y-2205000D01*
X11984729Y-2205000D01*
X12041663Y-2025451D01*
X11980013Y-1808605D01*
X11877243Y-1607953D01*
X11737302Y-1431206D01*
X11565569Y-1285156D01*
X11368643Y-1175416D01*
X11154091Y-1106203D01*
X11114549Y-1098338D01*
X10935000Y-1155291D01*
X10885000Y-1155291D01*
X10705451Y-1098338D01*
X10665909Y-1106203D01*
X10451357Y-1175416D01*
X10254431Y-1285156D01*
X10082698Y-1431206D01*
X9942757Y-1607953D01*
X9839987Y-1808605D01*
X9778337Y-2025451D01*
X9501663Y-2025451D01*
X9440013Y-1808605D01*
X9337243Y-1607953D01*
X9197302Y-1431206D01*
X9025569Y-1285156D01*
X8828643Y-1175416D01*
X8614091Y-1106203D01*
X8574549Y-1098338D01*
X8395000Y-1155291D01*
X8345000Y-1155291D01*
X8165451Y-1098338D01*
X8125909Y-1106203D01*
X7911357Y-1175416D01*
X7714431Y-1285156D01*
X7542698Y-1431206D01*
X7402757Y-1607953D01*
X7299987Y-1808605D01*
X7238337Y-2025451D01*
X7105414Y-2025451D01*
X7102194Y-375000D01*
X12150000Y-375000D01*
X12150000Y-3169999D01*
%TA.AperFunction,Conductor*%
D28*
G36*
X12150000Y-3169999D02*
G01*
X11571266Y-3169999D01*
X11737302Y-3028794D01*
X11877243Y-2852047D01*
X11980013Y-2651395D01*
X12041663Y-2434549D01*
X11984729Y-2255000D01*
X10935000Y-2255000D01*
X10935000Y-2275000D01*
X10885000Y-2275000D01*
X10885000Y-2255000D01*
X9835271Y-2255000D01*
X9778337Y-2434549D01*
X9839987Y-2651395D01*
X9942757Y-2852047D01*
X10082698Y-3028794D01*
X10246492Y-3168093D01*
X10227134Y-3169999D01*
X10227127Y-3169999D01*
X10164687Y-3176149D01*
X10084573Y-3200451D01*
X10058856Y-3214198D01*
X10010741Y-3239915D01*
X9946027Y-3293025D01*
X9932722Y-3309237D01*
X9477192Y-3764768D01*
X9470647Y-3752523D01*
X9433158Y-3706842D01*
X9387477Y-3669353D01*
X9335360Y-3641496D01*
X9278810Y-3624341D01*
X9220000Y-3618549D01*
X7520000Y-3618549D01*
X7461190Y-3624341D01*
X7404640Y-3641496D01*
X7352523Y-3669353D01*
X7306842Y-3706842D01*
X7269353Y-3752523D01*
X7241496Y-3804640D01*
X7224341Y-3861190D01*
X7218549Y-3920000D01*
X7218549Y-5620000D01*
X7224341Y-5678810D01*
X7241496Y-5735360D01*
X7269353Y-5787477D01*
X7306842Y-5833158D01*
X7352523Y-5870647D01*
X7404640Y-5898504D01*
X7461190Y-5915659D01*
X7520000Y-5921451D01*
X7945000Y-5921451D01*
X7945001Y-8725958D01*
X7520959Y-9150000D01*
X7119305Y-9150000D01*
X7106211Y-2434549D01*
X7238337Y-2434549D01*
X7299987Y-2651395D01*
X7402757Y-2852047D01*
X7542698Y-3028794D01*
X7714431Y-3174844D01*
X7911357Y-3284584D01*
X8125909Y-3353797D01*
X8165451Y-3361662D01*
X8345000Y-3304709D01*
X8345000Y-2255000D01*
X8395000Y-2255000D01*
X8395000Y-3304709D01*
X8574549Y-3361662D01*
X8614091Y-3353797D01*
X8828643Y-3284584D01*
X9025569Y-3174844D01*
X9197302Y-3028794D01*
X9337243Y-2852047D01*
X9440013Y-2651395D01*
X9501663Y-2434549D01*
X9444729Y-2255000D01*
X8395000Y-2255000D01*
X8345000Y-2255000D01*
X7295271Y-2255000D01*
X7238337Y-2434549D01*
X7106211Y-2434549D01*
X7105414Y-2025451D01*
X7238337Y-2025451D01*
X7295271Y-2205000D01*
X8345000Y-2205000D01*
X8345000Y-1155291D01*
X8395000Y-1155291D01*
X8395000Y-2205000D01*
X9444729Y-2205000D01*
X9501663Y-2025451D01*
X9778337Y-2025451D01*
X9835271Y-2205000D01*
X10885000Y-2205000D01*
X10885000Y-1155291D01*
X10935000Y-1155291D01*
X10935000Y-2205000D01*
X11984729Y-2205000D01*
X12041663Y-2025451D01*
X11980013Y-1808605D01*
X11877243Y-1607953D01*
X11737302Y-1431206D01*
X11565569Y-1285156D01*
X11368643Y-1175416D01*
X11154091Y-1106203D01*
X11114549Y-1098338D01*
X10935000Y-1155291D01*
X10885000Y-1155291D01*
X10705451Y-1098338D01*
X10665909Y-1106203D01*
X10451357Y-1175416D01*
X10254431Y-1285156D01*
X10082698Y-1431206D01*
X9942757Y-1607953D01*
X9839987Y-1808605D01*
X9778337Y-2025451D01*
X9501663Y-2025451D01*
X9440013Y-1808605D01*
X9337243Y-1607953D01*
X9197302Y-1431206D01*
X9025569Y-1285156D01*
X8828643Y-1175416D01*
X8614091Y-1106203D01*
X8574549Y-1098338D01*
X8395000Y-1155291D01*
X8345000Y-1155291D01*
X8165451Y-1098338D01*
X8125909Y-1106203D01*
X7911357Y-1175416D01*
X7714431Y-1285156D01*
X7542698Y-1431206D01*
X7402757Y-1607953D01*
X7299987Y-1808605D01*
X7238337Y-2025451D01*
X7105414Y-2025451D01*
X7102194Y-375000D01*
X12150000Y-375000D01*
X12150000Y-3169999D01*
G37*
%TD.AperFunction*%
D29*
X12150000Y-9150000D02*
X11335000Y-9150000D01*
X11335000Y-5838710D01*
X11454729Y-5789116D01*
X11643082Y-5663263D01*
X11803263Y-5503082D01*
X11929116Y-5314729D01*
X12015806Y-5105443D01*
X12060000Y-4883265D01*
X12060000Y-4656735D01*
X12015806Y-4434557D01*
X11929116Y-4225271D01*
X11803263Y-4036918D01*
X11786344Y-4019999D01*
X12150000Y-4019999D01*
X12150000Y-9150000D01*
%TA.AperFunction,Conductor*%
D28*
G36*
X12150000Y-9150000D02*
G01*
X11335000Y-9150000D01*
X11335000Y-5838710D01*
X11454729Y-5789116D01*
X11643082Y-5663263D01*
X11803263Y-5503082D01*
X11929116Y-5314729D01*
X12015806Y-5105443D01*
X12060000Y-4883265D01*
X12060000Y-4656735D01*
X12015806Y-4434557D01*
X11929116Y-4225271D01*
X11803263Y-4036918D01*
X11786344Y-4019999D01*
X12150000Y-4019999D01*
X12150000Y-9150000D01*
G37*
%TD.AperFunction*%
%TD*%
M02*
