M48
; DRILL file {KiCad (5.1.9-0-10_14)} date Tuesday, November 09, 2021 at 10:49:25 PM
; FORMAT={-:-/ absolute / inch / decimal}
; #@! TF.CreationDate,2021-11-09T22:49:25+01:00
; #@! TF.GenerationSoftware,Kicad,Pcbnew,(5.1.9-0-10_14)
; #@! TF.FileFunction,Plated,1,2,PTH
FMAT,2
INCH
T1C0.0157
T2C0.0315
T3C0.0394
T4C0.0598
%
G90
G05
T1
X0.4623Y-0.2657
X0.4626Y-0.3051
X0.4626Y-0.3445
X0.7283Y-1.5748
X0.935Y-0.6299
X1.1319Y-0.6299
X1.4272Y-0.502
X1.4272Y-1.5748
X2.126Y-0.5906
T2
X0.6449Y-1.2205
X0.6449Y-1.3205
X0.9449Y-1.2205
X0.9449Y-1.3205
X1.6291Y-1.2189
X1.6291Y-1.3189
X1.9291Y-1.2189
X1.9291Y-1.3189
T3
X0.3295Y-0.0878
X0.3295Y-0.1878
X0.4295Y-0.0878
X0.4295Y-0.1878
X0.5295Y-0.0878
X0.5295Y-0.1878
X0.6295Y-0.0878
X0.6295Y-0.1878
X0.7295Y-0.0878
X0.7295Y-0.1878
X0.8295Y-0.0878
X0.8295Y-0.1878
X0.9295Y-0.0878
X0.9295Y-0.1878
X1.0295Y-0.0878
X1.0295Y-0.1878
X1.0992Y-0.978
X1.0992Y-1.078
X1.0992Y-1.378
X1.1295Y-0.0878
X1.1295Y-0.1878
X1.2295Y-0.0878
X1.2295Y-0.1878
X1.2992Y-0.978
X1.2992Y-1.078
X1.2992Y-1.378
X1.3295Y-0.0878
X1.3295Y-0.1878
X1.4295Y-0.0878
X1.4295Y-0.1878
X1.5295Y-0.0878
X1.5295Y-0.1878
X1.6295Y-0.0878
X1.6295Y-0.1878
X1.7295Y-0.0878
X1.7295Y-0.1878
X1.8295Y-0.0878
X1.8295Y-0.1878
X1.9295Y-0.0878
X1.9295Y-0.1878
X2.0295Y-0.0878
X2.0295Y-0.1878
X2.0835Y-0.978
X2.0835Y-1.078
X2.0835Y-1.378
X2.1295Y-0.0878
X2.1295Y-0.1878
X2.2295Y-0.0878
X2.2295Y-0.1878
X2.2835Y-0.978
X2.2835Y-1.078
X2.2835Y-1.378
X2.4803Y-0.5185
X2.4803Y-0.6185
X2.4803Y-0.7185
T4
X1.0598Y-2.1063
X1.2598Y-2.1063
X1.4598Y-2.1063
X1.6598Y-2.1063
X1.8598Y-2.1063
X2.0598Y-2.1063
T3
G00X0.1476Y-1.5059
M15
G01X0.1476Y-1.5846
M16
G05
G00X0.2264Y-1.7303
M15
G01X0.3051Y-1.7303
M16
G05
G00X0.3839Y-1.5059
M15
G01X0.3839Y-1.5846
M16
G05
T0
M30
