%TF.GenerationSoftware,KiCad,Pcbnew,(5.1.9-0-10_14)*%
%TF.CreationDate,2021-11-09T22:49:23+01:00*%
%TF.ProjectId,xDoor,78446f6f-722e-46b6-9963-61645f706362,rev?*%
%TF.SameCoordinates,Original*%
%TF.FileFunction,Soldermask,Bot*%
%TF.FilePolarity,Negative*%
%FSLAX46Y46*%
G04 Gerber Fmt 4.6, Leading zero omitted, Abs format (unit mm)*
G04 Created by KiCad (PCBNEW (5.1.9-0-10_14)) date 2021-11-09 22:49:23*
%MOMM*%
%LPD*%
G01*
G04 APERTURE LIST*
%ADD10O,1.700000X1.700000*%
%ADD11R,1.700000X1.700000*%
%ADD12C,3.000000*%
%ADD13R,3.000000X3.000000*%
%ADD14C,5.700000*%
%ADD15O,1.600000X1.600000*%
%ADD16R,1.600000X1.600000*%
%ADD17C,2.000000*%
%ADD18R,2.000000X2.000000*%
%ADD19R,3.500000X3.500000*%
G04 APERTURE END LIST*
D10*
%TO.C,J5*%
X63000000Y-18250000D03*
X63000000Y-15710000D03*
D11*
X63000000Y-13170000D03*
%TD*%
D12*
%TO.C,J3*%
X52320000Y-53500000D03*
X47240000Y-53500000D03*
X42160000Y-53500000D03*
D13*
X26920000Y-53500000D03*
D12*
X37080000Y-53500000D03*
X32000000Y-53500000D03*
%TD*%
D14*
%TO.C,H4*%
X61500000Y-52500000D03*
%TD*%
%TO.C,H3*%
X61500000Y-3500000D03*
%TD*%
%TO.C,H2*%
X3500000Y-52500000D03*
%TD*%
%TO.C,H1*%
X3500000Y-3500000D03*
%TD*%
D15*
%TO.C,U2*%
X41380000Y-33500000D03*
X49000000Y-30960000D03*
X41380000Y-30960000D03*
D16*
X49000000Y-33500000D03*
%TD*%
D15*
%TO.C,U1*%
X16380000Y-33540000D03*
X24000000Y-31000000D03*
X16380000Y-31000000D03*
D16*
X24000000Y-33540000D03*
%TD*%
D17*
%TO.C,K2*%
X52920000Y-35000000D03*
X58000000Y-35000000D03*
X52920000Y-27380000D03*
D18*
X52920000Y-24840000D03*
D17*
X58000000Y-27380000D03*
X58000000Y-24840000D03*
%TD*%
%TO.C,K1*%
X27920000Y-35000000D03*
X33000000Y-35000000D03*
X27920000Y-27380000D03*
D18*
X27920000Y-24840000D03*
D17*
X33000000Y-27380000D03*
X33000000Y-24840000D03*
%TD*%
%TO.C,J2*%
G36*
G01*
X5000000Y-44825000D02*
X5000000Y-43075000D01*
G75*
G02*
X5875000Y-42200000I875000J0D01*
G01*
X7625000Y-42200000D01*
G75*
G02*
X8500000Y-43075000I0J-875000D01*
G01*
X8500000Y-44825000D01*
G75*
G02*
X7625000Y-45700000I-875000J0D01*
G01*
X5875000Y-45700000D01*
G75*
G02*
X5000000Y-44825000I0J875000D01*
G01*
G37*
G36*
G01*
X2250000Y-40250000D02*
X2250000Y-38250000D01*
G75*
G02*
X3000000Y-37500000I750000J0D01*
G01*
X4500000Y-37500000D01*
G75*
G02*
X5250000Y-38250000I0J-750000D01*
G01*
X5250000Y-40250000D01*
G75*
G02*
X4500000Y-41000000I-750000J0D01*
G01*
X3000000Y-41000000D01*
G75*
G02*
X2250000Y-40250000I0J750000D01*
G01*
G37*
D19*
X9750000Y-39250000D03*
%TD*%
D10*
%TO.C,J1*%
X56630000Y-2230000D03*
X56630000Y-4770000D03*
X54090000Y-2230000D03*
X54090000Y-4770000D03*
X51550000Y-2230000D03*
X51550000Y-4770000D03*
X49010000Y-2230000D03*
X49010000Y-4770000D03*
X46470000Y-2230000D03*
X46470000Y-4770000D03*
X43930000Y-2230000D03*
X43930000Y-4770000D03*
X41390000Y-2230000D03*
X41390000Y-4770000D03*
X38850000Y-2230000D03*
X38850000Y-4770000D03*
X36310000Y-2230000D03*
X36310000Y-4770000D03*
X33770000Y-2230000D03*
X33770000Y-4770000D03*
X31230000Y-2230000D03*
X31230000Y-4770000D03*
X28690000Y-2230000D03*
X28690000Y-4770000D03*
X26150000Y-2230000D03*
X26150000Y-4770000D03*
X23610000Y-2230000D03*
X23610000Y-4770000D03*
X21070000Y-2230000D03*
X21070000Y-4770000D03*
X18530000Y-2230000D03*
X18530000Y-4770000D03*
X15990000Y-2230000D03*
X15990000Y-4770000D03*
X13450000Y-2230000D03*
X13450000Y-4770000D03*
X10910000Y-2230000D03*
X10910000Y-4770000D03*
X8370000Y-2230000D03*
D11*
X8370000Y-4770000D03*
%TD*%
M02*
