%TF.GenerationSoftware,KiCad,Pcbnew,(5.1.9-0-10_14)*%
%TF.CreationDate,2021-11-09T22:49:23+01:00*%
%TF.ProjectId,xDoor,78446f6f-722e-46b6-9963-61645f706362,rev?*%
%TF.SameCoordinates,Original*%
%TF.FileFunction,Legend,Top*%
%TF.FilePolarity,Positive*%
%FSLAX46Y46*%
G04 Gerber Fmt 4.6, Leading zero omitted, Abs format (unit mm)*
G04 Created by KiCad (PCBNEW (5.1.9-0-10_14)) date 2021-11-09 22:49:23*
%MOMM*%
%LPD*%
G01*
G04 APERTURE LIST*
%ADD10C,0.200000*%
%ADD11C,1.000000*%
%ADD12C,0.300000*%
%ADD13C,0.100000*%
%ADD14C,0.120000*%
%ADD15C,0.150000*%
G04 APERTURE END LIST*
D10*
X27142857Y-7702380D02*
X27666666Y-7035714D01*
X27142857Y-7035714D02*
X27666666Y-7702380D01*
X28047619Y-7702380D02*
X28047619Y-6702380D01*
X28285714Y-6702380D01*
X28428571Y-6750000D01*
X28523809Y-6845238D01*
X28571428Y-6940476D01*
X28619047Y-7130952D01*
X28619047Y-7273809D01*
X28571428Y-7464285D01*
X28523809Y-7559523D01*
X28428571Y-7654761D01*
X28285714Y-7702380D01*
X28047619Y-7702380D01*
X29190476Y-7702380D02*
X29095238Y-7654761D01*
X29047619Y-7607142D01*
X29000000Y-7511904D01*
X29000000Y-7226190D01*
X29047619Y-7130952D01*
X29095238Y-7083333D01*
X29190476Y-7035714D01*
X29333333Y-7035714D01*
X29428571Y-7083333D01*
X29476190Y-7130952D01*
X29523809Y-7226190D01*
X29523809Y-7511904D01*
X29476190Y-7607142D01*
X29428571Y-7654761D01*
X29333333Y-7702380D01*
X29190476Y-7702380D01*
X30095238Y-7702380D02*
X30000000Y-7654761D01*
X29952380Y-7607142D01*
X29904761Y-7511904D01*
X29904761Y-7226190D01*
X29952380Y-7130952D01*
X30000000Y-7083333D01*
X30095238Y-7035714D01*
X30238095Y-7035714D01*
X30333333Y-7083333D01*
X30380952Y-7130952D01*
X30428571Y-7226190D01*
X30428571Y-7511904D01*
X30380952Y-7607142D01*
X30333333Y-7654761D01*
X30238095Y-7702380D01*
X30095238Y-7702380D01*
X30857142Y-7702380D02*
X30857142Y-7035714D01*
X30857142Y-7226190D02*
X30904761Y-7130952D01*
X30952380Y-7083333D01*
X31047619Y-7035714D01*
X31142857Y-7035714D01*
X32666666Y-7702380D02*
X32666666Y-6702380D01*
X32666666Y-7654761D02*
X32571428Y-7702380D01*
X32380952Y-7702380D01*
X32285714Y-7654761D01*
X32238095Y-7607142D01*
X32190476Y-7511904D01*
X32190476Y-7226190D01*
X32238095Y-7130952D01*
X32285714Y-7083333D01*
X32380952Y-7035714D01*
X32571428Y-7035714D01*
X32666666Y-7083333D01*
X33285714Y-7702380D02*
X33190476Y-7654761D01*
X33142857Y-7607142D01*
X33095238Y-7511904D01*
X33095238Y-7226190D01*
X33142857Y-7130952D01*
X33190476Y-7083333D01*
X33285714Y-7035714D01*
X33428571Y-7035714D01*
X33523809Y-7083333D01*
X33571428Y-7130952D01*
X33619047Y-7226190D01*
X33619047Y-7511904D01*
X33571428Y-7607142D01*
X33523809Y-7654761D01*
X33428571Y-7702380D01*
X33285714Y-7702380D01*
X34047619Y-7035714D02*
X34047619Y-7702380D01*
X34047619Y-7130952D02*
X34095238Y-7083333D01*
X34190476Y-7035714D01*
X34333333Y-7035714D01*
X34428571Y-7083333D01*
X34476190Y-7178571D01*
X34476190Y-7702380D01*
X35333333Y-7654761D02*
X35238095Y-7702380D01*
X35047619Y-7702380D01*
X34952380Y-7654761D01*
X34904761Y-7559523D01*
X34904761Y-7178571D01*
X34952380Y-7083333D01*
X35047619Y-7035714D01*
X35238095Y-7035714D01*
X35333333Y-7083333D01*
X35380952Y-7178571D01*
X35380952Y-7273809D01*
X34904761Y-7369047D01*
X36571428Y-7702380D02*
X36571428Y-7035714D01*
X36571428Y-6702380D02*
X36523809Y-6750000D01*
X36571428Y-6797619D01*
X36619047Y-6750000D01*
X36571428Y-6702380D01*
X36571428Y-6797619D01*
X37047619Y-7035714D02*
X37047619Y-7702380D01*
X37047619Y-7130952D02*
X37095238Y-7083333D01*
X37190476Y-7035714D01*
X37333333Y-7035714D01*
X37428571Y-7083333D01*
X37476190Y-7178571D01*
X37476190Y-7702380D01*
X38714285Y-7702380D02*
X38714285Y-6702380D01*
X39285714Y-7702380D02*
X38857142Y-7130952D01*
X39285714Y-6702380D02*
X38714285Y-7273809D01*
X39714285Y-7702380D02*
X39714285Y-7035714D01*
X39714285Y-6702380D02*
X39666666Y-6750000D01*
X39714285Y-6797619D01*
X39761904Y-6750000D01*
X39714285Y-6702380D01*
X39714285Y-6797619D01*
X40761904Y-7607142D02*
X40714285Y-7654761D01*
X40571428Y-7702380D01*
X40476190Y-7702380D01*
X40333333Y-7654761D01*
X40238095Y-7559523D01*
X40190476Y-7464285D01*
X40142857Y-7273809D01*
X40142857Y-7130952D01*
X40190476Y-6940476D01*
X40238095Y-6845238D01*
X40333333Y-6750000D01*
X40476190Y-6702380D01*
X40571428Y-6702380D01*
X40714285Y-6750000D01*
X40761904Y-6797619D01*
X41619047Y-7702380D02*
X41619047Y-7178571D01*
X41571428Y-7083333D01*
X41476190Y-7035714D01*
X41285714Y-7035714D01*
X41190476Y-7083333D01*
X41619047Y-7654761D02*
X41523809Y-7702380D01*
X41285714Y-7702380D01*
X41190476Y-7654761D01*
X41142857Y-7559523D01*
X41142857Y-7464285D01*
X41190476Y-7369047D01*
X41285714Y-7321428D01*
X41523809Y-7321428D01*
X41619047Y-7273809D01*
X42523809Y-7702380D02*
X42523809Y-6702380D01*
X42523809Y-7654761D02*
X42428571Y-7702380D01*
X42238095Y-7702380D01*
X42142857Y-7654761D01*
X42095238Y-7607142D01*
X42047619Y-7511904D01*
X42047619Y-7226190D01*
X42095238Y-7130952D01*
X42142857Y-7083333D01*
X42238095Y-7035714D01*
X42428571Y-7035714D01*
X42523809Y-7083333D01*
X44380952Y-7226190D02*
X44333333Y-7178571D01*
X44238095Y-7130952D01*
X44142857Y-7130952D01*
X44047619Y-7178571D01*
X44000000Y-7226190D01*
X43952380Y-7321428D01*
X43952380Y-7416666D01*
X44000000Y-7511904D01*
X44047619Y-7559523D01*
X44142857Y-7607142D01*
X44238095Y-7607142D01*
X44333333Y-7559523D01*
X44380952Y-7511904D01*
X44380952Y-7130952D02*
X44380952Y-7511904D01*
X44428571Y-7559523D01*
X44476190Y-7559523D01*
X44571428Y-7511904D01*
X44619047Y-7416666D01*
X44619047Y-7178571D01*
X44523809Y-7035714D01*
X44380952Y-6940476D01*
X44190476Y-6892857D01*
X44000000Y-6940476D01*
X43857142Y-7035714D01*
X43761904Y-7178571D01*
X43714285Y-7369047D01*
X43761904Y-7559523D01*
X43857142Y-7702380D01*
X44000000Y-7797619D01*
X44190476Y-7845238D01*
X44380952Y-7797619D01*
X44523809Y-7702380D01*
X45476190Y-7702380D02*
X45476190Y-6702380D01*
X45476190Y-7654761D02*
X45380952Y-7702380D01*
X45190476Y-7702380D01*
X45095238Y-7654761D01*
X45047619Y-7607142D01*
X45000000Y-7511904D01*
X45000000Y-7226190D01*
X45047619Y-7130952D01*
X45095238Y-7083333D01*
X45190476Y-7035714D01*
X45380952Y-7035714D01*
X45476190Y-7083333D01*
X46380952Y-7702380D02*
X46380952Y-7178571D01*
X46333333Y-7083333D01*
X46238095Y-7035714D01*
X46047619Y-7035714D01*
X45952380Y-7083333D01*
X46380952Y-7654761D02*
X46285714Y-7702380D01*
X46047619Y-7702380D01*
X45952380Y-7654761D01*
X45904761Y-7559523D01*
X45904761Y-7464285D01*
X45952380Y-7369047D01*
X46047619Y-7321428D01*
X46285714Y-7321428D01*
X46380952Y-7273809D01*
X46761904Y-7035714D02*
X46999999Y-7702380D01*
X47238095Y-7035714D01*
X47999999Y-7654761D02*
X47904761Y-7702380D01*
X47714285Y-7702380D01*
X47619047Y-7654761D01*
X47571428Y-7559523D01*
X47571428Y-7178571D01*
X47619047Y-7083333D01*
X47714285Y-7035714D01*
X47904761Y-7035714D01*
X47999999Y-7083333D01*
X48047619Y-7178571D01*
X48047619Y-7273809D01*
X47571428Y-7369047D01*
X48904761Y-7702380D02*
X48904761Y-6702380D01*
X48904761Y-7654761D02*
X48809523Y-7702380D01*
X48619047Y-7702380D01*
X48523809Y-7654761D01*
X48476190Y-7607142D01*
X48428571Y-7511904D01*
X48428571Y-7226190D01*
X48476190Y-7130952D01*
X48523809Y-7083333D01*
X48619047Y-7035714D01*
X48809523Y-7035714D01*
X48904761Y-7083333D01*
X49809523Y-7702380D02*
X49809523Y-7178571D01*
X49761904Y-7083333D01*
X49666666Y-7035714D01*
X49476190Y-7035714D01*
X49380952Y-7083333D01*
X49809523Y-7654761D02*
X49714285Y-7702380D01*
X49476190Y-7702380D01*
X49380952Y-7654761D01*
X49333333Y-7559523D01*
X49333333Y-7464285D01*
X49380952Y-7369047D01*
X49476190Y-7321428D01*
X49714285Y-7321428D01*
X49809523Y-7273809D01*
X50285714Y-7702380D02*
X50285714Y-7035714D01*
X50285714Y-7226190D02*
X50333333Y-7130952D01*
X50380952Y-7083333D01*
X50476190Y-7035714D01*
X50571428Y-7035714D01*
X50904761Y-7702380D02*
X50904761Y-6702380D01*
X50999999Y-7321428D02*
X51285714Y-7702380D01*
X51285714Y-7035714D02*
X50904761Y-7416666D01*
X51857142Y-7702380D02*
X51761904Y-7654761D01*
X51714285Y-7607142D01*
X51666666Y-7511904D01*
X51666666Y-7226190D01*
X51714285Y-7130952D01*
X51761904Y-7083333D01*
X51857142Y-7035714D01*
X51999999Y-7035714D01*
X52095238Y-7083333D01*
X52142857Y-7130952D01*
X52190476Y-7226190D01*
X52190476Y-7511904D01*
X52142857Y-7607142D01*
X52095238Y-7654761D01*
X51999999Y-7702380D01*
X51857142Y-7702380D01*
X53380952Y-7702380D02*
X53380952Y-6702380D01*
X53952380Y-7702380D01*
X53952380Y-6702380D01*
X54619047Y-6702380D02*
X54809523Y-6702380D01*
X54904761Y-6750000D01*
X54999999Y-6845238D01*
X55047619Y-7035714D01*
X55047619Y-7369047D01*
X54999999Y-7559523D01*
X54904761Y-7654761D01*
X54809523Y-7702380D01*
X54619047Y-7702380D01*
X54523809Y-7654761D01*
X54428571Y-7559523D01*
X54380952Y-7369047D01*
X54380952Y-7035714D01*
X54428571Y-6845238D01*
X54523809Y-6750000D01*
X54619047Y-6702380D01*
X55333333Y-6702380D02*
X55666666Y-7702380D01*
X55999999Y-6702380D01*
X56285714Y-6797619D02*
X56333333Y-6750000D01*
X56428571Y-6702380D01*
X56666666Y-6702380D01*
X56761904Y-6750000D01*
X56809523Y-6797619D01*
X56857142Y-6892857D01*
X56857142Y-6988095D01*
X56809523Y-7130952D01*
X56238095Y-7702380D01*
X56857142Y-7702380D01*
X57809523Y-7702380D02*
X57238095Y-7702380D01*
X57523809Y-7702380D02*
X57523809Y-6702380D01*
X57428571Y-6845238D01*
X57333333Y-6940476D01*
X57238095Y-6988095D01*
D11*
X51500000Y-47000000D02*
X53500000Y-47000000D01*
D12*
X47500000Y-47500000D02*
X47500000Y-51500000D01*
D11*
X32000000Y-46000000D02*
X32000000Y-48000000D01*
X33000000Y-47000000D02*
X31000000Y-47000000D01*
X26000000Y-47000000D02*
X28000000Y-47000000D01*
X42000000Y-42000000D02*
X44000000Y-42000000D01*
X42000000Y-51000000D02*
X42000000Y-42000000D01*
X37000000Y-42000000D02*
X35500000Y-42000000D01*
X37000000Y-51000000D02*
X37000000Y-42000000D01*
D13*
%TO.C,kibuzzard-618517C8*%
G36*
X57342650Y-17387295D02*
G01*
X57613319Y-17995026D01*
X57714125Y-17942192D01*
X57822869Y-17910492D01*
X57939550Y-17899925D01*
X58062140Y-17913683D01*
X58180144Y-17954958D01*
X58293562Y-18023750D01*
X58336425Y-18094394D01*
X58299912Y-18184087D01*
X58240778Y-18247191D01*
X58187200Y-18268225D01*
X58090362Y-18224569D01*
X58017337Y-18191827D01*
X57931612Y-18180912D01*
X57817709Y-18202145D01*
X57717300Y-18265844D01*
X57647053Y-18363872D01*
X57623637Y-18488094D01*
X57634221Y-18575053D01*
X57665971Y-18652841D01*
X57718887Y-18721456D01*
X57820487Y-18793489D01*
X57934787Y-18817500D01*
X58017734Y-18810356D01*
X58091950Y-18788925D01*
X58091950Y-18615888D01*
X57966537Y-18615888D01*
X57896687Y-18603188D01*
X57869700Y-18565881D01*
X57863350Y-18499206D01*
X57870494Y-18431737D01*
X57896687Y-18396812D01*
X57972887Y-18382525D01*
X58252287Y-18382525D01*
X58357062Y-18426975D01*
X58372937Y-18515875D01*
X58499938Y-18942913D01*
X58499938Y-18057087D01*
X58515019Y-17968981D01*
X58560262Y-17931675D01*
X58638050Y-17922150D01*
X58713456Y-17930881D01*
X58752350Y-17950725D01*
X58788862Y-17992000D01*
X58894343Y-18135272D01*
X58987476Y-18261346D01*
X59068263Y-18370222D01*
X59136701Y-18461900D01*
X59192793Y-18536380D01*
X59236538Y-18593663D01*
X59236538Y-18057087D01*
X59251619Y-17968981D01*
X59296863Y-17931675D01*
X59372269Y-17922150D01*
X59445294Y-17930087D01*
X59486569Y-17949137D01*
X59506413Y-17982475D01*
X59515938Y-18063437D01*
X59515938Y-18944500D01*
X59513556Y-19000062D01*
X59498475Y-19041338D01*
X59456406Y-19073484D01*
X59374650Y-19084200D01*
X59288925Y-19074675D01*
X59249238Y-19044513D01*
X59136966Y-18894935D01*
X59038276Y-18763701D01*
X58953169Y-18650813D01*
X58881643Y-18556268D01*
X58823699Y-18480068D01*
X58779337Y-18422212D01*
X58779337Y-18944500D01*
X58776956Y-19000062D01*
X58761875Y-19041338D01*
X58719806Y-19073484D01*
X58638050Y-19084200D01*
X58558675Y-19073484D01*
X58517400Y-19041338D01*
X58502319Y-18998475D01*
X58499938Y-18942913D01*
X58372937Y-18515875D01*
X58372937Y-18865125D01*
X58328487Y-18961963D01*
X58253478Y-19022387D01*
X58161800Y-19065547D01*
X58053453Y-19091443D01*
X57928437Y-19100075D01*
X57814038Y-19088913D01*
X57707378Y-19055427D01*
X57608457Y-18999616D01*
X57517275Y-18921481D01*
X57440877Y-18827571D01*
X57386306Y-18724433D01*
X57353564Y-18612068D01*
X57342650Y-18490475D01*
X57353762Y-18369478D01*
X57387100Y-18258898D01*
X57442662Y-18158737D01*
X57520450Y-18068994D01*
X57613319Y-17995026D01*
X57342650Y-17387295D01*
X56830020Y-17387295D01*
X56830020Y-19612705D01*
X57342650Y-19612705D01*
X60657350Y-19612705D01*
X60396851Y-18985279D01*
X60297980Y-19039353D01*
X60190079Y-19071798D01*
X60073150Y-19082613D01*
X59782638Y-19082613D01*
X59704056Y-19072691D01*
X59661988Y-19042925D01*
X59642938Y-18941325D01*
X59642938Y-18058675D01*
X59645319Y-18003112D01*
X59660400Y-17961837D01*
X59702469Y-17929691D01*
X59784225Y-17918975D01*
X60077913Y-17920562D01*
X60189534Y-17930931D01*
X60294209Y-17962036D01*
X60391940Y-18013878D01*
X60482725Y-18086456D01*
X60559123Y-18174166D01*
X60613694Y-18271400D01*
X60646436Y-18378159D01*
X60657350Y-18494444D01*
X60646684Y-18611175D01*
X60614686Y-18719273D01*
X60561356Y-18818740D01*
X60486694Y-18909575D01*
X60396851Y-18985279D01*
X60657350Y-19612705D01*
X61169980Y-19612705D01*
X61169980Y-17387295D01*
X60657350Y-17387295D01*
X57342650Y-17387295D01*
G37*
G36*
X60076325Y-18201550D02*
G01*
X59923925Y-18201550D01*
X59923925Y-18801625D01*
X60077913Y-18801625D01*
X60186656Y-18780392D01*
X60284288Y-18716694D01*
X60353344Y-18620848D01*
X60376363Y-18503175D01*
X60353939Y-18385105D01*
X60286669Y-18288069D01*
X60189236Y-18223180D01*
X60076325Y-18201550D01*
G37*
%TO.C,kibuzzard-618517AA*%
G36*
X57332331Y-14642057D02*
G01*
X58434056Y-15183262D01*
X58504303Y-15231681D01*
X58527719Y-15284862D01*
X58503906Y-15361062D01*
X58632494Y-15517431D01*
X58679523Y-15425356D01*
X58738062Y-15350744D01*
X58806920Y-15290220D01*
X58884906Y-15240412D01*
X58988799Y-15192787D01*
X59093045Y-15164212D01*
X59197644Y-15154687D01*
X59272852Y-15160442D01*
X59349250Y-15177706D01*
X59465931Y-15224537D01*
X59504031Y-15246762D01*
X59548481Y-15275337D01*
X59589756Y-15350744D01*
X59556419Y-15438850D01*
X59497681Y-15503144D01*
X59445294Y-15524575D01*
X59364331Y-15489650D01*
X59286544Y-15449169D01*
X59186531Y-15435675D01*
X59084138Y-15453534D01*
X58983331Y-15507112D01*
X59679648Y-15861323D01*
X59669131Y-15742062D01*
X59679450Y-15623992D01*
X59710406Y-15517431D01*
X59757436Y-15425356D01*
X59815975Y-15350744D01*
X59884833Y-15290220D01*
X59962819Y-15240412D01*
X60066712Y-15192787D01*
X60170958Y-15164212D01*
X60275556Y-15154687D01*
X60350764Y-15160442D01*
X60427163Y-15177706D01*
X60543844Y-15224537D01*
X60581944Y-15246762D01*
X60626394Y-15275337D01*
X60667669Y-15350744D01*
X60634331Y-15438850D01*
X60575594Y-15503144D01*
X60523206Y-15524575D01*
X60442244Y-15489650D01*
X60364456Y-15449169D01*
X60264444Y-15435675D01*
X60162050Y-15453534D01*
X60061244Y-15507112D01*
X59981869Y-15605537D01*
X59958056Y-15673205D01*
X59950119Y-15749206D01*
X59958056Y-15825208D01*
X59981869Y-15892875D01*
X60062831Y-15992888D01*
X60161653Y-16045275D01*
X60264444Y-16062738D01*
X60357313Y-16050038D01*
X60420019Y-16024638D01*
X60448594Y-16004000D01*
X60524794Y-15972250D01*
X60575991Y-15994475D01*
X60631156Y-16061150D01*
X60666081Y-16150050D01*
X60644650Y-16205613D01*
X60594644Y-16245300D01*
X60539875Y-16278638D01*
X60432719Y-16319913D01*
X60353145Y-16338963D01*
X60276350Y-16345313D01*
X60200547Y-16340352D01*
X60123950Y-16325469D01*
X60045766Y-16298878D01*
X59965200Y-16258794D01*
X59887611Y-16206803D01*
X59818356Y-16144494D01*
X59759023Y-16067500D01*
X59711200Y-15971456D01*
X59679648Y-15861323D01*
X58983331Y-15507112D01*
X58903956Y-15605537D01*
X58880144Y-15673205D01*
X58872206Y-15749206D01*
X58880144Y-15825208D01*
X58903956Y-15892875D01*
X58984919Y-15992888D01*
X59083741Y-16045275D01*
X59186531Y-16062738D01*
X59279400Y-16050038D01*
X59342106Y-16024638D01*
X59370681Y-16004000D01*
X59446881Y-15972250D01*
X59498078Y-15994475D01*
X59553244Y-16061150D01*
X59588169Y-16150050D01*
X59566738Y-16205613D01*
X59516731Y-16245300D01*
X59461963Y-16278638D01*
X59354806Y-16319913D01*
X59275233Y-16338963D01*
X59198438Y-16345313D01*
X59122634Y-16340352D01*
X59046038Y-16325469D01*
X58967853Y-16298878D01*
X58887287Y-16258794D01*
X58809698Y-16206803D01*
X58740444Y-16144494D01*
X58681111Y-16067500D01*
X58633287Y-15971456D01*
X58601736Y-15861323D01*
X58591219Y-15742062D01*
X58601537Y-15623992D01*
X58632494Y-15517431D01*
X58503906Y-15361062D01*
X58065756Y-16250062D01*
X58012575Y-16306419D01*
X57938756Y-16327850D01*
X57922881Y-16327850D01*
X57847475Y-16306419D01*
X57794294Y-16250062D01*
X57356144Y-15361062D01*
X57332331Y-15284862D01*
X57355747Y-15231681D01*
X57425994Y-15183262D01*
X57506162Y-15156275D01*
X57548231Y-15162625D01*
X57575219Y-15184850D01*
X57601412Y-15226919D01*
X57622645Y-15271369D01*
X57662531Y-15358681D01*
X57713530Y-15470798D01*
X57768100Y-15589662D01*
X57822869Y-15708527D01*
X57874462Y-15820644D01*
X57913555Y-15905377D01*
X57930819Y-15942088D01*
X58248319Y-15246762D01*
X58270544Y-15199137D01*
X58340394Y-15156275D01*
X58434056Y-15183262D01*
X57332331Y-14642057D01*
X56819701Y-14642057D01*
X56819701Y-16857943D01*
X57332331Y-16857943D01*
X60667669Y-16857943D01*
X61180299Y-16857943D01*
X61180299Y-14642057D01*
X60667669Y-14642057D01*
X57332331Y-14642057D01*
G37*
%TO.C,kibuzzard-61851795*%
G36*
X55395706Y-11866657D02*
G01*
X55668756Y-12880937D01*
X55750909Y-12796403D01*
X55848144Y-12768225D01*
X55946922Y-12783571D01*
X56027355Y-12829608D01*
X56089444Y-12906337D01*
X56131512Y-12856331D01*
X56210094Y-12799181D01*
X56321219Y-12768225D01*
X56437900Y-12792633D01*
X56533944Y-12865856D01*
X56581569Y-12945143D01*
X56610144Y-13052828D01*
X56619669Y-13188913D01*
X56619669Y-13466725D01*
X56617287Y-13521494D01*
X56865533Y-13505222D01*
X56790325Y-13416719D01*
X56739723Y-13309364D01*
X56722856Y-13188913D01*
X56737673Y-13069321D01*
X56782123Y-12964546D01*
X56856206Y-12874587D01*
X56949340Y-12805796D01*
X57050940Y-12764521D01*
X57161006Y-12750762D01*
X57270897Y-12764433D01*
X57371967Y-12805443D01*
X57464219Y-12873794D01*
X57537420Y-12963311D01*
X57581341Y-13067822D01*
X57595981Y-13187325D01*
X57805531Y-13279400D01*
X57805531Y-13044450D01*
X57740444Y-13049213D01*
X57682500Y-13022225D01*
X57659481Y-12930150D01*
X57667419Y-12835694D01*
X57689644Y-12793625D01*
X57753144Y-12772987D01*
X57805531Y-12779337D01*
X57805531Y-12615825D01*
X57807912Y-12561850D01*
X57822994Y-12523750D01*
X57863872Y-12493984D01*
X57945231Y-12484062D01*
X58031353Y-12498747D01*
X58073819Y-12542800D01*
X58427831Y-12422150D01*
X58469900Y-12390003D01*
X58551656Y-12379287D01*
X58631825Y-12390003D01*
X58672306Y-12422150D01*
X58687388Y-12464219D01*
X58689769Y-12518987D01*
X58687388Y-12573756D01*
X58673100Y-12615031D01*
X58631031Y-12647575D01*
X58550863Y-12657100D01*
X58470694Y-12647575D01*
X58428625Y-12614237D01*
X58414338Y-12572169D01*
X58411956Y-12517400D01*
X58414338Y-12462631D01*
X58427831Y-12422150D01*
X58073819Y-12542800D01*
X58081756Y-12623762D01*
X58081756Y-12779337D01*
X58187325Y-12772987D01*
X58241300Y-12775369D01*
X58283369Y-12790450D01*
X58314325Y-12831328D01*
X58324644Y-12912687D01*
X58313928Y-12993253D01*
X58281781Y-13034925D01*
X58239713Y-13048419D01*
X58184944Y-13050800D01*
X58081756Y-13044450D01*
X58081756Y-13263525D01*
X58095250Y-13325438D01*
X58146050Y-13344488D01*
X58203200Y-13346869D01*
X58245269Y-13361950D01*
X58281781Y-13468313D01*
X58270669Y-13548878D01*
X58237331Y-13590550D01*
X58195263Y-13604044D01*
X58142081Y-13606425D01*
X58040834Y-13598135D01*
X57957226Y-13573264D01*
X57891256Y-13531813D01*
X57843631Y-13470606D01*
X57815056Y-13386468D01*
X57805531Y-13279400D01*
X57595981Y-13187325D01*
X57578916Y-13311745D01*
X57527719Y-13421481D01*
X57452114Y-13510381D01*
X57361825Y-13572294D01*
X57262408Y-13608608D01*
X57159419Y-13620713D01*
X57056231Y-13607814D01*
X56956219Y-13569119D01*
X56865533Y-13505222D01*
X56617287Y-13521494D01*
X56602206Y-13563563D01*
X56561328Y-13595709D01*
X56479969Y-13606425D01*
X56399403Y-13595313D01*
X56357731Y-13561975D01*
X56344237Y-13519906D01*
X56341856Y-13465138D01*
X56341856Y-13187325D01*
X56317250Y-13083741D01*
X56243431Y-13049213D01*
X56168025Y-13085725D01*
X56148181Y-13188913D01*
X56148181Y-13466725D01*
X56145800Y-13522288D01*
X56130719Y-13563563D01*
X56088650Y-13595709D01*
X56006894Y-13606425D01*
X55926328Y-13595313D01*
X55884656Y-13561975D01*
X55871162Y-13519906D01*
X55868781Y-13465138D01*
X55868781Y-13187325D01*
X55844175Y-13083741D01*
X55770356Y-13049213D01*
X55698919Y-13083741D01*
X55675106Y-13187325D01*
X55675106Y-13468313D01*
X55672725Y-13523081D01*
X55657644Y-13565150D01*
X55614781Y-13596106D01*
X55533819Y-13606425D01*
X55453253Y-13595709D01*
X55411581Y-13563563D01*
X55398087Y-13522288D01*
X55395706Y-13466725D01*
X55395706Y-12907925D01*
X55398087Y-12853156D01*
X55413169Y-12812675D01*
X55453253Y-12780528D01*
X55525881Y-12769812D01*
X55641769Y-12798387D01*
X55668756Y-12880937D01*
X55395706Y-11866657D01*
X54883076Y-11866657D01*
X54883076Y-14133343D01*
X55395706Y-14133343D01*
X60604294Y-14133343D01*
X58689769Y-13468313D01*
X58687388Y-13523081D01*
X58672306Y-13565150D01*
X58631428Y-13596106D01*
X58550069Y-13606425D01*
X58469503Y-13595709D01*
X58427831Y-13563563D01*
X58414338Y-13522288D01*
X58411956Y-13466725D01*
X58411956Y-12909512D01*
X58414338Y-12854744D01*
X58427831Y-12812675D01*
X58469900Y-12781719D01*
X58551656Y-12771400D01*
X58659606Y-12798387D01*
X58688181Y-12866650D01*
X58689769Y-12912687D01*
X58852223Y-12964546D01*
X58926306Y-12874587D01*
X59019440Y-12805796D01*
X59121040Y-12764521D01*
X59231106Y-12750762D01*
X59340997Y-12764433D01*
X59442067Y-12805443D01*
X59534319Y-12873794D01*
X59607520Y-12963311D01*
X59651441Y-13067822D01*
X59666081Y-13187325D01*
X59649016Y-13311745D01*
X59597819Y-13421481D01*
X59522214Y-13510381D01*
X59431925Y-13572294D01*
X59332508Y-13608608D01*
X59229519Y-13620713D01*
X59126331Y-13607814D01*
X59026319Y-13569119D01*
X58935633Y-13505222D01*
X58860425Y-13416719D01*
X58809823Y-13309364D01*
X58792956Y-13188913D01*
X58807773Y-13069321D01*
X58852223Y-12964546D01*
X58689769Y-12912687D01*
X58689769Y-13468313D01*
X60604294Y-14133343D01*
X61116924Y-14133343D01*
X60604294Y-13187325D01*
X60604294Y-13466725D01*
X60601913Y-13521494D01*
X60588419Y-13561975D01*
X60546350Y-13594122D01*
X60464594Y-13604838D01*
X60375694Y-13590153D01*
X60334419Y-13546100D01*
X60324894Y-13465138D01*
X60324894Y-13185738D01*
X60287588Y-13084138D01*
X60187575Y-13047625D01*
X60085975Y-13085725D01*
X60047081Y-13185738D01*
X60047081Y-13466725D01*
X60044700Y-13521494D01*
X60029619Y-13561975D01*
X59988741Y-13594122D01*
X59907381Y-13604838D01*
X59826816Y-13594122D01*
X59785144Y-13561975D01*
X59771650Y-13519906D01*
X59769269Y-13465138D01*
X59769269Y-12903162D01*
X59771650Y-12849981D01*
X59786731Y-12809500D01*
X59828403Y-12779734D01*
X59908969Y-12769812D01*
X59987153Y-12778941D01*
X60028031Y-12806325D01*
X60043906Y-12871412D01*
X60072481Y-12839662D01*
X60115344Y-12806325D01*
X60234406Y-12769812D01*
X60334331Y-12783306D01*
X60422437Y-12823787D01*
X60498725Y-12891256D01*
X60557374Y-12978128D01*
X60592564Y-13076817D01*
X60604294Y-13187325D01*
X61116924Y-14133343D01*
X61116924Y-11866657D01*
X60604294Y-11866657D01*
X55395706Y-11866657D01*
G37*
G36*
X59124744Y-13302419D02*
G01*
X59227931Y-13341313D01*
X59332706Y-13301625D01*
X59371997Y-13252412D01*
X59385094Y-13184150D01*
X59372791Y-13116284D01*
X59335881Y-13068263D01*
X59229519Y-13030163D01*
X59123156Y-13069850D01*
X59086247Y-13118864D01*
X59073944Y-13186531D01*
X59086644Y-13254000D01*
X59124744Y-13302419D01*
G37*
G36*
X57054644Y-13302419D02*
G01*
X57157831Y-13341313D01*
X57262606Y-13301625D01*
X57301897Y-13252412D01*
X57314994Y-13184150D01*
X57302691Y-13116284D01*
X57265781Y-13068263D01*
X57159419Y-13030163D01*
X57053056Y-13069850D01*
X57016147Y-13118864D01*
X57003844Y-13186531D01*
X57016544Y-13254000D01*
X57054644Y-13302419D01*
G37*
D14*
%TO.C,J5*%
X61670000Y-14440000D02*
X64330000Y-14440000D01*
X61670000Y-14440000D02*
X61670000Y-19580000D01*
X61670000Y-19580000D02*
X64330000Y-19580000D01*
X64330000Y-14440000D02*
X64330000Y-19580000D01*
X64330000Y-11840000D02*
X64330000Y-13170000D01*
X63000000Y-11840000D02*
X64330000Y-11840000D01*
D13*
%TO.C,kibuzzard-61850136*%
G36*
X45260100Y-46476187D02*
G01*
X45463300Y-46476187D01*
X45555375Y-46441262D01*
X45601412Y-46336487D01*
X45555375Y-46230919D01*
X45460125Y-46195200D01*
X45260100Y-46195200D01*
X45260100Y-46476187D01*
G37*
G36*
X48439863Y-46195200D02*
G01*
X48287463Y-46195200D01*
X48287463Y-46795275D01*
X48441450Y-46795275D01*
X48550194Y-46774042D01*
X48647825Y-46710344D01*
X48716881Y-46614498D01*
X48739900Y-46496825D01*
X48717477Y-46378755D01*
X48650206Y-46281719D01*
X48552773Y-46216830D01*
X48439863Y-46195200D01*
G37*
G36*
X44979112Y-45399995D02*
G01*
X45120400Y-45914212D01*
X45463300Y-45914212D01*
X45555551Y-45925501D01*
X45646039Y-45959368D01*
X45734762Y-46015812D01*
X45792706Y-46073756D01*
X45839537Y-46149162D01*
X45870494Y-46238062D01*
X45880812Y-46336487D01*
X45867583Y-46449024D01*
X45827896Y-46547449D01*
X45761750Y-46631763D01*
X45789267Y-46696850D01*
X45825250Y-46779929D01*
X45980825Y-46936563D01*
X45980825Y-46053912D01*
X46010987Y-45943581D01*
X46125287Y-45914212D01*
X46750762Y-45914212D01*
X46805531Y-45916594D01*
X46847600Y-45931675D01*
X46879747Y-45973744D01*
X46890462Y-46055500D01*
X46875778Y-46143606D01*
X46831725Y-46185675D01*
X46749175Y-46195200D01*
X46261812Y-46195200D01*
X46261812Y-46355537D01*
X46576137Y-46355537D01*
X46630906Y-46357919D01*
X46672975Y-46373000D01*
X46705122Y-46415069D01*
X46715837Y-46496825D01*
X46700756Y-46584931D01*
X46655512Y-46627000D01*
X46572962Y-46636525D01*
X46261812Y-46636525D01*
X46261812Y-46796863D01*
X46750762Y-46796863D01*
X46805531Y-46799244D01*
X46847600Y-46814325D01*
X46879747Y-46856394D01*
X46993650Y-46936563D01*
X46993650Y-46053912D01*
X47023813Y-45943581D01*
X47138113Y-45914212D01*
X47763588Y-45914212D01*
X47818356Y-45916594D01*
X47860425Y-45931675D01*
X47892572Y-45973744D01*
X47903288Y-46055500D01*
X47888603Y-46143606D01*
X47844550Y-46185675D01*
X47762000Y-46195200D01*
X47274638Y-46195200D01*
X47274638Y-46355537D01*
X47588963Y-46355537D01*
X47643731Y-46357919D01*
X47685800Y-46373000D01*
X47717947Y-46415069D01*
X47728663Y-46496825D01*
X47713581Y-46584931D01*
X47668338Y-46627000D01*
X47585788Y-46636525D01*
X47274638Y-46636525D01*
X47274638Y-46796863D01*
X47763588Y-46796863D01*
X47818356Y-46799244D01*
X47860425Y-46814325D01*
X47892572Y-46856394D01*
X47903288Y-46938150D01*
X47888603Y-47026256D01*
X47844550Y-47068325D01*
X47762000Y-47077850D01*
X47133350Y-47077850D01*
X47045244Y-47062769D01*
X47003175Y-47017525D01*
X46993650Y-46936563D01*
X46879747Y-46856394D01*
X46890462Y-46938150D01*
X46875778Y-47026256D01*
X46831725Y-47068325D01*
X46749175Y-47077850D01*
X46120525Y-47077850D01*
X46032419Y-47062769D01*
X45990350Y-47017525D01*
X45980825Y-46936563D01*
X45825250Y-46779929D01*
X45869700Y-46881000D01*
X45893512Y-46963550D01*
X45868906Y-47019113D01*
X45795087Y-47065150D01*
X45713331Y-47087375D01*
X45662531Y-47072294D01*
X45633162Y-47041338D01*
X45612349Y-46996006D01*
X45571074Y-46900226D01*
X45509337Y-46754000D01*
X45460125Y-46757175D01*
X45260100Y-46757175D01*
X45260100Y-46936563D01*
X45257719Y-46991331D01*
X45242637Y-47033400D01*
X45200569Y-47065547D01*
X45118812Y-47076263D01*
X45030706Y-47061578D01*
X44988637Y-47017525D01*
X44979112Y-46934975D01*
X44979112Y-46053912D01*
X44981494Y-45999144D01*
X44996575Y-45957075D01*
X45038644Y-45924928D01*
X45120400Y-45914212D01*
X44979112Y-45399995D01*
X44466482Y-45399995D01*
X43733145Y-46500000D01*
X44466482Y-47600005D01*
X44979112Y-47600005D01*
X49020888Y-47600005D01*
X48760389Y-46978929D01*
X48661517Y-47033003D01*
X48553617Y-47065448D01*
X48436688Y-47076263D01*
X48146175Y-47076263D01*
X48067594Y-47066341D01*
X48025525Y-47036575D01*
X48006475Y-46934975D01*
X48006475Y-46052325D01*
X48008856Y-45996762D01*
X48023938Y-45955487D01*
X48066006Y-45923341D01*
X48147763Y-45912625D01*
X48441450Y-45914212D01*
X48553071Y-45924581D01*
X48657747Y-45955686D01*
X48755477Y-46007528D01*
X48846263Y-46080106D01*
X48922661Y-46167816D01*
X48977231Y-46265050D01*
X49009973Y-46371809D01*
X49020888Y-46488094D01*
X49010221Y-46604825D01*
X48978223Y-46712923D01*
X48924893Y-46812390D01*
X48850231Y-46903225D01*
X48760389Y-46978929D01*
X49020888Y-47600005D01*
X49533518Y-47600005D01*
X50266855Y-46500000D01*
X49533518Y-45399995D01*
X49020888Y-45399995D01*
X44979112Y-45399995D01*
G37*
D14*
%TO.C,J3*%
X24380000Y-57310000D02*
X54860000Y-57310000D01*
X24380000Y-49690000D02*
X54860000Y-49690000D01*
X24380000Y-56040000D02*
X54860000Y-56040000D01*
X54860000Y-57310000D02*
X54860000Y-49690000D01*
X24380000Y-49690000D02*
X24380000Y-57310000D01*
%TO.C,R9*%
X43772936Y-16660000D02*
X45227064Y-16660000D01*
X43772936Y-14840000D02*
X45227064Y-14840000D01*
%TO.C,R8*%
X19222936Y-16910000D02*
X20677064Y-16910000D01*
X19222936Y-15090000D02*
X20677064Y-15090000D01*
%TO.C,J4*%
X2785000Y-9390000D02*
X5285000Y-9390000D01*
X5285000Y-9390000D02*
X5285000Y-10440000D01*
X5285000Y-10440000D02*
X6275000Y-10440000D01*
X2785000Y-15610000D02*
X5285000Y-15610000D01*
X5285000Y-15610000D02*
X5285000Y-14560000D01*
X815000Y-10560000D02*
X815000Y-14440000D01*
D13*
%TO.C,kibuzzard-61843AB1*%
G36*
X44851425Y-39684764D02*
G01*
X45498530Y-40627805D01*
X45732487Y-40478381D01*
X46044167Y-40335506D01*
X46356904Y-40249781D01*
X46670700Y-40221206D01*
X46896323Y-40238470D01*
X47125519Y-40290262D01*
X47475562Y-40430756D01*
X47589862Y-40497431D01*
X47723212Y-40583156D01*
X47847037Y-40809375D01*
X47747025Y-41073694D01*
X47570812Y-41266575D01*
X47413650Y-41330869D01*
X47170762Y-41226094D01*
X46937400Y-41104650D01*
X46637362Y-41064169D01*
X46330181Y-41117747D01*
X46027762Y-41278481D01*
X45789637Y-41573756D01*
X45718200Y-41776758D01*
X45694387Y-42004763D01*
X45718200Y-42232767D01*
X45789637Y-42435769D01*
X46032525Y-42735806D01*
X46328991Y-42892969D01*
X46637362Y-42945356D01*
X46915969Y-42907256D01*
X47104087Y-42831056D01*
X47189812Y-42769144D01*
X47418412Y-42673894D01*
X47572003Y-42740569D01*
X48156600Y-43321594D01*
X48156600Y-40673644D01*
X48163744Y-40509337D01*
X48208987Y-40383131D01*
X48335194Y-40286691D01*
X48580462Y-40254544D01*
X48845972Y-40298597D01*
X48975750Y-40430756D01*
X48999562Y-40678406D01*
X48999562Y-43040606D01*
X50294962Y-43040606D01*
X50523562Y-43076325D01*
X50618812Y-43188244D01*
X50642625Y-43390650D01*
X50618812Y-43593056D01*
X50537850Y-43697831D01*
X50290200Y-43745456D01*
X48575700Y-43745456D01*
X48311381Y-43700213D01*
X48185175Y-43564481D01*
X48156600Y-43321594D01*
X47572003Y-42740569D01*
X47737500Y-42940594D01*
X47842275Y-43207294D01*
X47777981Y-43373981D01*
X47627962Y-43493044D01*
X47463656Y-43593056D01*
X47142187Y-43716881D01*
X46903467Y-43774031D01*
X46673081Y-43793081D01*
X46445672Y-43778198D01*
X46215881Y-43733550D01*
X45981328Y-43653778D01*
X45739631Y-43533525D01*
X45506864Y-43377553D01*
X45299100Y-43190625D01*
X45121102Y-42959644D01*
X44977631Y-42671513D01*
X44882977Y-42341114D01*
X44851425Y-41983331D01*
X44882381Y-41629120D01*
X44975250Y-41309437D01*
X45116339Y-41033212D01*
X45291956Y-40809375D01*
X45498530Y-40627805D01*
X44851425Y-39684764D01*
X44338795Y-39684764D01*
X42795304Y-42000000D01*
X44338795Y-44315236D01*
X44851425Y-44315236D01*
X60148575Y-44315236D01*
X59724713Y-43745456D01*
X57838763Y-43745456D01*
X57574444Y-43700213D01*
X57448238Y-43564481D01*
X57419663Y-43321594D01*
X57419663Y-40673644D01*
X57510150Y-40342650D01*
X57853050Y-40254544D01*
X59729475Y-40254544D01*
X59893781Y-40261687D01*
X60019988Y-40306931D01*
X60116428Y-40433137D01*
X60148575Y-40678406D01*
X60104522Y-40942725D01*
X59972363Y-41068931D01*
X59724713Y-41097506D01*
X58262625Y-41097506D01*
X58262625Y-41578519D01*
X59205600Y-41578519D01*
X59369906Y-41585662D01*
X59496113Y-41630906D01*
X59592553Y-41757112D01*
X59624700Y-42002381D01*
X59579456Y-42266700D01*
X59443725Y-42392906D01*
X59196075Y-42421481D01*
X58262625Y-42421481D01*
X58262625Y-42902494D01*
X59729475Y-42902494D01*
X59893781Y-42909638D01*
X60019988Y-42954881D01*
X60116428Y-43081088D01*
X60148575Y-43326356D01*
X60104522Y-43590675D01*
X59972363Y-43716881D01*
X59724713Y-43745456D01*
X60148575Y-44315236D01*
X60661205Y-44315236D01*
X62204696Y-42000000D01*
X60661205Y-39684764D01*
X52590488Y-40211681D01*
X52931304Y-40243530D01*
X53248903Y-40339078D01*
X53543285Y-40498324D01*
X53814450Y-40721269D01*
X54041562Y-40991392D01*
X54203784Y-41292173D01*
X54301118Y-41623614D01*
X54333563Y-41985712D01*
X54302606Y-42349151D01*
X54209738Y-42684609D01*
X54054956Y-42992088D01*
X53838263Y-43271588D01*
X54695513Y-43254919D01*
X54571688Y-42981075D01*
X54622884Y-42839986D01*
X54776475Y-42659606D01*
X55028888Y-42545306D01*
X55188431Y-42604838D01*
X55400363Y-42783431D01*
X55590863Y-42938213D01*
X55819463Y-43012031D01*
X56065525Y-42971815D01*
X56213163Y-42851165D01*
X56262375Y-42650081D01*
X56140931Y-42466725D01*
X55838513Y-42359569D01*
X55650394Y-42316111D01*
X55447988Y-42252412D01*
X55245581Y-42172045D01*
X55057463Y-42078581D01*
X54891370Y-41949398D01*
X54755044Y-41761875D01*
X54663961Y-41523155D01*
X54633600Y-41240381D01*
X54668260Y-40972887D01*
X54772242Y-40729206D01*
X54945544Y-40509337D01*
X55178642Y-40336035D01*
X55462010Y-40232054D01*
X55795650Y-40197394D01*
X56068898Y-40215848D01*
X56317144Y-40271212D01*
X56643375Y-40421231D01*
X56762438Y-40511719D01*
X56910075Y-40745081D01*
X56795775Y-41007019D01*
X56631469Y-41185612D01*
X56462400Y-41245144D01*
X56214750Y-41149894D01*
X56159981Y-41102269D01*
X56086163Y-41040356D01*
X55831369Y-40978444D01*
X55574194Y-41052262D01*
X55471800Y-41257050D01*
X55593244Y-41468981D01*
X55895663Y-41578519D01*
X56084972Y-41614833D01*
X56290950Y-41666625D01*
X56496928Y-41732705D01*
X56686238Y-41811881D01*
X56852330Y-41929158D01*
X56988656Y-42109538D01*
X57079739Y-42345877D01*
X57110100Y-42631031D01*
X57079144Y-42922139D01*
X56986275Y-43176338D01*
X56843400Y-43385292D01*
X56662425Y-43540669D01*
X56399429Y-43680898D01*
X56124792Y-43765035D01*
X55838513Y-43793081D01*
X55620628Y-43779389D01*
X55414650Y-43738313D01*
X55090800Y-43602581D01*
X54876488Y-43452563D01*
X54738375Y-43307306D01*
X54695513Y-43254919D01*
X53838263Y-43271588D01*
X53576325Y-43503908D01*
X53285813Y-43669852D01*
X52966725Y-43769418D01*
X52619063Y-43802606D01*
X52270656Y-43769864D01*
X51949336Y-43671638D01*
X51655103Y-43507927D01*
X51387956Y-43278731D01*
X51166054Y-43004292D01*
X51007552Y-42704850D01*
X50912450Y-42380405D01*
X50880750Y-42030956D01*
X50916469Y-41648170D01*
X51023625Y-41290387D01*
X51190312Y-40973086D01*
X51404625Y-40711744D01*
X51660609Y-40503384D01*
X51952312Y-40345031D01*
X52266637Y-40245019D01*
X52590488Y-40211681D01*
X60661205Y-39684764D01*
X60148575Y-39684764D01*
X44851425Y-39684764D01*
G37*
G36*
X51723712Y-42007144D02*
G01*
X51754140Y-42271992D01*
X51845421Y-42501385D01*
X51997556Y-42695325D01*
X52287473Y-42893564D01*
X52609538Y-42959644D01*
X52931006Y-42895350D01*
X53219138Y-42702469D01*
X53369950Y-42511440D01*
X53460438Y-42281252D01*
X53490600Y-42011906D01*
X53460173Y-41742031D01*
X53368892Y-41510256D01*
X53216756Y-41316581D01*
X52926839Y-41120128D01*
X52604775Y-41054644D01*
X52283306Y-41120723D01*
X51995175Y-41318962D01*
X51844362Y-41512902D01*
X51753875Y-41742296D01*
X51723712Y-42007144D01*
G37*
%TO.C,kibuzzard-61843A90*%
G36*
X21070625Y-39691907D02*
G01*
X22780362Y-40204537D01*
X23121179Y-40236387D01*
X23438778Y-40331934D01*
X23733160Y-40491180D01*
X24004325Y-40714125D01*
X24231437Y-40984248D01*
X24393659Y-41285030D01*
X24490993Y-41616470D01*
X24833000Y-43309688D01*
X24833000Y-40666500D01*
X24840144Y-40502194D01*
X24885387Y-40375987D01*
X25011594Y-40279547D01*
X25256862Y-40247400D01*
X26276037Y-40247400D01*
X26552792Y-40281267D01*
X26824254Y-40382867D01*
X27090425Y-40552200D01*
X27267828Y-40726031D01*
X27409512Y-40952250D01*
X27502381Y-41218950D01*
X27533338Y-41514225D01*
X27502381Y-41808905D01*
X27409512Y-42073819D01*
X27267828Y-42298252D01*
X27090425Y-42471488D01*
X26823725Y-42640821D01*
X26550675Y-42742421D01*
X26271275Y-42776288D01*
X25675962Y-42776288D01*
X25675962Y-43314450D01*
X27842900Y-43314450D01*
X27842900Y-40666500D01*
X27933388Y-40335506D01*
X28276288Y-40247400D01*
X30152713Y-40247400D01*
X30317019Y-40254544D01*
X30443225Y-40299787D01*
X30539666Y-40425994D01*
X30571813Y-40671262D01*
X30527759Y-40935581D01*
X30395600Y-41061787D01*
X30147950Y-41090362D01*
X28685863Y-41090362D01*
X28685863Y-41571375D01*
X29628838Y-41571375D01*
X29793144Y-41578519D01*
X29919350Y-41623762D01*
X30015791Y-41749969D01*
X30047938Y-41995237D01*
X30002694Y-42259556D01*
X29866963Y-42385763D01*
X29619313Y-42414338D01*
X28685863Y-42414338D01*
X28685863Y-42895350D01*
X30152713Y-42895350D01*
X30317019Y-42902494D01*
X30443225Y-42947738D01*
X30539666Y-43073944D01*
X30571813Y-43319213D01*
X30527759Y-43583531D01*
X30395600Y-43709738D01*
X30147950Y-43738313D01*
X28262000Y-43738313D01*
X27997681Y-43693069D01*
X27871475Y-43557338D01*
X27842900Y-43314450D01*
X25675962Y-43314450D01*
X25668819Y-43478756D01*
X25623575Y-43604963D01*
X25497369Y-43701403D01*
X25252100Y-43733550D01*
X24987781Y-43689497D01*
X24861575Y-43557338D01*
X24833000Y-43309688D01*
X24490993Y-41616470D01*
X24523437Y-41978569D01*
X24492481Y-42342007D01*
X24399612Y-42677466D01*
X24244831Y-42984945D01*
X24028137Y-43264444D01*
X23766200Y-43496764D01*
X23475688Y-43662708D01*
X23156600Y-43762274D01*
X22808937Y-43795463D01*
X22460531Y-43762720D01*
X22139211Y-43664494D01*
X21844978Y-43500783D01*
X21577831Y-43271588D01*
X21355929Y-42997148D01*
X21197427Y-42697706D01*
X21102325Y-42373261D01*
X21070625Y-42023813D01*
X21106344Y-41641027D01*
X21213500Y-41283244D01*
X21380187Y-40965942D01*
X21594500Y-40704600D01*
X21850484Y-40496241D01*
X22142187Y-40337887D01*
X22456512Y-40237875D01*
X22780362Y-40204537D01*
X21070625Y-39691907D01*
X20557995Y-39691907D01*
X19019266Y-42000000D01*
X20557995Y-44308093D01*
X21070625Y-44308093D01*
X33929375Y-44308093D01*
X33929375Y-43319213D01*
X33922231Y-43485900D01*
X33876988Y-43609725D01*
X33750781Y-43706166D01*
X33505513Y-43738313D01*
X33248338Y-43709738D01*
X33129275Y-43619250D01*
X32792460Y-43170517D01*
X32496392Y-42776817D01*
X32241069Y-42438150D01*
X32026492Y-42154517D01*
X31852660Y-41925917D01*
X31719575Y-41752350D01*
X31719575Y-43319213D01*
X31712431Y-43485900D01*
X31667188Y-43609725D01*
X31540981Y-43706166D01*
X31295713Y-43738313D01*
X31057588Y-43706166D01*
X30933763Y-43609725D01*
X30888519Y-43481138D01*
X30881375Y-43314450D01*
X30881375Y-40656975D01*
X30926619Y-40392656D01*
X31062350Y-40280737D01*
X31295713Y-40252162D01*
X31521931Y-40278356D01*
X31638613Y-40337887D01*
X31748150Y-40461712D01*
X32064592Y-40891528D01*
X32343992Y-41269750D01*
X32586350Y-41596378D01*
X32791667Y-41871412D01*
X32959942Y-42094853D01*
X33091175Y-42266700D01*
X33091175Y-40656975D01*
X33136419Y-40392656D01*
X33272150Y-40280737D01*
X33498369Y-40252162D01*
X33717444Y-40275975D01*
X33841269Y-40333125D01*
X33900800Y-40433137D01*
X33929375Y-40676025D01*
X33929375Y-43319213D01*
X33929375Y-44308093D01*
X34442005Y-44308093D01*
X35980734Y-42000000D01*
X34442005Y-39691907D01*
X33929375Y-39691907D01*
X21070625Y-39691907D01*
G37*
G36*
X21913587Y-42000000D02*
G01*
X21944015Y-42264848D01*
X22035296Y-42494242D01*
X22187431Y-42688181D01*
X22477348Y-42886420D01*
X22799412Y-42952500D01*
X23120881Y-42888206D01*
X23409012Y-42695325D01*
X23559825Y-42504296D01*
X23650312Y-42274108D01*
X23680475Y-42004763D01*
X23650048Y-41734887D01*
X23558767Y-41503112D01*
X23406631Y-41309437D01*
X23116714Y-41112984D01*
X22794650Y-41047500D01*
X22473181Y-41113580D01*
X22185050Y-41311819D01*
X22034237Y-41505758D01*
X21943750Y-41735152D01*
X21913587Y-42000000D01*
G37*
G36*
X26271275Y-41090362D02*
G01*
X25675962Y-41090362D01*
X25675962Y-41933325D01*
X26276037Y-41933325D01*
X26557025Y-41828550D01*
X26695137Y-41514225D01*
X26557025Y-41197519D01*
X26271275Y-41090362D01*
G37*
D14*
%TO.C,R7*%
X17090000Y-52727064D02*
X17090000Y-51272936D01*
X18910000Y-52727064D02*
X18910000Y-51272936D01*
%TO.C,R6*%
X42727064Y-38910000D02*
X41272936Y-38910000D01*
X42727064Y-37090000D02*
X41272936Y-37090000D01*
%TO.C,R5*%
X17727064Y-38910000D02*
X16272936Y-38910000D01*
X17727064Y-37090000D02*
X16272936Y-37090000D01*
%TO.C,D5*%
X42887500Y-20135000D02*
X46947500Y-20135000D01*
X46947500Y-20135000D02*
X46947500Y-17865000D01*
X46947500Y-17865000D02*
X42887500Y-17865000D01*
%TO.C,D4*%
X18387500Y-20135000D02*
X22447500Y-20135000D01*
X22447500Y-20135000D02*
X22447500Y-17865000D01*
X22447500Y-17865000D02*
X18387500Y-17865000D01*
%TO.C,D3*%
X12865000Y-50412500D02*
X12865000Y-54472500D01*
X12865000Y-54472500D02*
X15135000Y-54472500D01*
X15135000Y-54472500D02*
X15135000Y-50412500D01*
%TO.C,D2*%
X40350000Y-22850000D02*
X47650000Y-22850000D01*
X40350000Y-27150000D02*
X47650000Y-27150000D01*
X40350000Y-22850000D02*
X40350000Y-27150000D01*
%TO.C,D1*%
X15450000Y-22850000D02*
X22750000Y-22850000D01*
X15450000Y-27150000D02*
X22750000Y-27150000D01*
X15450000Y-22850000D02*
X15450000Y-27150000D01*
%TO.C,U2*%
X42540000Y-34830000D02*
X44190000Y-34830000D01*
X42540000Y-29630000D02*
X42540000Y-34830000D01*
X47840000Y-29630000D02*
X42540000Y-29630000D01*
X47840000Y-34830000D02*
X47840000Y-29630000D01*
X46190000Y-34830000D02*
X47840000Y-34830000D01*
X44190000Y-34830000D02*
G75*
G02*
X46190000Y-34830000I1000000J0D01*
G01*
%TO.C,U1*%
X17540000Y-34870000D02*
X19190000Y-34870000D01*
X17540000Y-29670000D02*
X17540000Y-34870000D01*
X22840000Y-29670000D02*
X17540000Y-29670000D01*
X22840000Y-34870000D02*
X22840000Y-29670000D01*
X21190000Y-34870000D02*
X22840000Y-34870000D01*
X19190000Y-34870000D02*
G75*
G02*
X21190000Y-34870000I1000000J0D01*
G01*
%TO.C,R4*%
X46822936Y-38910000D02*
X48277064Y-38910000D01*
X46822936Y-37090000D02*
X48277064Y-37090000D01*
%TO.C,R3*%
X61222936Y-22910000D02*
X62677064Y-22910000D01*
X61222936Y-21090000D02*
X62677064Y-21090000D01*
%TO.C,R2*%
X21822936Y-38910000D02*
X23277064Y-38910000D01*
X21822936Y-37090000D02*
X23277064Y-37090000D01*
%TO.C,R1*%
X36272936Y-22860000D02*
X37727064Y-22860000D01*
X36272936Y-21040000D02*
X37727064Y-21040000D01*
%TO.C,Q3*%
X60420000Y-26760000D02*
X60420000Y-25300000D01*
X63580000Y-26760000D02*
X63580000Y-24600000D01*
X63580000Y-26760000D02*
X62650000Y-26760000D01*
X60420000Y-26760000D02*
X61350000Y-26760000D01*
%TO.C,Q2*%
X35420000Y-26760000D02*
X35420000Y-25300000D01*
X38580000Y-26760000D02*
X38580000Y-24600000D01*
X38580000Y-26760000D02*
X37650000Y-26760000D01*
X35420000Y-26760000D02*
X36350000Y-26760000D01*
%TO.C,Q1*%
X10390000Y-28200000D02*
X10390000Y-29300000D01*
X12200000Y-28200000D02*
X10390000Y-28200000D01*
X12200000Y-26700000D02*
X12200000Y-28200000D01*
X3610000Y-28200000D02*
X3610000Y-33325000D01*
X1800000Y-28200000D02*
X3610000Y-28200000D01*
X1800000Y-26700000D02*
X1800000Y-28200000D01*
%TO.C,K2*%
X56247000Y-28650000D02*
X56247000Y-29666000D01*
X54342000Y-29666000D02*
X56247000Y-29666000D01*
X54342000Y-28650000D02*
X54342000Y-29666000D01*
X56247000Y-28650000D02*
X54342000Y-28650000D01*
X56882000Y-29158000D02*
X56247000Y-29158000D01*
X56882000Y-28523000D02*
X56882000Y-29158000D01*
X53682000Y-29158000D02*
X54342000Y-29158000D01*
X53682000Y-28523000D02*
X53682000Y-29158000D01*
X55866000Y-28650000D02*
X55231000Y-29666000D01*
X51520000Y-23540000D02*
X59320000Y-23540000D01*
X59320000Y-23540000D02*
X59320000Y-36240000D01*
X59320000Y-36240000D02*
X51520000Y-36240000D01*
X51520000Y-36240000D02*
X51520000Y-23540000D01*
X51320000Y-25440000D02*
X51320000Y-23340000D01*
X51320000Y-23340000D02*
X53520000Y-23340000D01*
%TO.C,K1*%
X31247000Y-28650000D02*
X31247000Y-29666000D01*
X29342000Y-29666000D02*
X31247000Y-29666000D01*
X29342000Y-28650000D02*
X29342000Y-29666000D01*
X31247000Y-28650000D02*
X29342000Y-28650000D01*
X31882000Y-29158000D02*
X31247000Y-29158000D01*
X31882000Y-28523000D02*
X31882000Y-29158000D01*
X28682000Y-29158000D02*
X29342000Y-29158000D01*
X28682000Y-28523000D02*
X28682000Y-29158000D01*
X30866000Y-28650000D02*
X30231000Y-29666000D01*
X26520000Y-23540000D02*
X34320000Y-23540000D01*
X34320000Y-23540000D02*
X34320000Y-36240000D01*
X34320000Y-36240000D02*
X26520000Y-36240000D01*
X26520000Y-36240000D02*
X26520000Y-23540000D01*
X26320000Y-25440000D02*
X26320000Y-23340000D01*
X26320000Y-23340000D02*
X28520000Y-23340000D01*
%TO.C,J2*%
X10650000Y-34650000D02*
X10650000Y-37250000D01*
X-4050000Y-34650000D02*
X10650000Y-34650000D01*
X10650000Y-43850000D02*
X8750000Y-43850000D01*
X10650000Y-41150000D02*
X10650000Y-43850000D01*
X-4050000Y-43850000D02*
X-4050000Y-34650000D01*
X4750000Y-43850000D02*
X-4050000Y-43850000D01*
X9800000Y-34450000D02*
X10850000Y-34450000D01*
X10850000Y-35500000D02*
X10850000Y-34450000D01*
%TO.C,J5*%
D15*
X62666666Y-9852380D02*
X62666666Y-10566666D01*
X62619047Y-10709523D01*
X62523809Y-10804761D01*
X62380952Y-10852380D01*
X62285714Y-10852380D01*
X63619047Y-9852380D02*
X63142857Y-9852380D01*
X63095238Y-10328571D01*
X63142857Y-10280952D01*
X63238095Y-10233333D01*
X63476190Y-10233333D01*
X63571428Y-10280952D01*
X63619047Y-10328571D01*
X63666666Y-10423809D01*
X63666666Y-10661904D01*
X63619047Y-10757142D01*
X63571428Y-10804761D01*
X63476190Y-10852380D01*
X63238095Y-10852380D01*
X63142857Y-10804761D01*
X63095238Y-10757142D01*
%TO.C,J3*%
X39236666Y-48402380D02*
X39236666Y-49116666D01*
X39189047Y-49259523D01*
X39093809Y-49354761D01*
X38950952Y-49402380D01*
X38855714Y-49402380D01*
X39617619Y-48402380D02*
X40236666Y-48402380D01*
X39903333Y-48783333D01*
X40046190Y-48783333D01*
X40141428Y-48830952D01*
X40189047Y-48878571D01*
X40236666Y-48973809D01*
X40236666Y-49211904D01*
X40189047Y-49307142D01*
X40141428Y-49354761D01*
X40046190Y-49402380D01*
X39760476Y-49402380D01*
X39665238Y-49354761D01*
X39617619Y-49307142D01*
%TO.C,R9*%
X44333333Y-14382380D02*
X44000000Y-13906190D01*
X43761904Y-14382380D02*
X43761904Y-13382380D01*
X44142857Y-13382380D01*
X44238095Y-13430000D01*
X44285714Y-13477619D01*
X44333333Y-13572857D01*
X44333333Y-13715714D01*
X44285714Y-13810952D01*
X44238095Y-13858571D01*
X44142857Y-13906190D01*
X43761904Y-13906190D01*
X44809523Y-14382380D02*
X45000000Y-14382380D01*
X45095238Y-14334761D01*
X45142857Y-14287142D01*
X45238095Y-14144285D01*
X45285714Y-13953809D01*
X45285714Y-13572857D01*
X45238095Y-13477619D01*
X45190476Y-13430000D01*
X45095238Y-13382380D01*
X44904761Y-13382380D01*
X44809523Y-13430000D01*
X44761904Y-13477619D01*
X44714285Y-13572857D01*
X44714285Y-13810952D01*
X44761904Y-13906190D01*
X44809523Y-13953809D01*
X44904761Y-14001428D01*
X45095238Y-14001428D01*
X45190476Y-13953809D01*
X45238095Y-13906190D01*
X45285714Y-13810952D01*
%TO.C,R8*%
X19783333Y-14632380D02*
X19450000Y-14156190D01*
X19211904Y-14632380D02*
X19211904Y-13632380D01*
X19592857Y-13632380D01*
X19688095Y-13680000D01*
X19735714Y-13727619D01*
X19783333Y-13822857D01*
X19783333Y-13965714D01*
X19735714Y-14060952D01*
X19688095Y-14108571D01*
X19592857Y-14156190D01*
X19211904Y-14156190D01*
X20354761Y-14060952D02*
X20259523Y-14013333D01*
X20211904Y-13965714D01*
X20164285Y-13870476D01*
X20164285Y-13822857D01*
X20211904Y-13727619D01*
X20259523Y-13680000D01*
X20354761Y-13632380D01*
X20545238Y-13632380D01*
X20640476Y-13680000D01*
X20688095Y-13727619D01*
X20735714Y-13822857D01*
X20735714Y-13870476D01*
X20688095Y-13965714D01*
X20640476Y-14013333D01*
X20545238Y-14060952D01*
X20354761Y-14060952D01*
X20259523Y-14108571D01*
X20211904Y-14156190D01*
X20164285Y-14251428D01*
X20164285Y-14441904D01*
X20211904Y-14537142D01*
X20259523Y-14584761D01*
X20354761Y-14632380D01*
X20545238Y-14632380D01*
X20640476Y-14584761D01*
X20688095Y-14537142D01*
X20735714Y-14441904D01*
X20735714Y-14251428D01*
X20688095Y-14156190D01*
X20640476Y-14108571D01*
X20545238Y-14060952D01*
%TO.C,J4*%
X6932380Y-12833333D02*
X7646666Y-12833333D01*
X7789523Y-12880952D01*
X7884761Y-12976190D01*
X7932380Y-13119047D01*
X7932380Y-13214285D01*
X7265714Y-11928571D02*
X7932380Y-11928571D01*
X6884761Y-12166666D02*
X7599047Y-12404761D01*
X7599047Y-11785714D01*
%TO.C,R7*%
X16632380Y-52166666D02*
X16156190Y-52500000D01*
X16632380Y-52738095D02*
X15632380Y-52738095D01*
X15632380Y-52357142D01*
X15680000Y-52261904D01*
X15727619Y-52214285D01*
X15822857Y-52166666D01*
X15965714Y-52166666D01*
X16060952Y-52214285D01*
X16108571Y-52261904D01*
X16156190Y-52357142D01*
X16156190Y-52738095D01*
X15632380Y-51833333D02*
X15632380Y-51166666D01*
X16632380Y-51595238D01*
%TO.C,R6*%
X41833333Y-40272380D02*
X41500000Y-39796190D01*
X41261904Y-40272380D02*
X41261904Y-39272380D01*
X41642857Y-39272380D01*
X41738095Y-39320000D01*
X41785714Y-39367619D01*
X41833333Y-39462857D01*
X41833333Y-39605714D01*
X41785714Y-39700952D01*
X41738095Y-39748571D01*
X41642857Y-39796190D01*
X41261904Y-39796190D01*
X42690476Y-39272380D02*
X42500000Y-39272380D01*
X42404761Y-39320000D01*
X42357142Y-39367619D01*
X42261904Y-39510476D01*
X42214285Y-39700952D01*
X42214285Y-40081904D01*
X42261904Y-40177142D01*
X42309523Y-40224761D01*
X42404761Y-40272380D01*
X42595238Y-40272380D01*
X42690476Y-40224761D01*
X42738095Y-40177142D01*
X42785714Y-40081904D01*
X42785714Y-39843809D01*
X42738095Y-39748571D01*
X42690476Y-39700952D01*
X42595238Y-39653333D01*
X42404761Y-39653333D01*
X42309523Y-39700952D01*
X42261904Y-39748571D01*
X42214285Y-39843809D01*
%TO.C,R5*%
X16833333Y-40272380D02*
X16500000Y-39796190D01*
X16261904Y-40272380D02*
X16261904Y-39272380D01*
X16642857Y-39272380D01*
X16738095Y-39320000D01*
X16785714Y-39367619D01*
X16833333Y-39462857D01*
X16833333Y-39605714D01*
X16785714Y-39700952D01*
X16738095Y-39748571D01*
X16642857Y-39796190D01*
X16261904Y-39796190D01*
X17738095Y-39272380D02*
X17261904Y-39272380D01*
X17214285Y-39748571D01*
X17261904Y-39700952D01*
X17357142Y-39653333D01*
X17595238Y-39653333D01*
X17690476Y-39700952D01*
X17738095Y-39748571D01*
X17785714Y-39843809D01*
X17785714Y-40081904D01*
X17738095Y-40177142D01*
X17690476Y-40224761D01*
X17595238Y-40272380D01*
X17357142Y-40272380D01*
X17261904Y-40224761D01*
X17214285Y-40177142D01*
%TO.C,D5*%
X43749404Y-21272380D02*
X43749404Y-20272380D01*
X43987500Y-20272380D01*
X44130357Y-20320000D01*
X44225595Y-20415238D01*
X44273214Y-20510476D01*
X44320833Y-20700952D01*
X44320833Y-20843809D01*
X44273214Y-21034285D01*
X44225595Y-21129523D01*
X44130357Y-21224761D01*
X43987500Y-21272380D01*
X43749404Y-21272380D01*
X45225595Y-20272380D02*
X44749404Y-20272380D01*
X44701785Y-20748571D01*
X44749404Y-20700952D01*
X44844642Y-20653333D01*
X45082738Y-20653333D01*
X45177976Y-20700952D01*
X45225595Y-20748571D01*
X45273214Y-20843809D01*
X45273214Y-21081904D01*
X45225595Y-21177142D01*
X45177976Y-21224761D01*
X45082738Y-21272380D01*
X44844642Y-21272380D01*
X44749404Y-21224761D01*
X44701785Y-21177142D01*
%TO.C,D4*%
X19249404Y-21272380D02*
X19249404Y-20272380D01*
X19487500Y-20272380D01*
X19630357Y-20320000D01*
X19725595Y-20415238D01*
X19773214Y-20510476D01*
X19820833Y-20700952D01*
X19820833Y-20843809D01*
X19773214Y-21034285D01*
X19725595Y-21129523D01*
X19630357Y-21224761D01*
X19487500Y-21272380D01*
X19249404Y-21272380D01*
X20677976Y-20605714D02*
X20677976Y-21272380D01*
X20439880Y-20224761D02*
X20201785Y-20939047D01*
X20820833Y-20939047D01*
%TO.C,D3*%
X12632380Y-52750595D02*
X11632380Y-52750595D01*
X11632380Y-52512500D01*
X11680000Y-52369642D01*
X11775238Y-52274404D01*
X11870476Y-52226785D01*
X12060952Y-52179166D01*
X12203809Y-52179166D01*
X12394285Y-52226785D01*
X12489523Y-52274404D01*
X12584761Y-52369642D01*
X12632380Y-52512500D01*
X12632380Y-52750595D01*
X11632380Y-51845833D02*
X11632380Y-51226785D01*
X12013333Y-51560119D01*
X12013333Y-51417261D01*
X12060952Y-51322023D01*
X12108571Y-51274404D01*
X12203809Y-51226785D01*
X12441904Y-51226785D01*
X12537142Y-51274404D01*
X12584761Y-51322023D01*
X12632380Y-51417261D01*
X12632380Y-51702976D01*
X12584761Y-51798214D01*
X12537142Y-51845833D01*
%TO.C,H4*%
X60738095Y-49602380D02*
X60738095Y-48602380D01*
X60738095Y-49078571D02*
X61309523Y-49078571D01*
X61309523Y-49602380D02*
X61309523Y-48602380D01*
X62214285Y-48935714D02*
X62214285Y-49602380D01*
X61976190Y-48554761D02*
X61738095Y-49269047D01*
X62357142Y-49269047D01*
%TO.C,H3*%
X60738095Y-602380D02*
X60738095Y397619D01*
X60738095Y-78571D02*
X61309523Y-78571D01*
X61309523Y-602380D02*
X61309523Y397619D01*
X61690476Y397619D02*
X62309523Y397619D01*
X61976190Y16666D01*
X62119047Y16666D01*
X62214285Y-30952D01*
X62261904Y-78571D01*
X62309523Y-173809D01*
X62309523Y-411904D01*
X62261904Y-507142D01*
X62214285Y-554761D01*
X62119047Y-602380D01*
X61833333Y-602380D01*
X61738095Y-554761D01*
X61690476Y-507142D01*
%TO.C,H2*%
X2738095Y-49602380D02*
X2738095Y-48602380D01*
X2738095Y-49078571D02*
X3309523Y-49078571D01*
X3309523Y-49602380D02*
X3309523Y-48602380D01*
X3738095Y-48697619D02*
X3785714Y-48650000D01*
X3880952Y-48602380D01*
X4119047Y-48602380D01*
X4214285Y-48650000D01*
X4261904Y-48697619D01*
X4309523Y-48792857D01*
X4309523Y-48888095D01*
X4261904Y-49030952D01*
X3690476Y-49602380D01*
X4309523Y-49602380D01*
%TO.C,H1*%
X2738095Y-602380D02*
X2738095Y397619D01*
X2738095Y-78571D02*
X3309523Y-78571D01*
X3309523Y-602380D02*
X3309523Y397619D01*
X4309523Y-602380D02*
X3738095Y-602380D01*
X4023809Y-602380D02*
X4023809Y397619D01*
X3928571Y254761D01*
X3833333Y159523D01*
X3738095Y111904D01*
%TO.C,D2*%
X44211904Y-22452380D02*
X44211904Y-21452380D01*
X44450000Y-21452380D01*
X44592857Y-21500000D01*
X44688095Y-21595238D01*
X44735714Y-21690476D01*
X44783333Y-21880952D01*
X44783333Y-22023809D01*
X44735714Y-22214285D01*
X44688095Y-22309523D01*
X44592857Y-22404761D01*
X44450000Y-22452380D01*
X44211904Y-22452380D01*
X45164285Y-21547619D02*
X45211904Y-21500000D01*
X45307142Y-21452380D01*
X45545238Y-21452380D01*
X45640476Y-21500000D01*
X45688095Y-21547619D01*
X45735714Y-21642857D01*
X45735714Y-21738095D01*
X45688095Y-21880952D01*
X45116666Y-22452380D01*
X45735714Y-22452380D01*
%TO.C,D1*%
X19311904Y-22452380D02*
X19311904Y-21452380D01*
X19550000Y-21452380D01*
X19692857Y-21500000D01*
X19788095Y-21595238D01*
X19835714Y-21690476D01*
X19883333Y-21880952D01*
X19883333Y-22023809D01*
X19835714Y-22214285D01*
X19788095Y-22309523D01*
X19692857Y-22404761D01*
X19550000Y-22452380D01*
X19311904Y-22452380D01*
X20835714Y-22452380D02*
X20264285Y-22452380D01*
X20550000Y-22452380D02*
X20550000Y-21452380D01*
X20454761Y-21595238D01*
X20359523Y-21690476D01*
X20264285Y-21738095D01*
%TO.C,U2*%
X44428095Y-35282380D02*
X44428095Y-36091904D01*
X44475714Y-36187142D01*
X44523333Y-36234761D01*
X44618571Y-36282380D01*
X44809047Y-36282380D01*
X44904285Y-36234761D01*
X44951904Y-36187142D01*
X44999523Y-36091904D01*
X44999523Y-35282380D01*
X45428095Y-35377619D02*
X45475714Y-35330000D01*
X45570952Y-35282380D01*
X45809047Y-35282380D01*
X45904285Y-35330000D01*
X45951904Y-35377619D01*
X45999523Y-35472857D01*
X45999523Y-35568095D01*
X45951904Y-35710952D01*
X45380476Y-36282380D01*
X45999523Y-36282380D01*
%TO.C,U1*%
X19428095Y-35322380D02*
X19428095Y-36131904D01*
X19475714Y-36227142D01*
X19523333Y-36274761D01*
X19618571Y-36322380D01*
X19809047Y-36322380D01*
X19904285Y-36274761D01*
X19951904Y-36227142D01*
X19999523Y-36131904D01*
X19999523Y-35322380D01*
X20999523Y-36322380D02*
X20428095Y-36322380D01*
X20713809Y-36322380D02*
X20713809Y-35322380D01*
X20618571Y-35465238D01*
X20523333Y-35560476D01*
X20428095Y-35608095D01*
%TO.C,R4*%
X47383333Y-36632380D02*
X47050000Y-36156190D01*
X46811904Y-36632380D02*
X46811904Y-35632380D01*
X47192857Y-35632380D01*
X47288095Y-35680000D01*
X47335714Y-35727619D01*
X47383333Y-35822857D01*
X47383333Y-35965714D01*
X47335714Y-36060952D01*
X47288095Y-36108571D01*
X47192857Y-36156190D01*
X46811904Y-36156190D01*
X48240476Y-35965714D02*
X48240476Y-36632380D01*
X48002380Y-35584761D02*
X47764285Y-36299047D01*
X48383333Y-36299047D01*
%TO.C,R3*%
X61783333Y-20632380D02*
X61450000Y-20156190D01*
X61211904Y-20632380D02*
X61211904Y-19632380D01*
X61592857Y-19632380D01*
X61688095Y-19680000D01*
X61735714Y-19727619D01*
X61783333Y-19822857D01*
X61783333Y-19965714D01*
X61735714Y-20060952D01*
X61688095Y-20108571D01*
X61592857Y-20156190D01*
X61211904Y-20156190D01*
X62116666Y-19632380D02*
X62735714Y-19632380D01*
X62402380Y-20013333D01*
X62545238Y-20013333D01*
X62640476Y-20060952D01*
X62688095Y-20108571D01*
X62735714Y-20203809D01*
X62735714Y-20441904D01*
X62688095Y-20537142D01*
X62640476Y-20584761D01*
X62545238Y-20632380D01*
X62259523Y-20632380D01*
X62164285Y-20584761D01*
X62116666Y-20537142D01*
%TO.C,R2*%
X22383333Y-36632380D02*
X22050000Y-36156190D01*
X21811904Y-36632380D02*
X21811904Y-35632380D01*
X22192857Y-35632380D01*
X22288095Y-35680000D01*
X22335714Y-35727619D01*
X22383333Y-35822857D01*
X22383333Y-35965714D01*
X22335714Y-36060952D01*
X22288095Y-36108571D01*
X22192857Y-36156190D01*
X21811904Y-36156190D01*
X22764285Y-35727619D02*
X22811904Y-35680000D01*
X22907142Y-35632380D01*
X23145238Y-35632380D01*
X23240476Y-35680000D01*
X23288095Y-35727619D01*
X23335714Y-35822857D01*
X23335714Y-35918095D01*
X23288095Y-36060952D01*
X22716666Y-36632380D01*
X23335714Y-36632380D01*
%TO.C,R1*%
X36833333Y-20582380D02*
X36500000Y-20106190D01*
X36261904Y-20582380D02*
X36261904Y-19582380D01*
X36642857Y-19582380D01*
X36738095Y-19630000D01*
X36785714Y-19677619D01*
X36833333Y-19772857D01*
X36833333Y-19915714D01*
X36785714Y-20010952D01*
X36738095Y-20058571D01*
X36642857Y-20106190D01*
X36261904Y-20106190D01*
X37785714Y-20582380D02*
X37214285Y-20582380D01*
X37500000Y-20582380D02*
X37500000Y-19582380D01*
X37404761Y-19725238D01*
X37309523Y-19820476D01*
X37214285Y-19868095D01*
%TO.C,Q3*%
X65047619Y-26095238D02*
X65000000Y-26190476D01*
X64904761Y-26285714D01*
X64761904Y-26428571D01*
X64714285Y-26523809D01*
X64714285Y-26619047D01*
X64952380Y-26571428D02*
X64904761Y-26666666D01*
X64809523Y-26761904D01*
X64619047Y-26809523D01*
X64285714Y-26809523D01*
X64095238Y-26761904D01*
X64000000Y-26666666D01*
X63952380Y-26571428D01*
X63952380Y-26380952D01*
X64000000Y-26285714D01*
X64095238Y-26190476D01*
X64285714Y-26142857D01*
X64619047Y-26142857D01*
X64809523Y-26190476D01*
X64904761Y-26285714D01*
X64952380Y-26380952D01*
X64952380Y-26571428D01*
X63952380Y-25809523D02*
X63952380Y-25190476D01*
X64333333Y-25523809D01*
X64333333Y-25380952D01*
X64380952Y-25285714D01*
X64428571Y-25238095D01*
X64523809Y-25190476D01*
X64761904Y-25190476D01*
X64857142Y-25238095D01*
X64904761Y-25285714D01*
X64952380Y-25380952D01*
X64952380Y-25666666D01*
X64904761Y-25761904D01*
X64857142Y-25809523D01*
%TO.C,Q2*%
X40047619Y-26095238D02*
X40000000Y-26190476D01*
X39904761Y-26285714D01*
X39761904Y-26428571D01*
X39714285Y-26523809D01*
X39714285Y-26619047D01*
X39952380Y-26571428D02*
X39904761Y-26666666D01*
X39809523Y-26761904D01*
X39619047Y-26809523D01*
X39285714Y-26809523D01*
X39095238Y-26761904D01*
X39000000Y-26666666D01*
X38952380Y-26571428D01*
X38952380Y-26380952D01*
X39000000Y-26285714D01*
X39095238Y-26190476D01*
X39285714Y-26142857D01*
X39619047Y-26142857D01*
X39809523Y-26190476D01*
X39904761Y-26285714D01*
X39952380Y-26380952D01*
X39952380Y-26571428D01*
X39047619Y-25761904D02*
X39000000Y-25714285D01*
X38952380Y-25619047D01*
X38952380Y-25380952D01*
X39000000Y-25285714D01*
X39047619Y-25238095D01*
X39142857Y-25190476D01*
X39238095Y-25190476D01*
X39380952Y-25238095D01*
X39952380Y-25809523D01*
X39952380Y-25190476D01*
%TO.C,Q1*%
X897619Y-25345238D02*
X850000Y-25440476D01*
X754761Y-25535714D01*
X611904Y-25678571D01*
X564285Y-25773809D01*
X564285Y-25869047D01*
X802380Y-25821428D02*
X754761Y-25916666D01*
X659523Y-26011904D01*
X469047Y-26059523D01*
X135714Y-26059523D01*
X-54761Y-26011904D01*
X-150000Y-25916666D01*
X-197619Y-25821428D01*
X-197619Y-25630952D01*
X-150000Y-25535714D01*
X-54761Y-25440476D01*
X135714Y-25392857D01*
X469047Y-25392857D01*
X659523Y-25440476D01*
X754761Y-25535714D01*
X802380Y-25630952D01*
X802380Y-25821428D01*
X802380Y-24440476D02*
X802380Y-25011904D01*
X802380Y-24726190D02*
X-197619Y-24726190D01*
X-54761Y-24821428D01*
X40476Y-24916666D01*
X88095Y-25011904D01*
%TO.C,K2*%
X54681904Y-23092380D02*
X54681904Y-22092380D01*
X55253333Y-23092380D02*
X54824761Y-22520952D01*
X55253333Y-22092380D02*
X54681904Y-22663809D01*
X55634285Y-22187619D02*
X55681904Y-22140000D01*
X55777142Y-22092380D01*
X56015238Y-22092380D01*
X56110476Y-22140000D01*
X56158095Y-22187619D01*
X56205714Y-22282857D01*
X56205714Y-22378095D01*
X56158095Y-22520952D01*
X55586666Y-23092380D01*
X56205714Y-23092380D01*
%TO.C,K1*%
X29681904Y-23092380D02*
X29681904Y-22092380D01*
X30253333Y-23092380D02*
X29824761Y-22520952D01*
X30253333Y-22092380D02*
X29681904Y-22663809D01*
X31205714Y-23092380D02*
X30634285Y-23092380D01*
X30920000Y-23092380D02*
X30920000Y-22092380D01*
X30824761Y-22235238D01*
X30729523Y-22330476D01*
X30634285Y-22378095D01*
%TO.C,J2*%
X966666Y-44452380D02*
X966666Y-45166666D01*
X919047Y-45309523D01*
X823809Y-45404761D01*
X680952Y-45452380D01*
X585714Y-45452380D01*
X1395238Y-44547619D02*
X1442857Y-44500000D01*
X1538095Y-44452380D01*
X1776190Y-44452380D01*
X1871428Y-44500000D01*
X1919047Y-44547619D01*
X1966666Y-44642857D01*
X1966666Y-44738095D01*
X1919047Y-44880952D01*
X1347619Y-45452380D01*
X1966666Y-45452380D01*
%TD*%
M02*
